G04 #@! TF.GenerationSoftware,KiCad,Pcbnew,(5.1.5-0-10_14)*
G04 #@! TF.CreationDate,2020-01-03T10:30:25-06:00*
G04 #@! TF.ProjectId,interface-ascii,696e7465-7266-4616-9365-2d6173636969,2.3*
G04 #@! TF.SameCoordinates,Original*
G04 #@! TF.FileFunction,Soldermask,Bot*
G04 #@! TF.FilePolarity,Negative*
%FSLAX46Y46*%
G04 Gerber Fmt 4.6, Leading zero omitted, Abs format (unit mm)*
G04 Created by KiCad (PCBNEW (5.1.5-0-10_14)) date 2020-01-03 10:30:25*
%MOMM*%
%LPD*%
G04 APERTURE LIST*
%ADD10O,1.600000X1.600000*%
%ADD11C,1.600000*%
%ADD12R,1.600000X1.600000*%
%ADD13O,1.700000X1.700000*%
%ADD14R,1.700000X1.700000*%
G04 APERTURE END LIST*
D10*
X216893000Y-92991000D03*
D11*
X216893000Y-82831000D03*
D10*
X185905000Y-140108000D03*
X203685000Y-147728000D03*
X188445000Y-140108000D03*
X201145000Y-147728000D03*
X190985000Y-140108000D03*
X198605000Y-147728000D03*
X193525000Y-140108000D03*
X196065000Y-147728000D03*
X196065000Y-140108000D03*
X193525000Y-147728000D03*
X198605000Y-140108000D03*
X190985000Y-147728000D03*
X201145000Y-140108000D03*
X188445000Y-147728000D03*
X203685000Y-140108000D03*
D12*
X185905000Y-147728000D03*
D10*
X192890000Y-87276000D03*
X208130000Y-94896000D03*
X195430000Y-87276000D03*
X205590000Y-94896000D03*
X197970000Y-87276000D03*
X203050000Y-94896000D03*
X200510000Y-87276000D03*
X200510000Y-94896000D03*
X203050000Y-87276000D03*
X197970000Y-94896000D03*
X205590000Y-87276000D03*
X195430000Y-94896000D03*
X208130000Y-87276000D03*
D12*
X192890000Y-94896000D03*
D10*
X203812000Y-167540000D03*
D11*
X193652000Y-167540000D03*
D13*
X177015000Y-74576000D03*
X174475000Y-74576000D03*
X171935000Y-74576000D03*
X169395000Y-74576000D03*
D14*
X166855000Y-74576000D03*
D10*
X244706000Y-83466000D03*
D11*
X244706000Y-93626000D03*
X187810000Y-92062000D03*
X187810000Y-89562000D03*
D10*
X193652000Y-159920000D03*
D11*
X203812000Y-159920000D03*
D12*
X222250000Y-160072400D03*
D10*
X222250000Y-167692400D03*
D12*
X227330000Y-160072400D03*
D10*
X227330000Y-167692400D03*
D12*
X232410000Y-160072400D03*
D10*
X232410000Y-167692400D03*
D12*
X237490000Y-160072400D03*
D10*
X237490000Y-167692400D03*
D12*
X242570000Y-160072400D03*
D10*
X242570000Y-167692400D03*
D12*
X224790000Y-160072400D03*
D10*
X224790000Y-167692400D03*
D12*
X229870000Y-160072400D03*
D10*
X229870000Y-167692400D03*
D12*
X234950000Y-160072400D03*
D10*
X234950000Y-167692400D03*
D12*
X212498800Y-144807000D03*
D10*
X212498800Y-152427000D03*
D12*
X209550000Y-160072400D03*
D10*
X209550000Y-167692400D03*
D12*
X214630000Y-160072400D03*
D10*
X214630000Y-167692400D03*
D12*
X219710000Y-160072400D03*
D10*
X219710000Y-167692400D03*
D12*
X240030000Y-160072400D03*
D10*
X240030000Y-167692400D03*
D12*
X215064200Y-144781600D03*
D10*
X215064200Y-152401600D03*
D12*
X212090000Y-160072400D03*
D10*
X212090000Y-167692400D03*
D12*
X217170000Y-160072400D03*
D10*
X217170000Y-167692400D03*
X203812000Y-163730000D03*
D11*
X193652000Y-163730000D03*
D10*
X175999000Y-168175000D03*
D12*
X175999000Y-160555000D03*
D13*
X233479200Y-175566400D03*
X233479200Y-173026400D03*
X230939200Y-175566400D03*
X230939200Y-173026400D03*
X228399200Y-175566400D03*
X228399200Y-173026400D03*
X225859200Y-175566400D03*
X225859200Y-173026400D03*
X223319200Y-175566400D03*
X223319200Y-173026400D03*
X220779200Y-175566400D03*
X220779200Y-173026400D03*
X218239200Y-175566400D03*
X218239200Y-173026400D03*
X215699200Y-175566400D03*
X215699200Y-173026400D03*
X213159200Y-175566400D03*
X213159200Y-173026400D03*
X210619200Y-175566400D03*
X210619200Y-173026400D03*
X208079200Y-175566400D03*
X208079200Y-173026400D03*
X205539200Y-175566400D03*
X205539200Y-173026400D03*
X202999200Y-175566400D03*
X202999200Y-173026400D03*
X200459200Y-175566400D03*
X200459200Y-173026400D03*
X197919200Y-175566400D03*
X197919200Y-173026400D03*
X195379200Y-175566400D03*
X195379200Y-173026400D03*
X192839200Y-175566400D03*
X192839200Y-173026400D03*
X190299200Y-175566400D03*
X190299200Y-173026400D03*
X187759200Y-175566400D03*
X187759200Y-173026400D03*
X185219200Y-175566400D03*
D14*
X185219200Y-173026400D03*
D13*
X250248280Y-75703760D03*
X247708280Y-75703760D03*
X245168280Y-75703760D03*
D14*
X242628280Y-75703760D03*
D12*
X248262000Y-124741000D03*
D10*
X240642000Y-106961000D03*
X248262000Y-122201000D03*
X240642000Y-109501000D03*
X248262000Y-119661000D03*
X240642000Y-112041000D03*
X248262000Y-117121000D03*
X240642000Y-114581000D03*
X248262000Y-114581000D03*
X240642000Y-117121000D03*
X248262000Y-112041000D03*
X240642000Y-119661000D03*
X248262000Y-109501000D03*
X240642000Y-122201000D03*
X248262000Y-106961000D03*
X240642000Y-124741000D03*
X186235200Y-131218000D03*
D12*
X186235200Y-123598000D03*
D10*
X191315200Y-131218000D03*
D12*
X191315200Y-123598000D03*
D10*
X196395200Y-131218000D03*
D12*
X196395200Y-123598000D03*
D10*
X201475200Y-131218000D03*
D12*
X201475200Y-123598000D03*
D10*
X188775200Y-131218000D03*
D12*
X188775200Y-123598000D03*
D10*
X193855200Y-131218000D03*
D12*
X193855200Y-123598000D03*
D10*
X198935200Y-131218000D03*
D12*
X198935200Y-123598000D03*
D10*
X204015200Y-131218000D03*
D12*
X204015200Y-123598000D03*
D13*
X174856000Y-121566000D03*
X177396000Y-121566000D03*
X174856000Y-124106000D03*
X177396000Y-124106000D03*
X174856000Y-126646000D03*
D14*
X177396000Y-126646000D03*
D11*
X230746800Y-133199200D03*
X228246800Y-133199200D03*
X242380000Y-133199200D03*
X239880000Y-133199200D03*
X181587000Y-117716000D03*
X181587000Y-115216000D03*
X208003000Y-142434000D03*
X208003000Y-144934000D03*
D10*
X237289200Y-154382800D03*
X244909200Y-136602800D03*
X237289200Y-151842800D03*
X244909200Y-139142800D03*
X237289200Y-149302800D03*
X244909200Y-141682800D03*
X237289200Y-146762800D03*
X244909200Y-144222800D03*
X237289200Y-144222800D03*
X244909200Y-146762800D03*
X237289200Y-141682800D03*
X244909200Y-149302800D03*
X237289200Y-139142800D03*
X244909200Y-151842800D03*
X237289200Y-136602800D03*
D12*
X244909200Y-154382800D03*
D10*
X222150800Y-154382800D03*
X229770800Y-136602800D03*
X222150800Y-151842800D03*
X229770800Y-139142800D03*
X222150800Y-149302800D03*
X229770800Y-141682800D03*
X222150800Y-146762800D03*
X229770800Y-144222800D03*
X222150800Y-144222800D03*
X229770800Y-146762800D03*
X222150800Y-141682800D03*
X229770800Y-149302800D03*
X222150800Y-139142800D03*
X229770800Y-151842800D03*
X222150800Y-136602800D03*
D12*
X229770800Y-154382800D03*
D10*
X248516000Y-83339000D03*
D11*
X248516000Y-93499000D03*
D10*
X186159000Y-105437000D03*
X219179000Y-113057000D03*
X188699000Y-105437000D03*
X216639000Y-113057000D03*
X191239000Y-105437000D03*
X214099000Y-113057000D03*
X193779000Y-105437000D03*
X211559000Y-113057000D03*
X196319000Y-105437000D03*
X209019000Y-113057000D03*
X198859000Y-105437000D03*
X206479000Y-113057000D03*
X201399000Y-105437000D03*
X203939000Y-113057000D03*
X203939000Y-105437000D03*
X201399000Y-113057000D03*
X206479000Y-105437000D03*
X198859000Y-113057000D03*
X209019000Y-105437000D03*
X196319000Y-113057000D03*
X211559000Y-105437000D03*
X193779000Y-113057000D03*
X214099000Y-105437000D03*
X191239000Y-113057000D03*
X216639000Y-105437000D03*
X188699000Y-113057000D03*
X219179000Y-105437000D03*
D12*
X186159000Y-113057000D03*
X216561832Y-77370000D03*
D10*
X234341832Y-69750000D03*
X219101832Y-77370000D03*
X231801832Y-69750000D03*
X221641832Y-77370000D03*
X229261832Y-69750000D03*
X224181832Y-77370000D03*
X226721832Y-69750000D03*
X226721832Y-77370000D03*
X224181832Y-69750000D03*
X229261832Y-77370000D03*
X221641832Y-69750000D03*
X231801832Y-77370000D03*
X219101832Y-69750000D03*
X234341832Y-77370000D03*
X216561832Y-69750000D03*
X173205000Y-168175000D03*
D12*
X173205000Y-160555000D03*
D10*
X178920000Y-168175000D03*
D12*
X178920000Y-160555000D03*
X204243800Y-154967000D03*
D10*
X201703800Y-154967000D03*
X199163800Y-154967000D03*
X196623800Y-154967000D03*
X194083800Y-154967000D03*
X191543800Y-154967000D03*
X189003800Y-154967000D03*
X186463800Y-154967000D03*
X183923800Y-154967000D03*
D12*
X184390166Y-77370000D03*
D10*
X202170166Y-69750000D03*
X186930166Y-77370000D03*
X199630166Y-69750000D03*
X189470166Y-77370000D03*
X197090166Y-69750000D03*
X192010166Y-77370000D03*
X194550166Y-69750000D03*
X194550166Y-77370000D03*
X192010166Y-69750000D03*
X197090166Y-77370000D03*
X189470166Y-69750000D03*
X199630166Y-77370000D03*
X186930166Y-69750000D03*
X202170166Y-77370000D03*
X184390166Y-69750000D03*
M02*
