M48
; DRILL file {KiCad (5.1.5-0-10_14)} date Friday, January 03, 2020 at 10:30:27 AM
; FORMAT={-:-/ absolute / inch / decimal}
; #@! TF.CreationDate,2020-01-03T10:30:27-06:00
; #@! TF.GenerationSoftware,Kicad,Pcbnew,(5.1.5-0-10_14)
; #@! TF.FileFunction,Plated,1,2,PTH
FMAT,2
INCH
T1C0.0160
T2C0.0280
T3C0.0315
T4C0.0394
%
G90
G05
T1
X6.6091Y-5.7746
X6.6541Y-5.7211
X6.683Y-4.1721
X6.8041Y-3.8411
X6.9041Y-3.8111
X6.9591Y-4.1861
X6.9641Y-3.3211
X6.9841Y-4.0301
X7.0301Y-3.9921
X7.0341Y-3.2911
X7.0741Y-3.2411
X7.0741Y-3.9561
X7.2321Y-3.2441
X7.3941Y-6.3061
X7.5895Y-4.3066
X7.5981Y-4.3721
X7.7341Y-3.2322
X7.7641Y-3.9911
X7.7691Y-5.8811
X7.9041Y-6.5961
X8.2341Y-3.9561
X8.2495Y-4.5485
X8.2641Y-2.9871
X8.2641Y-3.2611
X8.4791Y-4.0461
X8.5275Y-4.9133
X8.5611Y-4.9911
X8.5791Y-4.0461
X8.5929Y-5.0477
X8.6291Y-3.8161
X8.6315Y-5.1031
X8.6817Y-4.0437
X8.8251Y-2.8871
X8.8741Y-3.2261
X9.2821Y-3.1379
X9.2821Y-3.2201
X9.5051Y-5.6291
X9.7851Y-5.4741
T2
X8.8107Y-4.3395
X8.8841Y-4.3411
X8.9591Y-4.3395
T3
X8.85Y-6.3021
X8.85Y-6.6021
X7.6321Y-4.8661
X7.6321Y-5.1661
X9.4741Y-4.2111
X9.4741Y-4.3111
X9.4741Y-4.4111
X9.4741Y-4.5111
X9.4741Y-4.6111
X9.4741Y-4.7111
X9.4741Y-4.8111
X9.4741Y-4.9111
X9.7741Y-4.2111
X9.7741Y-4.3111
X9.7741Y-4.4111
X9.7741Y-4.5111
X9.7741Y-4.6111
X9.7741Y-4.7111
X9.7741Y-4.8111
X9.7741Y-4.9111
X8.95Y-6.3021
X8.95Y-6.6021
X8.9861Y-5.2441
X9.0845Y-5.2441
X9.55Y-6.3021
X9.55Y-6.6021
X8.35Y-6.3021
X8.35Y-6.6021
X9.4441Y-5.2441
X9.5425Y-5.2441
X7.3941Y-3.5261
X7.3941Y-3.6245
X7.4321Y-4.8661
X7.4321Y-5.1661
X7.1491Y-4.5361
X7.1491Y-4.6345
X6.8191Y-6.3211
X6.8191Y-6.6211
X9.3421Y-5.3781
X9.3421Y-5.4781
X9.3421Y-5.5781
X9.3421Y-5.6781
X9.3421Y-5.7781
X9.3421Y-5.8781
X9.3421Y-5.9781
X9.3421Y-6.0781
X9.6421Y-5.3781
X9.6421Y-5.4781
X9.6421Y-5.5781
X9.6421Y-5.6781
X9.6421Y-5.7781
X9.6421Y-5.8781
X9.6421Y-5.9781
X9.6421Y-6.0781
X9.35Y-6.3021
X9.35Y-6.6021
X9.25Y-6.3021
X9.25Y-6.6021
X7.3291Y-4.1511
X7.3291Y-4.4511
X7.4291Y-4.1511
X7.4291Y-4.4511
X7.5291Y-4.1511
X7.5291Y-4.4511
X7.6291Y-4.1511
X7.6291Y-4.4511
X7.7291Y-4.1511
X7.7291Y-4.4511
X7.8291Y-4.1511
X7.8291Y-4.4511
X7.9291Y-4.1511
X7.9291Y-4.4511
X8.0291Y-4.1511
X8.0291Y-4.4511
X8.1291Y-4.1511
X8.1291Y-4.4511
X8.2291Y-4.1511
X8.2291Y-4.4511
X8.3291Y-4.1511
X8.3291Y-4.4511
X8.4291Y-4.1511
X8.4291Y-4.4511
X8.5291Y-4.1511
X8.5291Y-4.4511
X8.6291Y-4.1511
X8.6291Y-4.4511
X9.6341Y-3.2861
X9.6341Y-3.6861
X8.0321Y-4.8661
X8.0321Y-5.1661
X8.5261Y-2.7461
X8.5261Y-3.0461
X8.6261Y-2.7461
X8.6261Y-3.0461
X8.7261Y-2.7461
X8.7261Y-3.0461
X8.8261Y-2.7461
X8.8261Y-3.0461
X8.9261Y-2.7461
X8.9261Y-3.0461
X9.0261Y-2.7461
X9.0261Y-3.0461
X9.1261Y-2.7461
X9.1261Y-3.0461
X9.2261Y-2.7461
X9.2261Y-3.0461
X8.45Y-6.3021
X8.45Y-6.6021
X9.05Y-6.3021
X9.05Y-6.6021
X9.7841Y-3.2811
X9.7841Y-3.6811
X7.8321Y-4.8661
X7.8321Y-5.1661
X7.2595Y-2.7461
X7.2595Y-3.0461
X7.3595Y-2.7461
X7.3595Y-3.0461
X7.4595Y-2.7461
X7.4595Y-3.0461
X7.5595Y-2.7461
X7.5595Y-3.0461
X7.6595Y-2.7461
X7.6595Y-3.0461
X7.7595Y-2.7461
X7.7595Y-3.0461
X7.8595Y-2.7461
X7.8595Y-3.0461
X7.9595Y-2.7461
X7.9595Y-3.0461
X8.25Y-6.3021
X8.25Y-6.6021
X8.55Y-6.3021
X8.55Y-6.6021
X9.45Y-6.3021
X9.45Y-6.6021
X7.3321Y-4.8661
X7.3321Y-5.1661
X7.0441Y-6.3211
X7.0441Y-6.6211
X8.3661Y-5.7011
X8.3661Y-6.0011
X8.65Y-6.3021
X8.65Y-6.6021
X8.1891Y-5.6076
X8.1891Y-5.7061
X8.7461Y-5.3781
X8.7461Y-5.4781
X8.7461Y-5.5781
X8.7461Y-5.6781
X8.7461Y-5.7781
X8.7461Y-5.8781
X8.7461Y-5.9781
X8.7461Y-6.0781
X9.0461Y-5.3781
X9.0461Y-5.4781
X9.0461Y-5.5781
X9.0461Y-5.6781
X9.0461Y-5.7781
X9.0461Y-5.8781
X9.0461Y-5.9781
X9.0461Y-6.0781
X8.4671Y-5.7001
X8.4671Y-6.0001
X6.9291Y-6.3211
X6.9291Y-6.6211
X7.9321Y-4.8661
X7.9321Y-5.1661
X7.3191Y-5.5161
X7.3191Y-5.8161
X7.4191Y-5.5161
X7.4191Y-5.8161
X7.5191Y-5.5161
X7.5191Y-5.8161
X7.6191Y-5.5161
X7.6191Y-5.8161
X7.7191Y-5.5161
X7.7191Y-5.8161
X7.8191Y-5.5161
X7.8191Y-5.8161
X7.9191Y-5.5161
X7.9191Y-5.8161
X8.0191Y-5.5161
X8.0191Y-5.8161
X7.5941Y-3.4361
X7.5941Y-3.7361
X7.6941Y-3.4361
X7.6941Y-3.7361
X7.7941Y-3.4361
X7.7941Y-3.7361
X7.8941Y-3.4361
X7.8941Y-3.7361
X7.9941Y-3.4361
X7.9941Y-3.7361
X8.0941Y-3.4361
X8.0941Y-3.7361
X8.1941Y-3.4361
X8.1941Y-3.7361
X8.75Y-6.3021
X8.75Y-6.6021
X9.15Y-6.3021
X9.15Y-6.6021
X7.7321Y-4.8661
X7.7321Y-5.1661
X7.6241Y-6.5961
X8.0241Y-6.5961
X7.6241Y-6.4461
X8.0241Y-6.4461
X8.5391Y-3.2611
X8.5391Y-3.6611
X7.6241Y-6.2961
X8.0241Y-6.2961
X7.5321Y-4.8661
X7.5321Y-5.1661
X7.2411Y-6.1011
X7.3411Y-6.1011
X7.4411Y-6.1011
X7.5411Y-6.1011
X7.6411Y-6.1011
X7.7411Y-6.1011
X7.8411Y-6.1011
X7.9411Y-6.1011
X8.0411Y-6.1011
T4
X6.5691Y-2.9361
X6.6691Y-2.9361
X6.7691Y-2.9361
X6.8691Y-2.9361
X6.9691Y-2.9361
X6.8841Y-4.7861
X6.8841Y-4.8861
X6.8841Y-4.9861
X6.9841Y-4.7861
X6.9841Y-4.8861
X6.9841Y-4.9861
X7.2921Y-6.8121
X7.2921Y-6.9121
X7.3921Y-6.8121
X7.3921Y-6.9121
X7.4921Y-6.8121
X7.4921Y-6.9121
X7.5921Y-6.8121
X7.5921Y-6.9121
X7.6921Y-6.8121
X7.6921Y-6.9121
X7.7921Y-6.8121
X7.7921Y-6.9121
X7.8921Y-6.8121
X7.8921Y-6.9121
X7.9921Y-6.8121
X7.9921Y-6.9121
X8.0921Y-6.8121
X8.0921Y-6.9121
X8.1921Y-6.8121
X8.1921Y-6.9121
X8.2921Y-6.8121
X8.2921Y-6.9121
X8.3921Y-6.8121
X8.3921Y-6.9121
X8.4921Y-6.8121
X8.4921Y-6.9121
X8.5921Y-6.8121
X8.5921Y-6.9121
X8.6921Y-6.8121
X8.6921Y-6.9121
X8.7921Y-6.8121
X8.7921Y-6.9121
X8.8921Y-6.8121
X8.8921Y-6.9121
X8.9921Y-6.8121
X8.9921Y-6.9121
X9.0921Y-6.8121
X9.0921Y-6.9121
X9.1921Y-6.8121
X9.1921Y-6.9121
X9.5523Y-2.9805
X9.6523Y-2.9805
X9.7523Y-2.9805
X9.8523Y-2.9805
T0
M30
