G04 #@! TF.GenerationSoftware,KiCad,Pcbnew,(5.1.5-0-10_14)*
G04 #@! TF.CreationDate,2020-01-03T10:30:25-06:00*
G04 #@! TF.ProjectId,interface-ascii,696e7465-7266-4616-9365-2d6173636969,2.3*
G04 #@! TF.SameCoordinates,Original*
G04 #@! TF.FileFunction,Copper,L1,Top*
G04 #@! TF.FilePolarity,Positive*
%FSLAX46Y46*%
G04 Gerber Fmt 4.6, Leading zero omitted, Abs format (unit mm)*
G04 Created by KiCad (PCBNEW (5.1.5-0-10_14)) date 2020-01-03 10:30:25*
%MOMM*%
%LPD*%
G04 APERTURE LIST*
%ADD10C,0.050800*%
%ADD11O,1.600000X1.600000*%
%ADD12C,1.600000*%
%ADD13R,1.600000X1.600000*%
%ADD14O,1.700000X1.700000*%
%ADD15R,1.700000X1.700000*%
%ADD16C,1.270000*%
%ADD17C,0.812800*%
%ADD18C,1.270000*%
%ADD19C,0.254000*%
G04 APERTURE END LIST*
D10*
G36*
X222123000Y-167311400D02*
G01*
X222123000Y-160453400D01*
X222250000Y-160453400D01*
X222250000Y-167311400D01*
X222123000Y-167311400D01*
G37*
X222123000Y-167311400D02*
X222123000Y-160453400D01*
X222250000Y-160453400D01*
X222250000Y-167311400D01*
X222123000Y-167311400D01*
G36*
X227203000Y-167311400D02*
G01*
X227203000Y-160453400D01*
X227330000Y-160453400D01*
X227330000Y-167311400D01*
X227203000Y-167311400D01*
G37*
X227203000Y-167311400D02*
X227203000Y-160453400D01*
X227330000Y-160453400D01*
X227330000Y-167311400D01*
X227203000Y-167311400D01*
G36*
X232283000Y-167311400D02*
G01*
X232283000Y-160453400D01*
X232410000Y-160453400D01*
X232410000Y-167311400D01*
X232283000Y-167311400D01*
G37*
X232283000Y-167311400D02*
X232283000Y-160453400D01*
X232410000Y-160453400D01*
X232410000Y-167311400D01*
X232283000Y-167311400D01*
G36*
X237363000Y-167311400D02*
G01*
X237363000Y-160453400D01*
X237490000Y-160453400D01*
X237490000Y-167311400D01*
X237363000Y-167311400D01*
G37*
X237363000Y-167311400D02*
X237363000Y-160453400D01*
X237490000Y-160453400D01*
X237490000Y-167311400D01*
X237363000Y-167311400D01*
G36*
X242443000Y-167311400D02*
G01*
X242443000Y-160453400D01*
X242570000Y-160453400D01*
X242570000Y-167311400D01*
X242443000Y-167311400D01*
G37*
X242443000Y-167311400D02*
X242443000Y-160453400D01*
X242570000Y-160453400D01*
X242570000Y-167311400D01*
X242443000Y-167311400D01*
G36*
X224663000Y-167311400D02*
G01*
X224663000Y-160453400D01*
X224790000Y-160453400D01*
X224790000Y-167311400D01*
X224663000Y-167311400D01*
G37*
X224663000Y-167311400D02*
X224663000Y-160453400D01*
X224790000Y-160453400D01*
X224790000Y-167311400D01*
X224663000Y-167311400D01*
G36*
X229743000Y-167311400D02*
G01*
X229743000Y-160453400D01*
X229870000Y-160453400D01*
X229870000Y-167311400D01*
X229743000Y-167311400D01*
G37*
X229743000Y-167311400D02*
X229743000Y-160453400D01*
X229870000Y-160453400D01*
X229870000Y-167311400D01*
X229743000Y-167311400D01*
G36*
X234823000Y-167311400D02*
G01*
X234823000Y-160453400D01*
X234950000Y-160453400D01*
X234950000Y-167311400D01*
X234823000Y-167311400D01*
G37*
X234823000Y-167311400D02*
X234823000Y-160453400D01*
X234950000Y-160453400D01*
X234950000Y-167311400D01*
X234823000Y-167311400D01*
G36*
X212371800Y-152046000D02*
G01*
X212371800Y-145188000D01*
X212498800Y-145188000D01*
X212498800Y-152046000D01*
X212371800Y-152046000D01*
G37*
X212371800Y-152046000D02*
X212371800Y-145188000D01*
X212498800Y-145188000D01*
X212498800Y-152046000D01*
X212371800Y-152046000D01*
G36*
X209423000Y-167311400D02*
G01*
X209423000Y-160453400D01*
X209550000Y-160453400D01*
X209550000Y-167311400D01*
X209423000Y-167311400D01*
G37*
X209423000Y-167311400D02*
X209423000Y-160453400D01*
X209550000Y-160453400D01*
X209550000Y-167311400D01*
X209423000Y-167311400D01*
G36*
X214503000Y-167311400D02*
G01*
X214503000Y-160453400D01*
X214630000Y-160453400D01*
X214630000Y-167311400D01*
X214503000Y-167311400D01*
G37*
X214503000Y-167311400D02*
X214503000Y-160453400D01*
X214630000Y-160453400D01*
X214630000Y-167311400D01*
X214503000Y-167311400D01*
G36*
X219583000Y-167311400D02*
G01*
X219583000Y-160453400D01*
X219710000Y-160453400D01*
X219710000Y-167311400D01*
X219583000Y-167311400D01*
G37*
X219583000Y-167311400D02*
X219583000Y-160453400D01*
X219710000Y-160453400D01*
X219710000Y-167311400D01*
X219583000Y-167311400D01*
G36*
X239903000Y-167311400D02*
G01*
X239903000Y-160453400D01*
X240030000Y-160453400D01*
X240030000Y-167311400D01*
X239903000Y-167311400D01*
G37*
X239903000Y-167311400D02*
X239903000Y-160453400D01*
X240030000Y-160453400D01*
X240030000Y-167311400D01*
X239903000Y-167311400D01*
G36*
X214937200Y-152020600D02*
G01*
X214937200Y-145162600D01*
X215064200Y-145162600D01*
X215064200Y-152020600D01*
X214937200Y-152020600D01*
G37*
X214937200Y-152020600D02*
X214937200Y-145162600D01*
X215064200Y-145162600D01*
X215064200Y-152020600D01*
X214937200Y-152020600D01*
G36*
X211963000Y-167311400D02*
G01*
X211963000Y-160453400D01*
X212090000Y-160453400D01*
X212090000Y-167311400D01*
X211963000Y-167311400D01*
G37*
X211963000Y-167311400D02*
X211963000Y-160453400D01*
X212090000Y-160453400D01*
X212090000Y-167311400D01*
X211963000Y-167311400D01*
G36*
X217043000Y-167311400D02*
G01*
X217043000Y-160453400D01*
X217170000Y-160453400D01*
X217170000Y-167311400D01*
X217043000Y-167311400D01*
G37*
X217043000Y-167311400D02*
X217043000Y-160453400D01*
X217170000Y-160453400D01*
X217170000Y-167311400D01*
X217043000Y-167311400D01*
D11*
X216893000Y-92991000D03*
D12*
X216893000Y-82831000D03*
D11*
X185905000Y-140108000D03*
X203685000Y-147728000D03*
X188445000Y-140108000D03*
X201145000Y-147728000D03*
X190985000Y-140108000D03*
X198605000Y-147728000D03*
X193525000Y-140108000D03*
X196065000Y-147728000D03*
X196065000Y-140108000D03*
X193525000Y-147728000D03*
X198605000Y-140108000D03*
X190985000Y-147728000D03*
X201145000Y-140108000D03*
X188445000Y-147728000D03*
X203685000Y-140108000D03*
D13*
X185905000Y-147728000D03*
D11*
X192890000Y-87276000D03*
X208130000Y-94896000D03*
X195430000Y-87276000D03*
X205590000Y-94896000D03*
X197970000Y-87276000D03*
X203050000Y-94896000D03*
X200510000Y-87276000D03*
X200510000Y-94896000D03*
X203050000Y-87276000D03*
X197970000Y-94896000D03*
X205590000Y-87276000D03*
X195430000Y-94896000D03*
X208130000Y-87276000D03*
D13*
X192890000Y-94896000D03*
D11*
X203812000Y-167540000D03*
D12*
X193652000Y-167540000D03*
D14*
X177015000Y-74576000D03*
X174475000Y-74576000D03*
X171935000Y-74576000D03*
X169395000Y-74576000D03*
D15*
X166855000Y-74576000D03*
D11*
X244706000Y-83466000D03*
D12*
X244706000Y-93626000D03*
X187810000Y-92062000D03*
X187810000Y-89562000D03*
D11*
X193652000Y-159920000D03*
D12*
X203812000Y-159920000D03*
D13*
X222250000Y-160072400D03*
D11*
X222250000Y-167692400D03*
D13*
X227330000Y-160072400D03*
D11*
X227330000Y-167692400D03*
D13*
X232410000Y-160072400D03*
D11*
X232410000Y-167692400D03*
D13*
X237490000Y-160072400D03*
D11*
X237490000Y-167692400D03*
D13*
X242570000Y-160072400D03*
D11*
X242570000Y-167692400D03*
D13*
X224790000Y-160072400D03*
D11*
X224790000Y-167692400D03*
D13*
X229870000Y-160072400D03*
D11*
X229870000Y-167692400D03*
D13*
X234950000Y-160072400D03*
D11*
X234950000Y-167692400D03*
D13*
X212498800Y-144807000D03*
D11*
X212498800Y-152427000D03*
D13*
X209550000Y-160072400D03*
D11*
X209550000Y-167692400D03*
D13*
X214630000Y-160072400D03*
D11*
X214630000Y-167692400D03*
D13*
X219710000Y-160072400D03*
D11*
X219710000Y-167692400D03*
D13*
X240030000Y-160072400D03*
D11*
X240030000Y-167692400D03*
D13*
X215064200Y-144781600D03*
D11*
X215064200Y-152401600D03*
D13*
X212090000Y-160072400D03*
D11*
X212090000Y-167692400D03*
D13*
X217170000Y-160072400D03*
D11*
X217170000Y-167692400D03*
X203812000Y-163730000D03*
D12*
X193652000Y-163730000D03*
D11*
X175999000Y-168175000D03*
D13*
X175999000Y-160555000D03*
D14*
X233479200Y-175566400D03*
X233479200Y-173026400D03*
X230939200Y-175566400D03*
X230939200Y-173026400D03*
X228399200Y-175566400D03*
X228399200Y-173026400D03*
X225859200Y-175566400D03*
X225859200Y-173026400D03*
X223319200Y-175566400D03*
X223319200Y-173026400D03*
X220779200Y-175566400D03*
X220779200Y-173026400D03*
X218239200Y-175566400D03*
X218239200Y-173026400D03*
X215699200Y-175566400D03*
X215699200Y-173026400D03*
X213159200Y-175566400D03*
X213159200Y-173026400D03*
X210619200Y-175566400D03*
X210619200Y-173026400D03*
X208079200Y-175566400D03*
X208079200Y-173026400D03*
X205539200Y-175566400D03*
X205539200Y-173026400D03*
X202999200Y-175566400D03*
X202999200Y-173026400D03*
X200459200Y-175566400D03*
X200459200Y-173026400D03*
X197919200Y-175566400D03*
X197919200Y-173026400D03*
X195379200Y-175566400D03*
X195379200Y-173026400D03*
X192839200Y-175566400D03*
X192839200Y-173026400D03*
X190299200Y-175566400D03*
X190299200Y-173026400D03*
X187759200Y-175566400D03*
X187759200Y-173026400D03*
X185219200Y-175566400D03*
D15*
X185219200Y-173026400D03*
D14*
X250248280Y-75703760D03*
X247708280Y-75703760D03*
X245168280Y-75703760D03*
D15*
X242628280Y-75703760D03*
D13*
X248262000Y-124741000D03*
D11*
X240642000Y-106961000D03*
X248262000Y-122201000D03*
X240642000Y-109501000D03*
X248262000Y-119661000D03*
X240642000Y-112041000D03*
X248262000Y-117121000D03*
X240642000Y-114581000D03*
X248262000Y-114581000D03*
X240642000Y-117121000D03*
X248262000Y-112041000D03*
X240642000Y-119661000D03*
X248262000Y-109501000D03*
X240642000Y-122201000D03*
X248262000Y-106961000D03*
X240642000Y-124741000D03*
X186235200Y-131218000D03*
D13*
X186235200Y-123598000D03*
D11*
X191315200Y-131218000D03*
D13*
X191315200Y-123598000D03*
D11*
X196395200Y-131218000D03*
D13*
X196395200Y-123598000D03*
D11*
X201475200Y-131218000D03*
D13*
X201475200Y-123598000D03*
D11*
X188775200Y-131218000D03*
D13*
X188775200Y-123598000D03*
D11*
X193855200Y-131218000D03*
D13*
X193855200Y-123598000D03*
D11*
X198935200Y-131218000D03*
D13*
X198935200Y-123598000D03*
D11*
X204015200Y-131218000D03*
D13*
X204015200Y-123598000D03*
D14*
X174856000Y-121566000D03*
X177396000Y-121566000D03*
X174856000Y-124106000D03*
X177396000Y-124106000D03*
X174856000Y-126646000D03*
D15*
X177396000Y-126646000D03*
D12*
X230746800Y-133199200D03*
X228246800Y-133199200D03*
X242380000Y-133199200D03*
X239880000Y-133199200D03*
X181587000Y-117716000D03*
X181587000Y-115216000D03*
X208003000Y-142434000D03*
X208003000Y-144934000D03*
D11*
X237289200Y-154382800D03*
X244909200Y-136602800D03*
X237289200Y-151842800D03*
X244909200Y-139142800D03*
X237289200Y-149302800D03*
X244909200Y-141682800D03*
X237289200Y-146762800D03*
X244909200Y-144222800D03*
X237289200Y-144222800D03*
X244909200Y-146762800D03*
X237289200Y-141682800D03*
X244909200Y-149302800D03*
X237289200Y-139142800D03*
X244909200Y-151842800D03*
X237289200Y-136602800D03*
D13*
X244909200Y-154382800D03*
D11*
X222150800Y-154382800D03*
X229770800Y-136602800D03*
X222150800Y-151842800D03*
X229770800Y-139142800D03*
X222150800Y-149302800D03*
X229770800Y-141682800D03*
X222150800Y-146762800D03*
X229770800Y-144222800D03*
X222150800Y-144222800D03*
X229770800Y-146762800D03*
X222150800Y-141682800D03*
X229770800Y-149302800D03*
X222150800Y-139142800D03*
X229770800Y-151842800D03*
X222150800Y-136602800D03*
D13*
X229770800Y-154382800D03*
D11*
X248516000Y-83339000D03*
D12*
X248516000Y-93499000D03*
D11*
X186159000Y-105437000D03*
X219179000Y-113057000D03*
X188699000Y-105437000D03*
X216639000Y-113057000D03*
X191239000Y-105437000D03*
X214099000Y-113057000D03*
X193779000Y-105437000D03*
X211559000Y-113057000D03*
X196319000Y-105437000D03*
X209019000Y-113057000D03*
X198859000Y-105437000D03*
X206479000Y-113057000D03*
X201399000Y-105437000D03*
X203939000Y-113057000D03*
X203939000Y-105437000D03*
X201399000Y-113057000D03*
X206479000Y-105437000D03*
X198859000Y-113057000D03*
X209019000Y-105437000D03*
X196319000Y-113057000D03*
X211559000Y-105437000D03*
X193779000Y-113057000D03*
X214099000Y-105437000D03*
X191239000Y-113057000D03*
X216639000Y-105437000D03*
X188699000Y-113057000D03*
X219179000Y-105437000D03*
D13*
X186159000Y-113057000D03*
X216561832Y-77370000D03*
D11*
X234341832Y-69750000D03*
X219101832Y-77370000D03*
X231801832Y-69750000D03*
X221641832Y-77370000D03*
X229261832Y-69750000D03*
X224181832Y-77370000D03*
X226721832Y-69750000D03*
X226721832Y-77370000D03*
X224181832Y-69750000D03*
X229261832Y-77370000D03*
X221641832Y-69750000D03*
X231801832Y-77370000D03*
X219101832Y-69750000D03*
X234341832Y-77370000D03*
X216561832Y-69750000D03*
X173205000Y-168175000D03*
D13*
X173205000Y-160555000D03*
D11*
X178920000Y-168175000D03*
D13*
X178920000Y-160555000D03*
X204243800Y-154967000D03*
D11*
X201703800Y-154967000D03*
X199163800Y-154967000D03*
X196623800Y-154967000D03*
X194083800Y-154967000D03*
X191543800Y-154967000D03*
X189003800Y-154967000D03*
X186463800Y-154967000D03*
X183923800Y-154967000D03*
D13*
X184390166Y-77370000D03*
D11*
X202170166Y-69750000D03*
X186930166Y-77370000D03*
X199630166Y-69750000D03*
X189470166Y-77370000D03*
X197090166Y-69750000D03*
X192010166Y-77370000D03*
X194550166Y-69750000D03*
X194550166Y-77370000D03*
X192010166Y-69750000D03*
X197090166Y-77370000D03*
X189470166Y-69750000D03*
X199630166Y-77370000D03*
X186930166Y-69750000D03*
X202170166Y-77370000D03*
X184390166Y-69750000D03*
D16*
X223791000Y-110223000D03*
X227561000Y-110223000D03*
X225656000Y-110263000D03*
D17*
X187810000Y-160174000D03*
X220514831Y-102708831D03*
X224157400Y-73331400D03*
X225402000Y-81942000D03*
X196446000Y-82097590D03*
X215369000Y-102770000D03*
X217909000Y-102770000D03*
X197334998Y-149379000D03*
X235765200Y-79703620D03*
X235765204Y-81789600D03*
X218259520Y-128210640D03*
X217451800Y-126773000D03*
X216598360Y-124796880D03*
X219179000Y-96928000D03*
X192991600Y-111050400D03*
X192773610Y-109388811D03*
X219239960Y-129617800D03*
X241429400Y-142978200D03*
X209537160Y-115530960D03*
X248541400Y-139041200D03*
X200764000Y-167540000D03*
X176761000Y-106326000D03*
X169747410Y-105970400D03*
X167871000Y-146675330D03*
X172824000Y-97562998D03*
X169014000Y-145315000D03*
X175364000Y-96801000D03*
X183695200Y-82399200D03*
X179682000Y-82323000D03*
X178666000Y-83593000D03*
X209908000Y-75871400D03*
X209908000Y-82831000D03*
X176888000Y-84355000D03*
X179682000Y-100484000D03*
X209146000Y-100484000D03*
X177396000Y-102363600D03*
X178564400Y-101398400D03*
X197208000Y-101373000D03*
D18*
X201780000Y-105691000D02*
X201780000Y-105818000D01*
X203812000Y-147855000D02*
X203685000Y-147728000D01*
X234419000Y-77447168D02*
X234341832Y-77370000D01*
X234419000Y-77497000D02*
X234419000Y-77447168D01*
D19*
X244909200Y-145631430D02*
X244909200Y-144222800D01*
X244909200Y-146762800D02*
X244909200Y-145631430D01*
D18*
X174856000Y-118670400D02*
X174856000Y-121566000D01*
X203939000Y-114188370D02*
X201095171Y-117032199D01*
X203939000Y-113057000D02*
X203939000Y-114188370D01*
D19*
X243525012Y-143422801D02*
X242470800Y-142368589D01*
X242470800Y-139041200D02*
X244109201Y-137402799D01*
X242470800Y-142368589D02*
X242470800Y-139041200D01*
X244109201Y-143422801D02*
X243525012Y-143422801D01*
X244909200Y-144222800D02*
X244109201Y-143422801D01*
X244109201Y-137402799D02*
X244909200Y-136602800D01*
X166855000Y-73472000D02*
X166855000Y-74576000D01*
X172609000Y-67718000D02*
X166855000Y-73472000D01*
X200138166Y-67718000D02*
X172609000Y-67718000D01*
X202170166Y-69750000D02*
X200138166Y-67718000D01*
D18*
X182897000Y-117716000D02*
X181587000Y-117716000D01*
X183580801Y-117032199D02*
X182897000Y-117716000D01*
X201095171Y-117032199D02*
X183580801Y-117032199D01*
X175810400Y-117716000D02*
X174856000Y-118670400D01*
X181587000Y-117716000D02*
X175810400Y-117716000D01*
X234341832Y-71958828D02*
X234165002Y-71781998D01*
X234341832Y-77370000D02*
X234341832Y-71958828D01*
X250248280Y-74022280D02*
X250248280Y-75703760D01*
X248007998Y-71781998D02*
X250248280Y-74022280D01*
X204202164Y-71781998D02*
X248007998Y-71781998D01*
X202170166Y-69750000D02*
X204202164Y-71781998D01*
X227521000Y-110263000D02*
X227561000Y-110223000D01*
X206693000Y-110263000D02*
X225656000Y-110263000D01*
X203939000Y-113017000D02*
X206693000Y-110263000D01*
X225656000Y-110263000D02*
X227521000Y-110263000D01*
X208130000Y-93880000D02*
X208130000Y-94896000D01*
X206312000Y-92062000D02*
X208130000Y-93880000D01*
X202963000Y-92062000D02*
X203050000Y-92149000D01*
D19*
X203050000Y-92149000D02*
X203050000Y-94896000D01*
D18*
X202963000Y-92062000D02*
X206312000Y-92062000D01*
X200677000Y-92062000D02*
X200510000Y-91895000D01*
D19*
X200510000Y-91895000D02*
X200510000Y-87276000D01*
D18*
X187810000Y-92062000D02*
X200677000Y-92062000D01*
X200677000Y-92062000D02*
X202963000Y-92062000D01*
D19*
X205590000Y-91975000D02*
X205590000Y-87276000D01*
X205677000Y-92062000D02*
X205590000Y-91975000D01*
D18*
X242531760Y-75703760D02*
X242628280Y-75703760D01*
X192014216Y-108231011D02*
X174983011Y-108231011D01*
X192522227Y-107723000D02*
X192014216Y-108231011D01*
X223751000Y-107723000D02*
X192522227Y-107723000D01*
X206479000Y-105397000D02*
X203939000Y-105397000D01*
X211697832Y-74576000D02*
X184508000Y-74576000D01*
X184508000Y-74576000D02*
X184390166Y-74458166D01*
X184390166Y-74458166D02*
X184390166Y-69750000D01*
X203939000Y-105397000D02*
X203939000Y-107850000D01*
X216561832Y-77370000D02*
X214491832Y-77370000D01*
X214491832Y-77370000D02*
X211697832Y-74576000D01*
X171046000Y-108256400D02*
X174957622Y-108256400D01*
X174957622Y-108256400D02*
X174983011Y-108231011D01*
X171046000Y-115317600D02*
X171046000Y-108256400D01*
X200267870Y-115279500D02*
X201399000Y-114148370D01*
X201399000Y-114148370D02*
X201399000Y-113017000D01*
X171084100Y-115279500D02*
X200267870Y-115279500D01*
X171046000Y-127052400D02*
X171452400Y-126646000D01*
X171452400Y-126646000D02*
X174856000Y-126646000D01*
X171046000Y-127052400D02*
X171046000Y-115317600D01*
X171046000Y-144070400D02*
X171046000Y-127052400D01*
X204459599Y-155182799D02*
X204243800Y-154967000D01*
X222150800Y-154382800D02*
X221350801Y-155182799D01*
X209679400Y-155169998D02*
X209692201Y-155182799D01*
X229935801Y-131510199D02*
X238190999Y-131510199D01*
X239080001Y-132399201D02*
X239880000Y-133199200D01*
X238190999Y-131510199D02*
X239080001Y-132399201D01*
X228246800Y-133199200D02*
X229935801Y-131510199D01*
D19*
X191149199Y-174716401D02*
X190299200Y-175566400D01*
X191530201Y-174335399D02*
X191149199Y-174716401D01*
X210619200Y-175566400D02*
X209388199Y-174335399D01*
X204243800Y-156021000D02*
X204243800Y-154967000D01*
X202884800Y-157380000D02*
X204243800Y-156021000D01*
X190604000Y-157380000D02*
X202884800Y-157380000D01*
X187810000Y-160174000D02*
X190604000Y-157380000D01*
X183258796Y-69750000D02*
X184390166Y-69750000D01*
X180638919Y-69750000D02*
X183258796Y-69750000D01*
X177015000Y-73373919D02*
X180638919Y-69750000D01*
X177015000Y-74576000D02*
X177015000Y-73373919D01*
D18*
X183873000Y-74576000D02*
X184508000Y-74576000D01*
X171046000Y-87403000D02*
X183873000Y-74576000D01*
X243563000Y-129516200D02*
X243563000Y-103659000D01*
X239880000Y-133199200D02*
X243563000Y-129516200D01*
X229466000Y-107723000D02*
X223751000Y-107723000D01*
X233530000Y-103659000D02*
X229466000Y-107723000D01*
X240508280Y-75703760D02*
X239880000Y-76332040D01*
X242628280Y-75703760D02*
X240508280Y-75703760D01*
X239880000Y-103278000D02*
X239499000Y-103659000D01*
X239880000Y-76332040D02*
X239880000Y-103278000D01*
X239499000Y-103659000D02*
X233530000Y-103659000D01*
X243563000Y-103659000D02*
X239499000Y-103659000D01*
X208003000Y-154586000D02*
X208003000Y-144934000D01*
X221350801Y-155182799D02*
X208599799Y-155182799D01*
X208599799Y-155182799D02*
X204459599Y-155182799D01*
X206606000Y-144934000D02*
X208003000Y-144934000D01*
X171909600Y-144934000D02*
X206606000Y-144934000D01*
X171147600Y-144172000D02*
X171909600Y-144934000D01*
X185905000Y-144934000D02*
X185905000Y-140108000D01*
X187810000Y-89562000D02*
X171046000Y-89562000D01*
X171046000Y-89562000D02*
X171046000Y-87403000D01*
X171046000Y-108256400D02*
X171046000Y-89562000D01*
X190604000Y-89562000D02*
X192890000Y-87276000D01*
X187810000Y-89562000D02*
X190604000Y-89562000D01*
D19*
X200445601Y-174335399D02*
X200459200Y-174348998D01*
X200459200Y-174348998D02*
X200459200Y-175566400D01*
X209388199Y-174335399D02*
X200445601Y-174335399D01*
X200445601Y-174335399D02*
X191530201Y-174335399D01*
X216893000Y-77701168D02*
X216561832Y-77370000D01*
X216893000Y-82831000D02*
X216893000Y-77701168D01*
X182006000Y-162587000D02*
X179974000Y-160555000D01*
X182006000Y-167832000D02*
X182006000Y-162587000D01*
X184127000Y-169953000D02*
X182006000Y-167832000D01*
X179974000Y-160555000D02*
X178920000Y-160555000D01*
X217449400Y-169953000D02*
X184127000Y-169953000D01*
X219710000Y-167692400D02*
X217449400Y-169953000D01*
X175999000Y-159501000D02*
X175999000Y-160555000D01*
X179981601Y-159427999D02*
X176072001Y-159427999D01*
X183164990Y-162611388D02*
X179981601Y-159427999D01*
X183164990Y-167974990D02*
X183164990Y-162611388D01*
X184688990Y-169498990D02*
X183164990Y-167974990D01*
X215363410Y-169498990D02*
X184688990Y-169498990D01*
X176072001Y-159427999D02*
X175999000Y-159501000D01*
X217170000Y-167692400D02*
X215363410Y-169498990D01*
X239230001Y-168492399D02*
X240030000Y-167692400D01*
X237315389Y-170407011D02*
X239230001Y-168492399D01*
X217637459Y-170407011D02*
X237315389Y-170407011D01*
X208158589Y-170407011D02*
X217637459Y-170407011D01*
X205539200Y-173026400D02*
X208158589Y-170407011D01*
X204689201Y-172176401D02*
X205539200Y-173026400D01*
X203100800Y-170588000D02*
X204689201Y-172176401D01*
X183873000Y-170588000D02*
X203100800Y-170588000D01*
X173548000Y-161952000D02*
X175237000Y-161952000D01*
X173205000Y-160555000D02*
X173205000Y-161609000D01*
X173205000Y-161609000D02*
X173548000Y-161952000D01*
X175237000Y-161952000D02*
X183873000Y-170588000D01*
X220372800Y-102566800D02*
X220514831Y-102708831D01*
X220372800Y-75642800D02*
X220372800Y-102566800D01*
X217782010Y-73052010D02*
X220372800Y-75642800D01*
X196192000Y-73052000D02*
X217782010Y-73052010D01*
X195710128Y-72570128D02*
X196192000Y-73052000D01*
X187048000Y-69750000D02*
X188445000Y-68353000D01*
X195710128Y-69242000D02*
X195710128Y-72570128D01*
X194821128Y-68353000D02*
X195710128Y-69242000D01*
X188445000Y-68353000D02*
X194821128Y-68353000D01*
X225452800Y-74626800D02*
X224563799Y-73737799D01*
X224563799Y-73737799D02*
X224157400Y-73331400D01*
X225452800Y-81891200D02*
X225452800Y-74626800D01*
X225402000Y-81942000D02*
X225452800Y-81891200D01*
X197090166Y-81453424D02*
X196446000Y-82097590D01*
X197090166Y-77370000D02*
X197090166Y-81453424D01*
X214962601Y-102363601D02*
X215369000Y-102770000D01*
X212628989Y-100029989D02*
X214962601Y-102363601D01*
X212628989Y-89615989D02*
X212628989Y-100029989D01*
X202034000Y-79021000D02*
X212628989Y-89615989D01*
X201281166Y-79021000D02*
X202034000Y-79021000D01*
X199630166Y-77370000D02*
X201281166Y-79021000D01*
X213083000Y-89054000D02*
X213083000Y-97944000D01*
X202170166Y-78141166D02*
X213083000Y-89054000D01*
X202170166Y-77370000D02*
X202170166Y-78141166D01*
X213083000Y-97944000D02*
X217909000Y-102770000D01*
X190985000Y-140108000D02*
X193369421Y-142492421D01*
X204815199Y-132017999D02*
X204015200Y-131218000D01*
X204106172Y-142492421D02*
X205615411Y-140983182D01*
X205615411Y-140983182D02*
X205615411Y-132818211D01*
X193369421Y-142492421D02*
X204106172Y-142492421D01*
X205615411Y-132818211D02*
X204815199Y-132017999D01*
X197992210Y-142035210D02*
X203916790Y-142035210D01*
X196065000Y-140108000D02*
X197992210Y-142035210D01*
X203916790Y-142035210D02*
X205158200Y-140793800D01*
X205158200Y-134901000D02*
X201475200Y-131218000D01*
X205158200Y-140793800D02*
X205158200Y-134901000D01*
X200052800Y-141555800D02*
X201907000Y-141555800D01*
X202415000Y-139346000D02*
X198935200Y-135866200D01*
X201907000Y-141555800D02*
X202415000Y-141047800D01*
X198935200Y-135866200D02*
X198935200Y-131218000D01*
X202415000Y-141047800D02*
X202415000Y-139346000D01*
X198605000Y-140108000D02*
X200052800Y-141555800D01*
X196395200Y-135358200D02*
X196395200Y-131218000D01*
X201145000Y-140108000D02*
X196395200Y-135358200D01*
X194083800Y-154967000D02*
X194083800Y-152630198D01*
X194083800Y-152630198D02*
X196928599Y-149785399D01*
X196928599Y-149785399D02*
X197334998Y-149379000D01*
X196065000Y-147728000D02*
X191543800Y-152249200D01*
X191543800Y-152249200D02*
X191543800Y-154967000D01*
X193525000Y-147728000D02*
X189003800Y-152249200D01*
X189003800Y-152249200D02*
X189003800Y-154967000D01*
X190350000Y-148363000D02*
X190985000Y-147728000D01*
X190197600Y-148363000D02*
X186463800Y-152096800D01*
X190350000Y-148363000D02*
X190197600Y-148363000D01*
X186463800Y-152096800D02*
X186463800Y-154967000D01*
X187810000Y-148363000D02*
X188445000Y-147728000D01*
X188445000Y-147728000D02*
X183923800Y-152249200D01*
X183923800Y-152249200D02*
X183923800Y-154967000D01*
X235765200Y-79703620D02*
X235765200Y-81789596D01*
X235765200Y-81789596D02*
X235765204Y-81789600D01*
X218290000Y-129719492D02*
X218290000Y-128241120D01*
X218284920Y-129724572D02*
X218290000Y-129719492D01*
X218284920Y-132615000D02*
X218284920Y-129724572D01*
X218290000Y-128241120D02*
X218259520Y-128210640D01*
X226926000Y-136025666D02*
X223909080Y-133008746D01*
X223909080Y-133008746D02*
X218678666Y-133008746D01*
X218678666Y-133008746D02*
X218284920Y-132615000D01*
X226926000Y-146458000D02*
X226926000Y-136025666D01*
X229770800Y-149302800D02*
X226926000Y-146458000D01*
X243639200Y-148083600D02*
X244858400Y-149302800D01*
X230990000Y-148083600D02*
X243639200Y-148083600D01*
X229770800Y-149302800D02*
X230990000Y-148083600D01*
X217914080Y-134062800D02*
X217451800Y-133600520D01*
X226113200Y-135854932D02*
X224321068Y-134062800D01*
X224321068Y-134062800D02*
X217914080Y-134062800D01*
X226113200Y-148185200D02*
X226113200Y-135854932D01*
X217451800Y-133600520D02*
X217451800Y-126773000D01*
X229770800Y-151842800D02*
X226113200Y-148185200D01*
X225249600Y-150915600D02*
X225249600Y-135637600D01*
X228716800Y-154382800D02*
X225249600Y-150915600D01*
X217594040Y-135028000D02*
X216598360Y-134032320D01*
X229770800Y-154382800D02*
X228716800Y-154382800D01*
X216598360Y-125371616D02*
X216598360Y-124796880D01*
X216598360Y-134032320D02*
X216598360Y-125371616D01*
X225249600Y-135637600D02*
X224640000Y-135028000D01*
X224640000Y-135028000D02*
X217594040Y-135028000D01*
X243588400Y-153062000D02*
X244909200Y-154382800D01*
X233784000Y-150572800D02*
X241150000Y-150572800D01*
X243639200Y-153062000D02*
X243588400Y-153062000D01*
X229974000Y-154382800D02*
X233784000Y-150572800D01*
X241150000Y-150572800D02*
X243639200Y-153062000D01*
X229770800Y-154382800D02*
X229974000Y-154382800D01*
X206479000Y-113057000D02*
X206606000Y-113057000D01*
X215237850Y-73506018D02*
X218301833Y-76570001D01*
X218301833Y-76570001D02*
X219101832Y-77370000D01*
X193226184Y-73506018D02*
X215237850Y-73506018D01*
X189470166Y-69750000D02*
X193226184Y-73506018D01*
X219179000Y-77447168D02*
X219101832Y-77370000D01*
X219179000Y-96928000D02*
X219179000Y-77447168D01*
X191376160Y-137959160D02*
X193525000Y-140108000D01*
X182252480Y-132533720D02*
X187677920Y-137959160D01*
X182252480Y-121141266D02*
X182252480Y-132533720D01*
X187677920Y-137959160D02*
X191376160Y-137959160D01*
X213895800Y-118700880D02*
X184692866Y-118700880D01*
X219179000Y-113417680D02*
X217319720Y-115200760D01*
X219179000Y-113057000D02*
X219179000Y-113417680D01*
X217319720Y-115200760D02*
X217319720Y-115276960D01*
X217319720Y-115276960D02*
X213895800Y-118700880D01*
X184692866Y-118700880D02*
X182252480Y-121141266D01*
X192773610Y-110832410D02*
X192991600Y-111050400D01*
X192773610Y-109388811D02*
X192773610Y-110832410D01*
X229770800Y-144222800D02*
X227637200Y-142089200D01*
X227637200Y-136094800D02*
X221160200Y-129617800D01*
X221160200Y-129617800D02*
X219814696Y-129617800D01*
X219814696Y-129617800D02*
X219239960Y-129617800D01*
X227637200Y-142089200D02*
X227637200Y-136094800D01*
X232146770Y-142978200D02*
X240946800Y-142978200D01*
X229770800Y-144222800D02*
X230902170Y-144222800D01*
X230902170Y-144222800D02*
X232146770Y-142978200D01*
X240946800Y-142978200D02*
X241429400Y-142978200D01*
X181777511Y-133440511D02*
X181777511Y-120974167D01*
X181777511Y-120974167D02*
X184504809Y-118246869D01*
X209130761Y-115937359D02*
X209537160Y-115530960D01*
X188445000Y-140108000D02*
X181777511Y-133440511D01*
X184504809Y-118246869D02*
X206821251Y-118246869D01*
X206821251Y-118246869D02*
X209130761Y-115937359D01*
X242570000Y-167692400D02*
X239401378Y-170861022D01*
X226709199Y-172176401D02*
X225859200Y-173026400D01*
X239401378Y-170861022D02*
X228024578Y-170861022D01*
X228024578Y-170861022D02*
X226709199Y-172176401D01*
X233114031Y-172661231D02*
X233479200Y-173026400D01*
X239488840Y-123587840D02*
X240642000Y-124741000D01*
X239478680Y-123598000D02*
X204015200Y-123598000D01*
X239488840Y-123587840D02*
X239478680Y-123598000D01*
X238767480Y-121535520D02*
X199943680Y-121535520D01*
X198935200Y-122544000D02*
X198935200Y-123598000D01*
X199943680Y-121535520D02*
X198935200Y-122544000D01*
X240642000Y-119661000D02*
X238767480Y-121535520D01*
X193855200Y-122544000D02*
X193855200Y-123598000D01*
X195823800Y-120575400D02*
X193855200Y-122544000D01*
X234647600Y-120575400D02*
X195823800Y-120575400D01*
X240642000Y-114581000D02*
X234647600Y-120575400D01*
X188775200Y-122544000D02*
X188775200Y-123598000D01*
X191665171Y-119654029D02*
X188775200Y-122544000D01*
X230488971Y-119654029D02*
X191665171Y-119654029D01*
X240642000Y-109501000D02*
X230488971Y-119654029D01*
X201475200Y-122544000D02*
X201475200Y-123598000D01*
X201818200Y-122201000D02*
X201475200Y-122544000D01*
X240642000Y-122201000D02*
X201818200Y-122201000D01*
X197857691Y-121081509D02*
X196395200Y-122544000D01*
X236681491Y-121081509D02*
X197857691Y-121081509D01*
X196395200Y-122544000D02*
X196395200Y-123598000D01*
X240642000Y-117121000D02*
X236681491Y-121081509D01*
X191315200Y-122544000D02*
X191315200Y-123598000D01*
X193751160Y-120108040D02*
X191315200Y-122544000D01*
X232574960Y-120108040D02*
X193751160Y-120108040D01*
X240642000Y-112041000D02*
X232574960Y-120108040D01*
X247474600Y-143994200D02*
X247500000Y-144019600D01*
X240030000Y-159018400D02*
X240030000Y-160072400D01*
X240931800Y-158116600D02*
X240030000Y-159018400D01*
X246687200Y-158116600D02*
X240931800Y-158116600D01*
X247474600Y-157329200D02*
X246687200Y-158116600D01*
X246712600Y-134748600D02*
X247474600Y-135510600D01*
X247474600Y-135510600D02*
X247474600Y-157329200D01*
X234165000Y-134748600D02*
X246712600Y-134748600D01*
X229770800Y-139142800D02*
X234165000Y-134748600D01*
X248541400Y-139041200D02*
X248541400Y-157786400D01*
X246255400Y-160072400D02*
X242570000Y-160072400D01*
X248541400Y-157786400D02*
X246255400Y-160072400D01*
X186578999Y-174386199D02*
X186909201Y-174716401D01*
X183999829Y-174386199D02*
X186578999Y-174386199D01*
X186909201Y-174716401D02*
X187759200Y-175566400D01*
X178920000Y-169306370D02*
X183999829Y-174386199D01*
X178920000Y-168175000D02*
X178920000Y-169306370D01*
X184889000Y-177954000D02*
X195531600Y-177954000D01*
X177523000Y-170588000D02*
X184889000Y-177954000D01*
X177523000Y-167032000D02*
X177523000Y-170588000D01*
X195531600Y-177954000D02*
X197069201Y-176416399D01*
X177142000Y-166651000D02*
X177523000Y-167032000D01*
X197069201Y-176416399D02*
X197919200Y-175566400D01*
X174729000Y-166651000D02*
X177142000Y-166651000D01*
X173205000Y-168175000D02*
X174729000Y-166651000D01*
X207229201Y-176416399D02*
X208079200Y-175566400D01*
X205237589Y-178408011D02*
X207229201Y-176416399D01*
X184700943Y-178408011D02*
X205237589Y-178408011D01*
X175999000Y-169706068D02*
X184700943Y-178408011D01*
X175999000Y-168175000D02*
X175999000Y-169706068D01*
X186235200Y-122544000D02*
X186235200Y-123598000D01*
X239514999Y-109104001D02*
X229440600Y-119178400D01*
X229440600Y-119178400D02*
X229440600Y-119188560D01*
X240101039Y-108373999D02*
X239514999Y-108960039D01*
X239514999Y-108960039D02*
X239514999Y-109104001D01*
X189590640Y-119188560D02*
X186235200Y-122544000D01*
X240642000Y-106961000D02*
X240642000Y-107977000D01*
X240245001Y-108373999D02*
X240101039Y-108373999D01*
X229440600Y-119188560D02*
X189590640Y-119188560D01*
X240642000Y-107977000D02*
X240245001Y-108373999D01*
X200764000Y-167540000D02*
X203812000Y-167540000D01*
X187899001Y-106236999D02*
X188699000Y-105437000D01*
X177650000Y-107215000D02*
X186921000Y-107215000D01*
X176761000Y-106326000D02*
X177650000Y-107215000D01*
X186921000Y-107215000D02*
X187899001Y-106236999D01*
X203812000Y-159920000D02*
X201780000Y-161952000D01*
X201780000Y-161952000D02*
X186794000Y-161952000D01*
X169747410Y-144905410D02*
X169747410Y-106545136D01*
X186794000Y-161952000D02*
X169747410Y-144905410D01*
X169747410Y-106545136D02*
X169747410Y-105970400D01*
X188735670Y-167540000D02*
X167871000Y-146675330D01*
X193652000Y-167540000D02*
X188735670Y-167540000D01*
X173398736Y-97562998D02*
X172824000Y-97562998D01*
X200510000Y-94896000D02*
X197843002Y-97562998D01*
X197843002Y-97562998D02*
X173398736Y-97562998D01*
X187429000Y-163730000D02*
X169014000Y-145315000D01*
X193652000Y-163730000D02*
X187429000Y-163730000D01*
X195430000Y-94896000D02*
X193525000Y-96801000D01*
X175938736Y-96801000D02*
X175364000Y-96801000D01*
X193525000Y-96801000D02*
X175938736Y-96801000D01*
X185738000Y-105397000D02*
X186159000Y-105397000D01*
X179758200Y-82399200D02*
X179682000Y-82323000D01*
X183695200Y-82399200D02*
X179758200Y-82399200D01*
X188713407Y-85864593D02*
X187937000Y-86641000D01*
X187937000Y-86641000D02*
X181714000Y-86641000D01*
X196558593Y-85864593D02*
X188713407Y-85864593D01*
X197970000Y-87276000D02*
X196558593Y-85864593D01*
X179072399Y-83999399D02*
X178666000Y-83593000D01*
X181714000Y-86641000D02*
X179072399Y-83999399D01*
X184860166Y-75846000D02*
X209908000Y-75846000D01*
X184390166Y-76316000D02*
X184860166Y-75846000D01*
X184390166Y-77370000D02*
X184390166Y-76316000D01*
X209908000Y-75846000D02*
X209908000Y-75871400D01*
X209908000Y-82831000D02*
X209908000Y-75871400D01*
X183336166Y-77370000D02*
X176888000Y-83818166D01*
X184390166Y-77370000D02*
X183336166Y-77370000D01*
X176888000Y-83818166D02*
X176888000Y-84355000D01*
X209146000Y-100484000D02*
X180256736Y-100484000D01*
X214099000Y-105437000D02*
X209146000Y-100484000D01*
X180256736Y-100484000D02*
X179682000Y-100484000D01*
X205945600Y-102363600D02*
X179631200Y-102363600D01*
X209019000Y-105437000D02*
X205945600Y-102363600D01*
X179631200Y-102363600D02*
X177396000Y-102363600D01*
X177396000Y-124106000D02*
X178031000Y-124106000D01*
X211559000Y-105437000D02*
X207520400Y-101398400D01*
X179139136Y-101398400D02*
X178564400Y-101398400D01*
X197233400Y-101398400D02*
X197208000Y-101373000D01*
X197208000Y-101373000D02*
X179139136Y-101398400D01*
X207520400Y-101398400D02*
X197233400Y-101398400D01*
M02*
