G04 #@! TF.GenerationSoftware,KiCad,Pcbnew,(5.1.5-0-10_14)*
G04 #@! TF.CreationDate,2020-01-03T10:30:25-06:00*
G04 #@! TF.ProjectId,interface-ascii,696e7465-7266-4616-9365-2d6173636969,2.3*
G04 #@! TF.SameCoordinates,Original*
G04 #@! TF.FileFunction,Legend,Bot*
G04 #@! TF.FilePolarity,Positive*
%FSLAX46Y46*%
G04 Gerber Fmt 4.6, Leading zero omitted, Abs format (unit mm)*
G04 Created by KiCad (PCBNEW (5.1.5-0-10_14)) date 2020-01-03 10:30:25*
%MOMM*%
%LPD*%
G04 APERTURE LIST*
%ADD10C,0.254000*%
G04 APERTURE END LIST*
D10*
X164648828Y-86590200D02*
X164648828Y-86880485D01*
X164721400Y-87025628D01*
X164866542Y-87170771D01*
X165156828Y-87243342D01*
X165664828Y-87243342D01*
X165955114Y-87170771D01*
X166100257Y-87025628D01*
X166172828Y-86880485D01*
X166172828Y-86590200D01*
X166100257Y-86445057D01*
X165955114Y-86299914D01*
X165664828Y-86227342D01*
X165156828Y-86227342D01*
X164866542Y-86299914D01*
X164721400Y-86445057D01*
X164648828Y-86590200D01*
X166100257Y-87823914D02*
X166172828Y-88041628D01*
X166172828Y-88404485D01*
X166100257Y-88549628D01*
X166027685Y-88622200D01*
X165882542Y-88694771D01*
X165737400Y-88694771D01*
X165592257Y-88622200D01*
X165519685Y-88549628D01*
X165447114Y-88404485D01*
X165374542Y-88114200D01*
X165301971Y-87969057D01*
X165229400Y-87896485D01*
X165084257Y-87823914D01*
X164939114Y-87823914D01*
X164793971Y-87896485D01*
X164721400Y-87969057D01*
X164648828Y-88114200D01*
X164648828Y-88477057D01*
X164721400Y-88694771D01*
X166172828Y-89347914D02*
X164648828Y-89347914D01*
X164648828Y-89928485D02*
X166172828Y-90291342D01*
X165084257Y-90581628D01*
X166172828Y-90871914D01*
X164648828Y-91234771D01*
X166100257Y-92395914D02*
X166172828Y-92250771D01*
X166172828Y-91960485D01*
X166100257Y-91815342D01*
X165955114Y-91742771D01*
X165374542Y-91742771D01*
X165229400Y-91815342D01*
X165156828Y-91960485D01*
X165156828Y-92250771D01*
X165229400Y-92395914D01*
X165374542Y-92468485D01*
X165519685Y-92468485D01*
X165664828Y-91742771D01*
X166172828Y-93121628D02*
X164648828Y-93121628D01*
X165229400Y-93121628D02*
X165156828Y-93266771D01*
X165156828Y-93557057D01*
X165229400Y-93702200D01*
X165301971Y-93774771D01*
X165447114Y-93847342D01*
X165882542Y-93847342D01*
X166027685Y-93774771D01*
X166100257Y-93702200D01*
X166172828Y-93557057D01*
X166172828Y-93266771D01*
X166100257Y-93121628D01*
X166027685Y-94500485D02*
X166100257Y-94573057D01*
X166172828Y-94500485D01*
X166100257Y-94427914D01*
X166027685Y-94500485D01*
X166172828Y-94500485D01*
X166172828Y-95443914D02*
X166100257Y-95298771D01*
X166027685Y-95226200D01*
X165882542Y-95153628D01*
X165447114Y-95153628D01*
X165301971Y-95226200D01*
X165229400Y-95298771D01*
X165156828Y-95443914D01*
X165156828Y-95661628D01*
X165229400Y-95806771D01*
X165301971Y-95879342D01*
X165447114Y-95951914D01*
X165882542Y-95951914D01*
X166027685Y-95879342D01*
X166100257Y-95806771D01*
X166172828Y-95661628D01*
X166172828Y-95443914D01*
X166172828Y-96605057D02*
X165156828Y-96605057D01*
X165447114Y-96605057D02*
X165301971Y-96677628D01*
X165229400Y-96750200D01*
X165156828Y-96895342D01*
X165156828Y-97040485D01*
X165156828Y-98201628D02*
X166390542Y-98201628D01*
X166535685Y-98129057D01*
X166608257Y-98056485D01*
X166680828Y-97911342D01*
X166680828Y-97693628D01*
X166608257Y-97548485D01*
X166100257Y-98201628D02*
X166172828Y-98056485D01*
X166172828Y-97766200D01*
X166100257Y-97621057D01*
X166027685Y-97548485D01*
X165882542Y-97475914D01*
X165447114Y-97475914D01*
X165301971Y-97548485D01*
X165229400Y-97621057D01*
X165156828Y-97766200D01*
X165156828Y-98056485D01*
X165229400Y-98201628D01*
X164793971Y-100015914D02*
X164721400Y-100088485D01*
X164648828Y-100233628D01*
X164648828Y-100596485D01*
X164721400Y-100741628D01*
X164793971Y-100814200D01*
X164939114Y-100886771D01*
X165084257Y-100886771D01*
X165301971Y-100814200D01*
X166172828Y-99943342D01*
X166172828Y-100886771D01*
X164648828Y-101830200D02*
X164648828Y-101975342D01*
X164721400Y-102120485D01*
X164793971Y-102193057D01*
X164939114Y-102265628D01*
X165229400Y-102338200D01*
X165592257Y-102338200D01*
X165882542Y-102265628D01*
X166027685Y-102193057D01*
X166100257Y-102120485D01*
X166172828Y-101975342D01*
X166172828Y-101830200D01*
X166100257Y-101685057D01*
X166027685Y-101612485D01*
X165882542Y-101539914D01*
X165592257Y-101467342D01*
X165229400Y-101467342D01*
X164939114Y-101539914D01*
X164793971Y-101612485D01*
X164721400Y-101685057D01*
X164648828Y-101830200D01*
X166172828Y-103789628D02*
X166172828Y-102918771D01*
X166172828Y-103354200D02*
X164648828Y-103354200D01*
X164866542Y-103209057D01*
X165011685Y-103063914D01*
X165084257Y-102918771D01*
X166172828Y-104515342D02*
X166172828Y-104805628D01*
X166100257Y-104950771D01*
X166027685Y-105023342D01*
X165809971Y-105168485D01*
X165519685Y-105241057D01*
X164939114Y-105241057D01*
X164793971Y-105168485D01*
X164721400Y-105095914D01*
X164648828Y-104950771D01*
X164648828Y-104660485D01*
X164721400Y-104515342D01*
X164793971Y-104442771D01*
X164939114Y-104370200D01*
X165301971Y-104370200D01*
X165447114Y-104442771D01*
X165519685Y-104515342D01*
X165592257Y-104660485D01*
X165592257Y-104950771D01*
X165519685Y-105095914D01*
X165447114Y-105168485D01*
X165301971Y-105241057D01*
X164902828Y-130960371D02*
X166136542Y-130960371D01*
X166281685Y-131032942D01*
X166354257Y-131105514D01*
X166426828Y-131250657D01*
X166426828Y-131540942D01*
X166354257Y-131686085D01*
X166281685Y-131758657D01*
X166136542Y-131831228D01*
X164902828Y-131831228D01*
X165410828Y-132556942D02*
X166426828Y-132556942D01*
X165555971Y-132556942D02*
X165483400Y-132629514D01*
X165410828Y-132774657D01*
X165410828Y-132992371D01*
X165483400Y-133137514D01*
X165628542Y-133210085D01*
X166426828Y-133210085D01*
X166426828Y-133935800D02*
X165410828Y-133935800D01*
X164902828Y-133935800D02*
X164975400Y-133863228D01*
X165047971Y-133935800D01*
X164975400Y-134008371D01*
X164902828Y-133935800D01*
X165047971Y-133935800D01*
X165410828Y-134443800D02*
X165410828Y-135024371D01*
X166426828Y-134661514D02*
X165120542Y-134661514D01*
X164975400Y-134734085D01*
X164902828Y-134879228D01*
X164902828Y-135024371D01*
X166426828Y-135532371D02*
X165410828Y-135532371D01*
X164902828Y-135532371D02*
X164975400Y-135459800D01*
X165047971Y-135532371D01*
X164975400Y-135604942D01*
X164902828Y-135532371D01*
X165047971Y-135532371D01*
X166354257Y-136838657D02*
X166426828Y-136693514D01*
X166426828Y-136403228D01*
X166354257Y-136258085D01*
X166209114Y-136185514D01*
X165628542Y-136185514D01*
X165483400Y-136258085D01*
X165410828Y-136403228D01*
X165410828Y-136693514D01*
X165483400Y-136838657D01*
X165628542Y-136911228D01*
X165773685Y-136911228D01*
X165918828Y-136185514D01*
X166426828Y-138217514D02*
X164902828Y-138217514D01*
X166354257Y-138217514D02*
X166426828Y-138072371D01*
X166426828Y-137782085D01*
X166354257Y-137636942D01*
X166281685Y-137564371D01*
X166136542Y-137491800D01*
X165701114Y-137491800D01*
X165555971Y-137564371D01*
X165483400Y-137636942D01*
X165410828Y-137782085D01*
X165410828Y-138072371D01*
X165483400Y-138217514D01*
X166426828Y-140104371D02*
X164902828Y-140104371D01*
X166426828Y-140975228D02*
X165555971Y-140322085D01*
X164902828Y-140975228D02*
X165773685Y-140104371D01*
X166354257Y-142208942D02*
X166426828Y-142063800D01*
X166426828Y-141773514D01*
X166354257Y-141628371D01*
X166209114Y-141555800D01*
X165628542Y-141555800D01*
X165483400Y-141628371D01*
X165410828Y-141773514D01*
X165410828Y-142063800D01*
X165483400Y-142208942D01*
X165628542Y-142281514D01*
X165773685Y-142281514D01*
X165918828Y-141555800D01*
X165410828Y-142789514D02*
X166426828Y-143152371D01*
X165410828Y-143515228D02*
X166426828Y-143152371D01*
X166789685Y-143007228D01*
X166862257Y-142934657D01*
X166934828Y-142789514D01*
X166426828Y-144095800D02*
X164902828Y-144095800D01*
X165483400Y-144095800D02*
X165410828Y-144240942D01*
X165410828Y-144531228D01*
X165483400Y-144676371D01*
X165555971Y-144748942D01*
X165701114Y-144821514D01*
X166136542Y-144821514D01*
X166281685Y-144748942D01*
X166354257Y-144676371D01*
X166426828Y-144531228D01*
X166426828Y-144240942D01*
X166354257Y-144095800D01*
X166426828Y-145692371D02*
X166354257Y-145547228D01*
X166281685Y-145474657D01*
X166136542Y-145402085D01*
X165701114Y-145402085D01*
X165555971Y-145474657D01*
X165483400Y-145547228D01*
X165410828Y-145692371D01*
X165410828Y-145910085D01*
X165483400Y-146055228D01*
X165555971Y-146127800D01*
X165701114Y-146200371D01*
X166136542Y-146200371D01*
X166281685Y-146127800D01*
X166354257Y-146055228D01*
X166426828Y-145910085D01*
X166426828Y-145692371D01*
X166426828Y-147506657D02*
X165628542Y-147506657D01*
X165483400Y-147434085D01*
X165410828Y-147288942D01*
X165410828Y-146998657D01*
X165483400Y-146853514D01*
X166354257Y-147506657D02*
X166426828Y-147361514D01*
X166426828Y-146998657D01*
X166354257Y-146853514D01*
X166209114Y-146780942D01*
X166063971Y-146780942D01*
X165918828Y-146853514D01*
X165846257Y-146998657D01*
X165846257Y-147361514D01*
X165773685Y-147506657D01*
X166426828Y-148232371D02*
X165410828Y-148232371D01*
X165701114Y-148232371D02*
X165555971Y-148304942D01*
X165483400Y-148377514D01*
X165410828Y-148522657D01*
X165410828Y-148667800D01*
X166426828Y-149828942D02*
X164902828Y-149828942D01*
X166354257Y-149828942D02*
X166426828Y-149683800D01*
X166426828Y-149393514D01*
X166354257Y-149248371D01*
X166281685Y-149175800D01*
X166136542Y-149103228D01*
X165701114Y-149103228D01*
X165555971Y-149175800D01*
X165483400Y-149248371D01*
X165410828Y-149393514D01*
X165410828Y-149683800D01*
X165483400Y-149828942D01*
X165991400Y-151643228D02*
X165991400Y-152368942D01*
X166426828Y-151498085D02*
X164902828Y-152006085D01*
X166426828Y-152514085D01*
X166354257Y-152949514D02*
X166426828Y-153167228D01*
X166426828Y-153530085D01*
X166354257Y-153675228D01*
X166281685Y-153747800D01*
X166136542Y-153820371D01*
X165991400Y-153820371D01*
X165846257Y-153747800D01*
X165773685Y-153675228D01*
X165701114Y-153530085D01*
X165628542Y-153239800D01*
X165555971Y-153094657D01*
X165483400Y-153022085D01*
X165338257Y-152949514D01*
X165193114Y-152949514D01*
X165047971Y-153022085D01*
X164975400Y-153094657D01*
X164902828Y-153239800D01*
X164902828Y-153602657D01*
X164975400Y-153820371D01*
X166281685Y-155344371D02*
X166354257Y-155271800D01*
X166426828Y-155054085D01*
X166426828Y-154908942D01*
X166354257Y-154691228D01*
X166209114Y-154546085D01*
X166063971Y-154473514D01*
X165773685Y-154400942D01*
X165555971Y-154400942D01*
X165265685Y-154473514D01*
X165120542Y-154546085D01*
X164975400Y-154691228D01*
X164902828Y-154908942D01*
X164902828Y-155054085D01*
X164975400Y-155271800D01*
X165047971Y-155344371D01*
X166426828Y-155997514D02*
X164902828Y-155997514D01*
X166426828Y-156723228D02*
X164902828Y-156723228D01*
X166426828Y-158610085D02*
X164902828Y-158610085D01*
X165410828Y-159335800D02*
X166426828Y-159335800D01*
X165555971Y-159335800D02*
X165483400Y-159408371D01*
X165410828Y-159553514D01*
X165410828Y-159771228D01*
X165483400Y-159916371D01*
X165628542Y-159988942D01*
X166426828Y-159988942D01*
X165410828Y-160496942D02*
X165410828Y-161077514D01*
X164902828Y-160714657D02*
X166209114Y-160714657D01*
X166354257Y-160787228D01*
X166426828Y-160932371D01*
X166426828Y-161077514D01*
X166354257Y-162166085D02*
X166426828Y-162020942D01*
X166426828Y-161730657D01*
X166354257Y-161585514D01*
X166209114Y-161512942D01*
X165628542Y-161512942D01*
X165483400Y-161585514D01*
X165410828Y-161730657D01*
X165410828Y-162020942D01*
X165483400Y-162166085D01*
X165628542Y-162238657D01*
X165773685Y-162238657D01*
X165918828Y-161512942D01*
X166426828Y-162891800D02*
X165410828Y-162891800D01*
X165701114Y-162891800D02*
X165555971Y-162964371D01*
X165483400Y-163036942D01*
X165410828Y-163182085D01*
X165410828Y-163327228D01*
X165410828Y-163617514D02*
X165410828Y-164198085D01*
X166426828Y-163835228D02*
X165120542Y-163835228D01*
X164975400Y-163907800D01*
X164902828Y-164052942D01*
X164902828Y-164198085D01*
X166426828Y-165359228D02*
X165628542Y-165359228D01*
X165483400Y-165286657D01*
X165410828Y-165141514D01*
X165410828Y-164851228D01*
X165483400Y-164706085D01*
X166354257Y-165359228D02*
X166426828Y-165214085D01*
X166426828Y-164851228D01*
X166354257Y-164706085D01*
X166209114Y-164633514D01*
X166063971Y-164633514D01*
X165918828Y-164706085D01*
X165846257Y-164851228D01*
X165846257Y-165214085D01*
X165773685Y-165359228D01*
X166354257Y-166738085D02*
X166426828Y-166592942D01*
X166426828Y-166302657D01*
X166354257Y-166157514D01*
X166281685Y-166084942D01*
X166136542Y-166012371D01*
X165701114Y-166012371D01*
X165555971Y-166084942D01*
X165483400Y-166157514D01*
X165410828Y-166302657D01*
X165410828Y-166592942D01*
X165483400Y-166738085D01*
X166354257Y-167971800D02*
X166426828Y-167826657D01*
X166426828Y-167536371D01*
X166354257Y-167391228D01*
X166209114Y-167318657D01*
X165628542Y-167318657D01*
X165483400Y-167391228D01*
X165410828Y-167536371D01*
X165410828Y-167826657D01*
X165483400Y-167971800D01*
X165628542Y-168044371D01*
X165773685Y-168044371D01*
X165918828Y-167318657D01*
X166426828Y-171890657D02*
X165701114Y-171382657D01*
X166426828Y-171019800D02*
X164902828Y-171019800D01*
X164902828Y-171600371D01*
X164975400Y-171745514D01*
X165047971Y-171818085D01*
X165193114Y-171890657D01*
X165410828Y-171890657D01*
X165555971Y-171818085D01*
X165628542Y-171745514D01*
X165701114Y-171600371D01*
X165701114Y-171019800D01*
X166354257Y-173124371D02*
X166426828Y-172979228D01*
X166426828Y-172688942D01*
X166354257Y-172543800D01*
X166209114Y-172471228D01*
X165628542Y-172471228D01*
X165483400Y-172543800D01*
X165410828Y-172688942D01*
X165410828Y-172979228D01*
X165483400Y-173124371D01*
X165628542Y-173196942D01*
X165773685Y-173196942D01*
X165918828Y-172471228D01*
X165410828Y-173704942D02*
X166426828Y-174067800D01*
X165410828Y-174430657D01*
X165047971Y-176099800D02*
X164975400Y-176172371D01*
X164902828Y-176317514D01*
X164902828Y-176680371D01*
X164975400Y-176825514D01*
X165047971Y-176898085D01*
X165193114Y-176970657D01*
X165338257Y-176970657D01*
X165555971Y-176898085D01*
X166426828Y-176027228D01*
X166426828Y-176970657D01*
X166281685Y-177623800D02*
X166354257Y-177696371D01*
X166426828Y-177623800D01*
X166354257Y-177551228D01*
X166281685Y-177623800D01*
X166426828Y-177623800D01*
X164902828Y-178204371D02*
X164902828Y-179147800D01*
X165483400Y-178639800D01*
X165483400Y-178857514D01*
X165555971Y-179002657D01*
X165628542Y-179075228D01*
X165773685Y-179147800D01*
X166136542Y-179147800D01*
X166281685Y-179075228D01*
X166354257Y-179002657D01*
X166426828Y-178857514D01*
X166426828Y-178422085D01*
X166354257Y-178276942D01*
X166281685Y-178204371D01*
M02*
