G04 #@! TF.GenerationSoftware,KiCad,Pcbnew,(5.1.5-0-10_14)*
G04 #@! TF.CreationDate,2020-01-03T10:30:25-06:00*
G04 #@! TF.ProjectId,interface-ascii,696e7465-7266-4616-9365-2d6173636969,2.3*
G04 #@! TF.SameCoordinates,Original*
G04 #@! TF.FileFunction,Legend,Top*
G04 #@! TF.FilePolarity,Positive*
%FSLAX46Y46*%
G04 Gerber Fmt 4.6, Leading zero omitted, Abs format (unit mm)*
G04 Created by KiCad (PCBNEW (5.1.5-0-10_14)) date 2020-01-03 10:30:25*
%MOMM*%
%LPD*%
G04 APERTURE LIST*
%ADD10C,0.127000*%
%ADD11C,0.254000*%
%ADD12C,0.120000*%
%ADD13C,0.150000*%
G04 APERTURE END LIST*
D10*
X171378619Y-78331571D02*
X171378619Y-78138047D01*
X171427000Y-78041285D01*
X171523761Y-77944523D01*
X171717285Y-77896142D01*
X172055952Y-77896142D01*
X172249476Y-77944523D01*
X172346238Y-78041285D01*
X172394619Y-78138047D01*
X172394619Y-78331571D01*
X172346238Y-78428333D01*
X172249476Y-78525095D01*
X172055952Y-78573476D01*
X171717285Y-78573476D01*
X171523761Y-78525095D01*
X171427000Y-78428333D01*
X171378619Y-78331571D01*
X171475380Y-77509095D02*
X171427000Y-77460714D01*
X171378619Y-77363952D01*
X171378619Y-77122047D01*
X171427000Y-77025285D01*
X171475380Y-76976904D01*
X171572142Y-76928523D01*
X171668904Y-76928523D01*
X171814047Y-76976904D01*
X172394619Y-77557476D01*
X172394619Y-76928523D01*
X242528857Y-171504819D02*
X241948285Y-171504819D01*
X242238571Y-171504819D02*
X242238571Y-170488819D01*
X242141809Y-170633961D01*
X242045047Y-170730723D01*
X241948285Y-170779104D01*
X242964285Y-171504819D02*
X242964285Y-170488819D01*
X243544857Y-171504819D01*
X243544857Y-170488819D01*
X244464095Y-170827485D02*
X244464095Y-171504819D01*
X244222190Y-170440438D02*
X243980285Y-171166152D01*
X244609238Y-171166152D01*
X245528476Y-171504819D02*
X244947904Y-171504819D01*
X245238190Y-171504819D02*
X245238190Y-170488819D01*
X245141428Y-170633961D01*
X245044666Y-170730723D01*
X244947904Y-170779104D01*
X246399333Y-170827485D02*
X246399333Y-171504819D01*
X246157428Y-170440438D02*
X245915523Y-171166152D01*
X246544476Y-171166152D01*
X247076666Y-170924247D02*
X246979904Y-170875866D01*
X246931523Y-170827485D01*
X246883142Y-170730723D01*
X246883142Y-170682342D01*
X246931523Y-170585580D01*
X246979904Y-170537200D01*
X247076666Y-170488819D01*
X247270190Y-170488819D01*
X247366952Y-170537200D01*
X247415333Y-170585580D01*
X247463714Y-170682342D01*
X247463714Y-170730723D01*
X247415333Y-170827485D01*
X247366952Y-170875866D01*
X247270190Y-170924247D01*
X247076666Y-170924247D01*
X246979904Y-170972628D01*
X246931523Y-171021009D01*
X246883142Y-171117771D01*
X246883142Y-171311295D01*
X246931523Y-171408057D01*
X246979904Y-171456438D01*
X247076666Y-171504819D01*
X247270190Y-171504819D01*
X247366952Y-171456438D01*
X247415333Y-171408057D01*
X247463714Y-171311295D01*
X247463714Y-171117771D01*
X247415333Y-171021009D01*
X247366952Y-170972628D01*
X247270190Y-170924247D01*
X241951914Y-170133219D02*
X241951914Y-169117219D01*
X242193819Y-169117219D01*
X242338961Y-169165600D01*
X242435723Y-169262361D01*
X242484104Y-169359123D01*
X242532485Y-169552647D01*
X242532485Y-169697790D01*
X242484104Y-169891314D01*
X242435723Y-169988076D01*
X242338961Y-170084838D01*
X242193819Y-170133219D01*
X241951914Y-170133219D01*
X243500104Y-170133219D02*
X242919533Y-170133219D01*
X243209819Y-170133219D02*
X243209819Y-169117219D01*
X243113057Y-169262361D01*
X243016295Y-169359123D01*
X242919533Y-169407504D01*
X244467723Y-170133219D02*
X243887152Y-170133219D01*
X244177438Y-170133219D02*
X244177438Y-169117219D01*
X244080676Y-169262361D01*
X243983914Y-169359123D01*
X243887152Y-169407504D01*
X244903152Y-169746171D02*
X245677247Y-169746171D01*
X246161057Y-170133219D02*
X246161057Y-169117219D01*
X246402961Y-169117219D01*
X246548104Y-169165600D01*
X246644866Y-169262361D01*
X246693247Y-169359123D01*
X246741628Y-169552647D01*
X246741628Y-169697790D01*
X246693247Y-169891314D01*
X246644866Y-169988076D01*
X246548104Y-170084838D01*
X246402961Y-170133219D01*
X246161057Y-170133219D01*
X247128676Y-169213980D02*
X247177057Y-169165600D01*
X247273819Y-169117219D01*
X247515723Y-169117219D01*
X247612485Y-169165600D01*
X247660866Y-169213980D01*
X247709247Y-169310742D01*
X247709247Y-169407504D01*
X247660866Y-169552647D01*
X247080295Y-170133219D01*
X247709247Y-170133219D01*
X248580104Y-169117219D02*
X248386580Y-169117219D01*
X248289819Y-169165600D01*
X248241438Y-169213980D01*
X248144676Y-169359123D01*
X248096295Y-169552647D01*
X248096295Y-169939695D01*
X248144676Y-170036457D01*
X248193057Y-170084838D01*
X248289819Y-170133219D01*
X248483342Y-170133219D01*
X248580104Y-170084838D01*
X248628485Y-170036457D01*
X248676866Y-169939695D01*
X248676866Y-169697790D01*
X248628485Y-169601028D01*
X248580104Y-169552647D01*
X248483342Y-169504266D01*
X248289819Y-169504266D01*
X248193057Y-169552647D01*
X248144676Y-169601028D01*
X248096295Y-169697790D01*
X251261619Y-107325066D02*
X251261619Y-106647733D01*
X252277619Y-107083161D01*
X251261619Y-109332876D02*
X251261619Y-109526400D01*
X251310000Y-109623161D01*
X251358380Y-109671542D01*
X251503523Y-109768304D01*
X251697047Y-109816685D01*
X252084095Y-109816685D01*
X252180857Y-109768304D01*
X252229238Y-109719923D01*
X252277619Y-109623161D01*
X252277619Y-109429638D01*
X252229238Y-109332876D01*
X252180857Y-109284495D01*
X252084095Y-109236114D01*
X251842190Y-109236114D01*
X251745428Y-109284495D01*
X251697047Y-109332876D01*
X251648666Y-109429638D01*
X251648666Y-109623161D01*
X251697047Y-109719923D01*
X251745428Y-109768304D01*
X251842190Y-109816685D01*
X251261619Y-111824495D02*
X251261619Y-112308304D01*
X251745428Y-112356685D01*
X251697047Y-112308304D01*
X251648666Y-112211542D01*
X251648666Y-111969638D01*
X251697047Y-111872876D01*
X251745428Y-111824495D01*
X251842190Y-111776114D01*
X252084095Y-111776114D01*
X252180857Y-111824495D01*
X252229238Y-111872876D01*
X252277619Y-111969638D01*
X252277619Y-112211542D01*
X252229238Y-112308304D01*
X252180857Y-112356685D01*
X251600285Y-114412876D02*
X252277619Y-114412876D01*
X251213238Y-114654780D02*
X251938952Y-114896685D01*
X251938952Y-114267733D01*
X251261619Y-117485066D02*
X251261619Y-116856114D01*
X251648666Y-117194780D01*
X251648666Y-117049638D01*
X251697047Y-116952876D01*
X251745428Y-116904495D01*
X251842190Y-116856114D01*
X252084095Y-116856114D01*
X252180857Y-116904495D01*
X252229238Y-116952876D01*
X252277619Y-117049638D01*
X252277619Y-117339923D01*
X252229238Y-117436685D01*
X252180857Y-117485066D01*
X251358380Y-119976685D02*
X251310000Y-119928304D01*
X251261619Y-119831542D01*
X251261619Y-119589638D01*
X251310000Y-119492876D01*
X251358380Y-119444495D01*
X251455142Y-119396114D01*
X251551904Y-119396114D01*
X251697047Y-119444495D01*
X252277619Y-120025066D01*
X252277619Y-119396114D01*
X252277619Y-121936114D02*
X252277619Y-122516685D01*
X252277619Y-122226400D02*
X251261619Y-122226400D01*
X251406761Y-122323161D01*
X251503523Y-122419923D01*
X251551904Y-122516685D01*
X251261619Y-124814780D02*
X251261619Y-124718019D01*
X251310000Y-124621257D01*
X251358380Y-124572876D01*
X251455142Y-124524495D01*
X251648666Y-124476114D01*
X251890571Y-124476114D01*
X252084095Y-124524495D01*
X252180857Y-124572876D01*
X252229238Y-124621257D01*
X252277619Y-124718019D01*
X252277619Y-124814780D01*
X252229238Y-124911542D01*
X252180857Y-124959923D01*
X252084095Y-125008304D01*
X251890571Y-125056685D01*
X251648666Y-125056685D01*
X251455142Y-125008304D01*
X251358380Y-124959923D01*
X251310000Y-124911542D01*
X251261619Y-124814780D01*
X242746571Y-80179965D02*
X242746571Y-79405870D01*
X243133619Y-79792918D02*
X242359523Y-79792918D01*
X242117619Y-78438251D02*
X242117619Y-78922060D01*
X242601428Y-78970441D01*
X242553047Y-78922060D01*
X242504666Y-78825299D01*
X242504666Y-78583394D01*
X242553047Y-78486632D01*
X242601428Y-78438251D01*
X242698190Y-78389870D01*
X242940095Y-78389870D01*
X243036857Y-78438251D01*
X243085238Y-78486632D01*
X243133619Y-78583394D01*
X243133619Y-78825299D01*
X243085238Y-78922060D01*
X243036857Y-78970441D01*
X242117619Y-78099584D02*
X243133619Y-77760918D01*
X242117619Y-77422251D01*
X249786000Y-79647775D02*
X249737619Y-79744537D01*
X249737619Y-79889680D01*
X249786000Y-80034822D01*
X249882761Y-80131584D01*
X249979523Y-80179965D01*
X250173047Y-80228346D01*
X250318190Y-80228346D01*
X250511714Y-80179965D01*
X250608476Y-80131584D01*
X250705238Y-80034822D01*
X250753619Y-79889680D01*
X250753619Y-79792918D01*
X250705238Y-79647775D01*
X250656857Y-79599394D01*
X250318190Y-79599394D01*
X250318190Y-79792918D01*
X250753619Y-79163965D02*
X249737619Y-79163965D01*
X250753619Y-78583394D01*
X249737619Y-78583394D01*
X250753619Y-78099584D02*
X249737619Y-78099584D01*
X249737619Y-77857680D01*
X249786000Y-77712537D01*
X249882761Y-77615775D01*
X249979523Y-77567394D01*
X250173047Y-77519013D01*
X250318190Y-77519013D01*
X250511714Y-77567394D01*
X250608476Y-77615775D01*
X250705238Y-77712537D01*
X250753619Y-77857680D01*
X250753619Y-78099584D01*
X244713499Y-78970441D02*
X244713499Y-78389869D01*
X245729499Y-78680155D02*
X244713499Y-78680155D01*
X244713499Y-78147965D02*
X245729499Y-77470631D01*
X244713499Y-77470631D02*
X245729499Y-78147965D01*
X248137419Y-78486632D02*
X247653609Y-78825299D01*
X248137419Y-79067203D02*
X247121419Y-79067203D01*
X247121419Y-78680156D01*
X247169800Y-78583394D01*
X247218180Y-78535013D01*
X247314942Y-78486632D01*
X247460085Y-78486632D01*
X247556847Y-78535013D01*
X247605228Y-78583394D01*
X247653609Y-78680156D01*
X247653609Y-79067203D01*
X247121419Y-78147965D02*
X248137419Y-77470632D01*
X247121419Y-77470632D02*
X248137419Y-78147965D01*
D11*
X164521828Y-104751200D02*
X164521828Y-104460914D01*
X164594400Y-104315771D01*
X164739542Y-104170628D01*
X165029828Y-104098057D01*
X165537828Y-104098057D01*
X165828114Y-104170628D01*
X165973257Y-104315771D01*
X166045828Y-104460914D01*
X166045828Y-104751200D01*
X165973257Y-104896342D01*
X165828114Y-105041485D01*
X165537828Y-105114057D01*
X165029828Y-105114057D01*
X164739542Y-105041485D01*
X164594400Y-104896342D01*
X164521828Y-104751200D01*
X165973257Y-103517485D02*
X166045828Y-103299771D01*
X166045828Y-102936914D01*
X165973257Y-102791771D01*
X165900685Y-102719200D01*
X165755542Y-102646628D01*
X165610400Y-102646628D01*
X165465257Y-102719200D01*
X165392685Y-102791771D01*
X165320114Y-102936914D01*
X165247542Y-103227200D01*
X165174971Y-103372342D01*
X165102400Y-103444914D01*
X164957257Y-103517485D01*
X164812114Y-103517485D01*
X164666971Y-103444914D01*
X164594400Y-103372342D01*
X164521828Y-103227200D01*
X164521828Y-102864342D01*
X164594400Y-102646628D01*
X166045828Y-101993485D02*
X164521828Y-101993485D01*
X164521828Y-101412914D02*
X166045828Y-101050057D01*
X164957257Y-100759771D01*
X166045828Y-100469485D01*
X164521828Y-100106628D01*
X165973257Y-98945485D02*
X166045828Y-99090628D01*
X166045828Y-99380914D01*
X165973257Y-99526057D01*
X165828114Y-99598628D01*
X165247542Y-99598628D01*
X165102400Y-99526057D01*
X165029828Y-99380914D01*
X165029828Y-99090628D01*
X165102400Y-98945485D01*
X165247542Y-98872914D01*
X165392685Y-98872914D01*
X165537828Y-99598628D01*
X166045828Y-98219771D02*
X164521828Y-98219771D01*
X165102400Y-98219771D02*
X165029828Y-98074628D01*
X165029828Y-97784342D01*
X165102400Y-97639200D01*
X165174971Y-97566628D01*
X165320114Y-97494057D01*
X165755542Y-97494057D01*
X165900685Y-97566628D01*
X165973257Y-97639200D01*
X166045828Y-97784342D01*
X166045828Y-98074628D01*
X165973257Y-98219771D01*
X165900685Y-96840914D02*
X165973257Y-96768342D01*
X166045828Y-96840914D01*
X165973257Y-96913485D01*
X165900685Y-96840914D01*
X166045828Y-96840914D01*
X166045828Y-95897485D02*
X165973257Y-96042628D01*
X165900685Y-96115200D01*
X165755542Y-96187771D01*
X165320114Y-96187771D01*
X165174971Y-96115200D01*
X165102400Y-96042628D01*
X165029828Y-95897485D01*
X165029828Y-95679771D01*
X165102400Y-95534628D01*
X165174971Y-95462057D01*
X165320114Y-95389485D01*
X165755542Y-95389485D01*
X165900685Y-95462057D01*
X165973257Y-95534628D01*
X166045828Y-95679771D01*
X166045828Y-95897485D01*
X166045828Y-94736342D02*
X165029828Y-94736342D01*
X165320114Y-94736342D02*
X165174971Y-94663771D01*
X165102400Y-94591200D01*
X165029828Y-94446057D01*
X165029828Y-94300914D01*
X165029828Y-93139771D02*
X166263542Y-93139771D01*
X166408685Y-93212342D01*
X166481257Y-93284914D01*
X166553828Y-93430057D01*
X166553828Y-93647771D01*
X166481257Y-93792914D01*
X165973257Y-93139771D02*
X166045828Y-93284914D01*
X166045828Y-93575200D01*
X165973257Y-93720342D01*
X165900685Y-93792914D01*
X165755542Y-93865485D01*
X165320114Y-93865485D01*
X165174971Y-93792914D01*
X165102400Y-93720342D01*
X165029828Y-93575200D01*
X165029828Y-93284914D01*
X165102400Y-93139771D01*
X164666971Y-91325485D02*
X164594400Y-91252914D01*
X164521828Y-91107771D01*
X164521828Y-90744914D01*
X164594400Y-90599771D01*
X164666971Y-90527200D01*
X164812114Y-90454628D01*
X164957257Y-90454628D01*
X165174971Y-90527200D01*
X166045828Y-91398057D01*
X166045828Y-90454628D01*
X164521828Y-89511200D02*
X164521828Y-89366057D01*
X164594400Y-89220914D01*
X164666971Y-89148342D01*
X164812114Y-89075771D01*
X165102400Y-89003200D01*
X165465257Y-89003200D01*
X165755542Y-89075771D01*
X165900685Y-89148342D01*
X165973257Y-89220914D01*
X166045828Y-89366057D01*
X166045828Y-89511200D01*
X165973257Y-89656342D01*
X165900685Y-89728914D01*
X165755542Y-89801485D01*
X165465257Y-89874057D01*
X165102400Y-89874057D01*
X164812114Y-89801485D01*
X164666971Y-89728914D01*
X164594400Y-89656342D01*
X164521828Y-89511200D01*
X166045828Y-87551771D02*
X166045828Y-88422628D01*
X166045828Y-87987200D02*
X164521828Y-87987200D01*
X164739542Y-88132342D01*
X164884685Y-88277485D01*
X164957257Y-88422628D01*
X166045828Y-86826057D02*
X166045828Y-86535771D01*
X165973257Y-86390628D01*
X165900685Y-86318057D01*
X165682971Y-86172914D01*
X165392685Y-86100342D01*
X164812114Y-86100342D01*
X164666971Y-86172914D01*
X164594400Y-86245485D01*
X164521828Y-86390628D01*
X164521828Y-86680914D01*
X164594400Y-86826057D01*
X164666971Y-86898628D01*
X164812114Y-86971200D01*
X165174971Y-86971200D01*
X165320114Y-86898628D01*
X165392685Y-86826057D01*
X165465257Y-86680914D01*
X165465257Y-86390628D01*
X165392685Y-86245485D01*
X165320114Y-86172914D01*
X165174971Y-86100342D01*
X164979028Y-178491028D02*
X166212742Y-178491028D01*
X166357885Y-178418457D01*
X166430457Y-178345885D01*
X166503028Y-178200742D01*
X166503028Y-177910457D01*
X166430457Y-177765314D01*
X166357885Y-177692742D01*
X166212742Y-177620171D01*
X164979028Y-177620171D01*
X165487028Y-176894457D02*
X166503028Y-176894457D01*
X165632171Y-176894457D02*
X165559600Y-176821885D01*
X165487028Y-176676742D01*
X165487028Y-176459028D01*
X165559600Y-176313885D01*
X165704742Y-176241314D01*
X166503028Y-176241314D01*
X166503028Y-175515600D02*
X165487028Y-175515600D01*
X164979028Y-175515600D02*
X165051600Y-175588171D01*
X165124171Y-175515600D01*
X165051600Y-175443028D01*
X164979028Y-175515600D01*
X165124171Y-175515600D01*
X165487028Y-175007600D02*
X165487028Y-174427028D01*
X166503028Y-174789885D02*
X165196742Y-174789885D01*
X165051600Y-174717314D01*
X164979028Y-174572171D01*
X164979028Y-174427028D01*
X166503028Y-173919028D02*
X165487028Y-173919028D01*
X164979028Y-173919028D02*
X165051600Y-173991600D01*
X165124171Y-173919028D01*
X165051600Y-173846457D01*
X164979028Y-173919028D01*
X165124171Y-173919028D01*
X166430457Y-172612742D02*
X166503028Y-172757885D01*
X166503028Y-173048171D01*
X166430457Y-173193314D01*
X166285314Y-173265885D01*
X165704742Y-173265885D01*
X165559600Y-173193314D01*
X165487028Y-173048171D01*
X165487028Y-172757885D01*
X165559600Y-172612742D01*
X165704742Y-172540171D01*
X165849885Y-172540171D01*
X165995028Y-173265885D01*
X166503028Y-171233885D02*
X164979028Y-171233885D01*
X166430457Y-171233885D02*
X166503028Y-171379028D01*
X166503028Y-171669314D01*
X166430457Y-171814457D01*
X166357885Y-171887028D01*
X166212742Y-171959600D01*
X165777314Y-171959600D01*
X165632171Y-171887028D01*
X165559600Y-171814457D01*
X165487028Y-171669314D01*
X165487028Y-171379028D01*
X165559600Y-171233885D01*
X166503028Y-169347028D02*
X164979028Y-169347028D01*
X166503028Y-168476171D02*
X165632171Y-169129314D01*
X164979028Y-168476171D02*
X165849885Y-169347028D01*
X166430457Y-167242457D02*
X166503028Y-167387600D01*
X166503028Y-167677885D01*
X166430457Y-167823028D01*
X166285314Y-167895600D01*
X165704742Y-167895600D01*
X165559600Y-167823028D01*
X165487028Y-167677885D01*
X165487028Y-167387600D01*
X165559600Y-167242457D01*
X165704742Y-167169885D01*
X165849885Y-167169885D01*
X165995028Y-167895600D01*
X165487028Y-166661885D02*
X166503028Y-166299028D01*
X165487028Y-165936171D02*
X166503028Y-166299028D01*
X166865885Y-166444171D01*
X166938457Y-166516742D01*
X167011028Y-166661885D01*
X166503028Y-165355600D02*
X164979028Y-165355600D01*
X165559600Y-165355600D02*
X165487028Y-165210457D01*
X165487028Y-164920171D01*
X165559600Y-164775028D01*
X165632171Y-164702457D01*
X165777314Y-164629885D01*
X166212742Y-164629885D01*
X166357885Y-164702457D01*
X166430457Y-164775028D01*
X166503028Y-164920171D01*
X166503028Y-165210457D01*
X166430457Y-165355600D01*
X166503028Y-163759028D02*
X166430457Y-163904171D01*
X166357885Y-163976742D01*
X166212742Y-164049314D01*
X165777314Y-164049314D01*
X165632171Y-163976742D01*
X165559600Y-163904171D01*
X165487028Y-163759028D01*
X165487028Y-163541314D01*
X165559600Y-163396171D01*
X165632171Y-163323600D01*
X165777314Y-163251028D01*
X166212742Y-163251028D01*
X166357885Y-163323600D01*
X166430457Y-163396171D01*
X166503028Y-163541314D01*
X166503028Y-163759028D01*
X166503028Y-161944742D02*
X165704742Y-161944742D01*
X165559600Y-162017314D01*
X165487028Y-162162457D01*
X165487028Y-162452742D01*
X165559600Y-162597885D01*
X166430457Y-161944742D02*
X166503028Y-162089885D01*
X166503028Y-162452742D01*
X166430457Y-162597885D01*
X166285314Y-162670457D01*
X166140171Y-162670457D01*
X165995028Y-162597885D01*
X165922457Y-162452742D01*
X165922457Y-162089885D01*
X165849885Y-161944742D01*
X166503028Y-161219028D02*
X165487028Y-161219028D01*
X165777314Y-161219028D02*
X165632171Y-161146457D01*
X165559600Y-161073885D01*
X165487028Y-160928742D01*
X165487028Y-160783600D01*
X166503028Y-159622457D02*
X164979028Y-159622457D01*
X166430457Y-159622457D02*
X166503028Y-159767600D01*
X166503028Y-160057885D01*
X166430457Y-160203028D01*
X166357885Y-160275600D01*
X166212742Y-160348171D01*
X165777314Y-160348171D01*
X165632171Y-160275600D01*
X165559600Y-160203028D01*
X165487028Y-160057885D01*
X165487028Y-159767600D01*
X165559600Y-159622457D01*
X166067600Y-157808171D02*
X166067600Y-157082457D01*
X166503028Y-157953314D02*
X164979028Y-157445314D01*
X166503028Y-156937314D01*
X166430457Y-156501885D02*
X166503028Y-156284171D01*
X166503028Y-155921314D01*
X166430457Y-155776171D01*
X166357885Y-155703600D01*
X166212742Y-155631028D01*
X166067600Y-155631028D01*
X165922457Y-155703600D01*
X165849885Y-155776171D01*
X165777314Y-155921314D01*
X165704742Y-156211600D01*
X165632171Y-156356742D01*
X165559600Y-156429314D01*
X165414457Y-156501885D01*
X165269314Y-156501885D01*
X165124171Y-156429314D01*
X165051600Y-156356742D01*
X164979028Y-156211600D01*
X164979028Y-155848742D01*
X165051600Y-155631028D01*
X166357885Y-154107028D02*
X166430457Y-154179600D01*
X166503028Y-154397314D01*
X166503028Y-154542457D01*
X166430457Y-154760171D01*
X166285314Y-154905314D01*
X166140171Y-154977885D01*
X165849885Y-155050457D01*
X165632171Y-155050457D01*
X165341885Y-154977885D01*
X165196742Y-154905314D01*
X165051600Y-154760171D01*
X164979028Y-154542457D01*
X164979028Y-154397314D01*
X165051600Y-154179600D01*
X165124171Y-154107028D01*
X166503028Y-153453885D02*
X164979028Y-153453885D01*
X166503028Y-152728171D02*
X164979028Y-152728171D01*
X166503028Y-150841314D02*
X164979028Y-150841314D01*
X165487028Y-150115600D02*
X166503028Y-150115600D01*
X165632171Y-150115600D02*
X165559600Y-150043028D01*
X165487028Y-149897885D01*
X165487028Y-149680171D01*
X165559600Y-149535028D01*
X165704742Y-149462457D01*
X166503028Y-149462457D01*
X165487028Y-148954457D02*
X165487028Y-148373885D01*
X164979028Y-148736742D02*
X166285314Y-148736742D01*
X166430457Y-148664171D01*
X166503028Y-148519028D01*
X166503028Y-148373885D01*
X166430457Y-147285314D02*
X166503028Y-147430457D01*
X166503028Y-147720742D01*
X166430457Y-147865885D01*
X166285314Y-147938457D01*
X165704742Y-147938457D01*
X165559600Y-147865885D01*
X165487028Y-147720742D01*
X165487028Y-147430457D01*
X165559600Y-147285314D01*
X165704742Y-147212742D01*
X165849885Y-147212742D01*
X165995028Y-147938457D01*
X166503028Y-146559600D02*
X165487028Y-146559600D01*
X165777314Y-146559600D02*
X165632171Y-146487028D01*
X165559600Y-146414457D01*
X165487028Y-146269314D01*
X165487028Y-146124171D01*
X165487028Y-145833885D02*
X165487028Y-145253314D01*
X166503028Y-145616171D02*
X165196742Y-145616171D01*
X165051600Y-145543600D01*
X164979028Y-145398457D01*
X164979028Y-145253314D01*
X166503028Y-144092171D02*
X165704742Y-144092171D01*
X165559600Y-144164742D01*
X165487028Y-144309885D01*
X165487028Y-144600171D01*
X165559600Y-144745314D01*
X166430457Y-144092171D02*
X166503028Y-144237314D01*
X166503028Y-144600171D01*
X166430457Y-144745314D01*
X166285314Y-144817885D01*
X166140171Y-144817885D01*
X165995028Y-144745314D01*
X165922457Y-144600171D01*
X165922457Y-144237314D01*
X165849885Y-144092171D01*
X166430457Y-142713314D02*
X166503028Y-142858457D01*
X166503028Y-143148742D01*
X166430457Y-143293885D01*
X166357885Y-143366457D01*
X166212742Y-143439028D01*
X165777314Y-143439028D01*
X165632171Y-143366457D01*
X165559600Y-143293885D01*
X165487028Y-143148742D01*
X165487028Y-142858457D01*
X165559600Y-142713314D01*
X166430457Y-141479600D02*
X166503028Y-141624742D01*
X166503028Y-141915028D01*
X166430457Y-142060171D01*
X166285314Y-142132742D01*
X165704742Y-142132742D01*
X165559600Y-142060171D01*
X165487028Y-141915028D01*
X165487028Y-141624742D01*
X165559600Y-141479600D01*
X165704742Y-141407028D01*
X165849885Y-141407028D01*
X165995028Y-142132742D01*
X166503028Y-137560742D02*
X165777314Y-138068742D01*
X166503028Y-138431600D02*
X164979028Y-138431600D01*
X164979028Y-137851028D01*
X165051600Y-137705885D01*
X165124171Y-137633314D01*
X165269314Y-137560742D01*
X165487028Y-137560742D01*
X165632171Y-137633314D01*
X165704742Y-137705885D01*
X165777314Y-137851028D01*
X165777314Y-138431600D01*
X166430457Y-136327028D02*
X166503028Y-136472171D01*
X166503028Y-136762457D01*
X166430457Y-136907600D01*
X166285314Y-136980171D01*
X165704742Y-136980171D01*
X165559600Y-136907600D01*
X165487028Y-136762457D01*
X165487028Y-136472171D01*
X165559600Y-136327028D01*
X165704742Y-136254457D01*
X165849885Y-136254457D01*
X165995028Y-136980171D01*
X165487028Y-135746457D02*
X166503028Y-135383600D01*
X165487028Y-135020742D01*
X165124171Y-133351600D02*
X165051600Y-133279028D01*
X164979028Y-133133885D01*
X164979028Y-132771028D01*
X165051600Y-132625885D01*
X165124171Y-132553314D01*
X165269314Y-132480742D01*
X165414457Y-132480742D01*
X165632171Y-132553314D01*
X166503028Y-133424171D01*
X166503028Y-132480742D01*
X166357885Y-131827600D02*
X166430457Y-131755028D01*
X166503028Y-131827600D01*
X166430457Y-131900171D01*
X166357885Y-131827600D01*
X166503028Y-131827600D01*
X164979028Y-131247028D02*
X164979028Y-130303600D01*
X165559600Y-130811600D01*
X165559600Y-130593885D01*
X165632171Y-130448742D01*
X165704742Y-130376171D01*
X165849885Y-130303600D01*
X166212742Y-130303600D01*
X166357885Y-130376171D01*
X166430457Y-130448742D01*
X166503028Y-130593885D01*
X166503028Y-131029314D01*
X166430457Y-131174457D01*
X166357885Y-131247028D01*
D10*
X177214571Y-79438285D02*
X177214571Y-78664190D01*
X177601619Y-79051238D02*
X176827523Y-79051238D01*
X176585619Y-77696571D02*
X176585619Y-78180380D01*
X177069428Y-78228761D01*
X177021047Y-78180380D01*
X176972666Y-78083619D01*
X176972666Y-77841714D01*
X177021047Y-77744952D01*
X177069428Y-77696571D01*
X177166190Y-77648190D01*
X177408095Y-77648190D01*
X177504857Y-77696571D01*
X177553238Y-77744952D01*
X177601619Y-77841714D01*
X177601619Y-78083619D01*
X177553238Y-78180380D01*
X177504857Y-78228761D01*
X176585619Y-77357904D02*
X177601619Y-77019238D01*
X176585619Y-76680571D01*
X174045619Y-82069000D02*
X174045619Y-81875476D01*
X174094000Y-81778714D01*
X174190761Y-81681952D01*
X174384285Y-81633571D01*
X174722952Y-81633571D01*
X174916476Y-81681952D01*
X175013238Y-81778714D01*
X175061619Y-81875476D01*
X175061619Y-82069000D01*
X175013238Y-82165761D01*
X174916476Y-82262523D01*
X174722952Y-82310904D01*
X174384285Y-82310904D01*
X174190761Y-82262523D01*
X174094000Y-82165761D01*
X174045619Y-82069000D01*
X175061619Y-80665952D02*
X175061619Y-81246523D01*
X175061619Y-80956238D02*
X174045619Y-80956238D01*
X174190761Y-81053000D01*
X174287523Y-81149761D01*
X174335904Y-81246523D01*
X173997238Y-79504809D02*
X175303523Y-80375666D01*
X174964857Y-78585571D02*
X175013238Y-78633952D01*
X175061619Y-78779095D01*
X175061619Y-78875857D01*
X175013238Y-79021000D01*
X174916476Y-79117761D01*
X174819714Y-79166142D01*
X174626190Y-79214523D01*
X174481047Y-79214523D01*
X174287523Y-79166142D01*
X174190761Y-79117761D01*
X174094000Y-79021000D01*
X174045619Y-78875857D01*
X174045619Y-78779095D01*
X174094000Y-78633952D01*
X174142380Y-78585571D01*
X175061619Y-77666333D02*
X175061619Y-78150142D01*
X174045619Y-78150142D01*
X175061619Y-76747095D02*
X174577809Y-77085761D01*
X175061619Y-77327666D02*
X174045619Y-77327666D01*
X174045619Y-76940619D01*
X174094000Y-76843857D01*
X174142380Y-76795476D01*
X174239142Y-76747095D01*
X174384285Y-76747095D01*
X174481047Y-76795476D01*
X174529428Y-76843857D01*
X174577809Y-76940619D01*
X174577809Y-77327666D01*
X168965619Y-84082857D02*
X168965619Y-83889333D01*
X169014000Y-83792571D01*
X169110761Y-83695809D01*
X169304285Y-83647428D01*
X169642952Y-83647428D01*
X169836476Y-83695809D01*
X169933238Y-83792571D01*
X169981619Y-83889333D01*
X169981619Y-84082857D01*
X169933238Y-84179619D01*
X169836476Y-84276380D01*
X169642952Y-84324761D01*
X169304285Y-84324761D01*
X169110761Y-84276380D01*
X169014000Y-84179619D01*
X168965619Y-84082857D01*
X168965619Y-83308761D02*
X168965619Y-82679809D01*
X169352666Y-83018476D01*
X169352666Y-82873333D01*
X169401047Y-82776571D01*
X169449428Y-82728190D01*
X169546190Y-82679809D01*
X169788095Y-82679809D01*
X169884857Y-82728190D01*
X169933238Y-82776571D01*
X169981619Y-82873333D01*
X169981619Y-83163619D01*
X169933238Y-83260380D01*
X169884857Y-83308761D01*
X168917238Y-81518666D02*
X170223523Y-82389523D01*
X168625380Y-81421904D02*
X168625380Y-80405904D01*
X169981619Y-80599428D02*
X169497809Y-80938095D01*
X169981619Y-81180000D02*
X168965619Y-81180000D01*
X168965619Y-80792952D01*
X169014000Y-80696190D01*
X169062380Y-80647809D01*
X169159142Y-80599428D01*
X169304285Y-80599428D01*
X169401047Y-80647809D01*
X169449428Y-80696190D01*
X169497809Y-80792952D01*
X169497809Y-81180000D01*
X168625380Y-80405904D02*
X168625380Y-79486666D01*
X169449428Y-80164000D02*
X169449428Y-79825333D01*
X169981619Y-79680190D02*
X169981619Y-80164000D01*
X168965619Y-80164000D01*
X168965619Y-79680190D01*
X168625380Y-79486666D02*
X168625380Y-78519047D01*
X169933238Y-79293142D02*
X169981619Y-79148000D01*
X169981619Y-78906095D01*
X169933238Y-78809333D01*
X169884857Y-78760952D01*
X169788095Y-78712571D01*
X169691333Y-78712571D01*
X169594571Y-78760952D01*
X169546190Y-78809333D01*
X169497809Y-78906095D01*
X169449428Y-79099619D01*
X169401047Y-79196380D01*
X169352666Y-79244761D01*
X169255904Y-79293142D01*
X169159142Y-79293142D01*
X169062380Y-79244761D01*
X169014000Y-79196380D01*
X168965619Y-79099619D01*
X168965619Y-78857714D01*
X169014000Y-78712571D01*
X168625380Y-78519047D02*
X168625380Y-77599809D01*
X169449428Y-78277142D02*
X169449428Y-77938476D01*
X169981619Y-77793333D02*
X169981619Y-78277142D01*
X168965619Y-78277142D01*
X168965619Y-77793333D01*
X168625380Y-77599809D02*
X168625380Y-76825714D01*
X168965619Y-77503047D02*
X168965619Y-76922476D01*
X169981619Y-77212761D02*
X168965619Y-77212761D01*
X166220000Y-78906095D02*
X166171619Y-79002857D01*
X166171619Y-79148000D01*
X166220000Y-79293142D01*
X166316761Y-79389904D01*
X166413523Y-79438285D01*
X166607047Y-79486666D01*
X166752190Y-79486666D01*
X166945714Y-79438285D01*
X167042476Y-79389904D01*
X167139238Y-79293142D01*
X167187619Y-79148000D01*
X167187619Y-79051238D01*
X167139238Y-78906095D01*
X167090857Y-78857714D01*
X166752190Y-78857714D01*
X166752190Y-79051238D01*
X167187619Y-78422285D02*
X166171619Y-78422285D01*
X167187619Y-77841714D01*
X166171619Y-77841714D01*
X167187619Y-77357904D02*
X166171619Y-77357904D01*
X166171619Y-77116000D01*
X166220000Y-76970857D01*
X166316761Y-76874095D01*
X166413523Y-76825714D01*
X166607047Y-76777333D01*
X166752190Y-76777333D01*
X166945714Y-76825714D01*
X167042476Y-76874095D01*
X167139238Y-76970857D01*
X167187619Y-77116000D01*
X167187619Y-77357904D01*
D12*
X216893000Y-91951000D02*
X216893000Y-91181000D01*
X216893000Y-83871000D02*
X216893000Y-84641000D01*
X218263000Y-91181000D02*
X218263000Y-84641000D01*
X215523000Y-91181000D02*
X218263000Y-91181000D01*
X215523000Y-84641000D02*
X215523000Y-91181000D01*
X218263000Y-84641000D02*
X215523000Y-84641000D01*
X184575000Y-141268000D02*
X184575000Y-142918000D01*
X205015000Y-141268000D02*
X184575000Y-141268000D01*
X205015000Y-146568000D02*
X205015000Y-141268000D01*
X184575000Y-146568000D02*
X205015000Y-146568000D01*
X184575000Y-144918000D02*
X184575000Y-146568000D01*
X184575000Y-142918000D02*
G75*
G02X184575000Y-144918000I0J-1000000D01*
G01*
X191560000Y-88436000D02*
X191560000Y-90086000D01*
X209460000Y-88436000D02*
X191560000Y-88436000D01*
X209460000Y-93736000D02*
X209460000Y-88436000D01*
X191560000Y-93736000D02*
X209460000Y-93736000D01*
X191560000Y-92086000D02*
X191560000Y-93736000D01*
X191560000Y-90086000D02*
G75*
G02X191560000Y-92086000I0J-1000000D01*
G01*
X202772000Y-167540000D02*
X202002000Y-167540000D01*
X194692000Y-167540000D02*
X195462000Y-167540000D01*
X202002000Y-166170000D02*
X195462000Y-166170000D01*
X202002000Y-168910000D02*
X202002000Y-166170000D01*
X195462000Y-168910000D02*
X202002000Y-168910000D01*
X195462000Y-166170000D02*
X195462000Y-168910000D01*
X165585000Y-75846000D02*
X165585000Y-74576000D01*
X166855000Y-75846000D02*
X165585000Y-75846000D01*
X177395000Y-73533071D02*
X177395000Y-73136000D01*
X176635000Y-73533071D02*
X176635000Y-73136000D01*
X177395000Y-64476000D02*
X177395000Y-70476000D01*
X176635000Y-64476000D02*
X177395000Y-64476000D01*
X176635000Y-70476000D02*
X176635000Y-64476000D01*
X175745000Y-73136000D02*
X175745000Y-70476000D01*
X174855000Y-73533071D02*
X174855000Y-73136000D01*
X174095000Y-73533071D02*
X174095000Y-73136000D01*
X174855000Y-64476000D02*
X174855000Y-70476000D01*
X174095000Y-64476000D02*
X174855000Y-64476000D01*
X174095000Y-70476000D02*
X174095000Y-64476000D01*
X173205000Y-73136000D02*
X173205000Y-70476000D01*
X172315000Y-73533071D02*
X172315000Y-73136000D01*
X171555000Y-73533071D02*
X171555000Y-73136000D01*
X172315000Y-64476000D02*
X172315000Y-70476000D01*
X171555000Y-64476000D02*
X172315000Y-64476000D01*
X171555000Y-70476000D02*
X171555000Y-64476000D01*
X170665000Y-73136000D02*
X170665000Y-70476000D01*
X169775000Y-73533071D02*
X169775000Y-73136000D01*
X169015000Y-73533071D02*
X169015000Y-73136000D01*
X169775000Y-64476000D02*
X169775000Y-70476000D01*
X169015000Y-64476000D02*
X169775000Y-64476000D01*
X169015000Y-70476000D02*
X169015000Y-64476000D01*
X168125000Y-73136000D02*
X168125000Y-70476000D01*
X167235000Y-73466000D02*
X167235000Y-73136000D01*
X166475000Y-73466000D02*
X166475000Y-73136000D01*
X167135000Y-70476000D02*
X167135000Y-64476000D01*
X167015000Y-70476000D02*
X167015000Y-64476000D01*
X166895000Y-70476000D02*
X166895000Y-64476000D01*
X166775000Y-70476000D02*
X166775000Y-64476000D01*
X166655000Y-70476000D02*
X166655000Y-64476000D01*
X166535000Y-70476000D02*
X166535000Y-64476000D01*
X167235000Y-64476000D02*
X167235000Y-70476000D01*
X166475000Y-64476000D02*
X167235000Y-64476000D01*
X166475000Y-70476000D02*
X166475000Y-64476000D01*
X165525000Y-70476000D02*
X165525000Y-73136000D01*
X178345000Y-70476000D02*
X165525000Y-70476000D01*
X178345000Y-73136000D02*
X178345000Y-70476000D01*
X165525000Y-73136000D02*
X178345000Y-73136000D01*
X243336000Y-91816000D02*
X246076000Y-91816000D01*
X246076000Y-91816000D02*
X246076000Y-85276000D01*
X246076000Y-85276000D02*
X243336000Y-85276000D01*
X243336000Y-85276000D02*
X243336000Y-91816000D01*
X244706000Y-92586000D02*
X244706000Y-91816000D01*
X244706000Y-84506000D02*
X244706000Y-85276000D01*
X186890000Y-90183000D02*
X186890000Y-91441000D01*
X188730000Y-90183000D02*
X188730000Y-91441000D01*
X194692000Y-159920000D02*
X195462000Y-159920000D01*
X202772000Y-159920000D02*
X202002000Y-159920000D01*
X195462000Y-161290000D02*
X202002000Y-161290000D01*
X195462000Y-158550000D02*
X195462000Y-161290000D01*
X202002000Y-158550000D02*
X195462000Y-158550000D01*
X202002000Y-161290000D02*
X202002000Y-158550000D01*
X223370000Y-161762400D02*
X221130000Y-161762400D01*
X221130000Y-161762400D02*
X221130000Y-166002400D01*
X221130000Y-166002400D02*
X223370000Y-166002400D01*
X223370000Y-166002400D02*
X223370000Y-161762400D01*
X222250000Y-161112400D02*
X222250000Y-161762400D01*
X222250000Y-166652400D02*
X222250000Y-166002400D01*
X223370000Y-162482400D02*
X221130000Y-162482400D01*
X223370000Y-162602400D02*
X221130000Y-162602400D01*
X223370000Y-162362400D02*
X221130000Y-162362400D01*
X228450000Y-161762400D02*
X226210000Y-161762400D01*
X226210000Y-161762400D02*
X226210000Y-166002400D01*
X226210000Y-166002400D02*
X228450000Y-166002400D01*
X228450000Y-166002400D02*
X228450000Y-161762400D01*
X227330000Y-161112400D02*
X227330000Y-161762400D01*
X227330000Y-166652400D02*
X227330000Y-166002400D01*
X228450000Y-162482400D02*
X226210000Y-162482400D01*
X228450000Y-162602400D02*
X226210000Y-162602400D01*
X228450000Y-162362400D02*
X226210000Y-162362400D01*
X233530000Y-161762400D02*
X231290000Y-161762400D01*
X231290000Y-161762400D02*
X231290000Y-166002400D01*
X231290000Y-166002400D02*
X233530000Y-166002400D01*
X233530000Y-166002400D02*
X233530000Y-161762400D01*
X232410000Y-161112400D02*
X232410000Y-161762400D01*
X232410000Y-166652400D02*
X232410000Y-166002400D01*
X233530000Y-162482400D02*
X231290000Y-162482400D01*
X233530000Y-162602400D02*
X231290000Y-162602400D01*
X233530000Y-162362400D02*
X231290000Y-162362400D01*
X238610000Y-161762400D02*
X236370000Y-161762400D01*
X236370000Y-161762400D02*
X236370000Y-166002400D01*
X236370000Y-166002400D02*
X238610000Y-166002400D01*
X238610000Y-166002400D02*
X238610000Y-161762400D01*
X237490000Y-161112400D02*
X237490000Y-161762400D01*
X237490000Y-166652400D02*
X237490000Y-166002400D01*
X238610000Y-162482400D02*
X236370000Y-162482400D01*
X238610000Y-162602400D02*
X236370000Y-162602400D01*
X238610000Y-162362400D02*
X236370000Y-162362400D01*
X243690000Y-161762400D02*
X241450000Y-161762400D01*
X241450000Y-161762400D02*
X241450000Y-166002400D01*
X241450000Y-166002400D02*
X243690000Y-166002400D01*
X243690000Y-166002400D02*
X243690000Y-161762400D01*
X242570000Y-161112400D02*
X242570000Y-161762400D01*
X242570000Y-166652400D02*
X242570000Y-166002400D01*
X243690000Y-162482400D02*
X241450000Y-162482400D01*
X243690000Y-162602400D02*
X241450000Y-162602400D01*
X243690000Y-162362400D02*
X241450000Y-162362400D01*
X225910000Y-161762400D02*
X223670000Y-161762400D01*
X223670000Y-161762400D02*
X223670000Y-166002400D01*
X223670000Y-166002400D02*
X225910000Y-166002400D01*
X225910000Y-166002400D02*
X225910000Y-161762400D01*
X224790000Y-161112400D02*
X224790000Y-161762400D01*
X224790000Y-166652400D02*
X224790000Y-166002400D01*
X225910000Y-162482400D02*
X223670000Y-162482400D01*
X225910000Y-162602400D02*
X223670000Y-162602400D01*
X225910000Y-162362400D02*
X223670000Y-162362400D01*
X230990000Y-161762400D02*
X228750000Y-161762400D01*
X228750000Y-161762400D02*
X228750000Y-166002400D01*
X228750000Y-166002400D02*
X230990000Y-166002400D01*
X230990000Y-166002400D02*
X230990000Y-161762400D01*
X229870000Y-161112400D02*
X229870000Y-161762400D01*
X229870000Y-166652400D02*
X229870000Y-166002400D01*
X230990000Y-162482400D02*
X228750000Y-162482400D01*
X230990000Y-162602400D02*
X228750000Y-162602400D01*
X230990000Y-162362400D02*
X228750000Y-162362400D01*
X236070000Y-161762400D02*
X233830000Y-161762400D01*
X233830000Y-161762400D02*
X233830000Y-166002400D01*
X233830000Y-166002400D02*
X236070000Y-166002400D01*
X236070000Y-166002400D02*
X236070000Y-161762400D01*
X234950000Y-161112400D02*
X234950000Y-161762400D01*
X234950000Y-166652400D02*
X234950000Y-166002400D01*
X236070000Y-162482400D02*
X233830000Y-162482400D01*
X236070000Y-162602400D02*
X233830000Y-162602400D01*
X236070000Y-162362400D02*
X233830000Y-162362400D01*
X213618800Y-146497000D02*
X211378800Y-146497000D01*
X211378800Y-146497000D02*
X211378800Y-150737000D01*
X211378800Y-150737000D02*
X213618800Y-150737000D01*
X213618800Y-150737000D02*
X213618800Y-146497000D01*
X212498800Y-145847000D02*
X212498800Y-146497000D01*
X212498800Y-151387000D02*
X212498800Y-150737000D01*
X213618800Y-147217000D02*
X211378800Y-147217000D01*
X213618800Y-147337000D02*
X211378800Y-147337000D01*
X213618800Y-147097000D02*
X211378800Y-147097000D01*
X210670000Y-161762400D02*
X208430000Y-161762400D01*
X208430000Y-161762400D02*
X208430000Y-166002400D01*
X208430000Y-166002400D02*
X210670000Y-166002400D01*
X210670000Y-166002400D02*
X210670000Y-161762400D01*
X209550000Y-161112400D02*
X209550000Y-161762400D01*
X209550000Y-166652400D02*
X209550000Y-166002400D01*
X210670000Y-162482400D02*
X208430000Y-162482400D01*
X210670000Y-162602400D02*
X208430000Y-162602400D01*
X210670000Y-162362400D02*
X208430000Y-162362400D01*
X215750000Y-161762400D02*
X213510000Y-161762400D01*
X213510000Y-161762400D02*
X213510000Y-166002400D01*
X213510000Y-166002400D02*
X215750000Y-166002400D01*
X215750000Y-166002400D02*
X215750000Y-161762400D01*
X214630000Y-161112400D02*
X214630000Y-161762400D01*
X214630000Y-166652400D02*
X214630000Y-166002400D01*
X215750000Y-162482400D02*
X213510000Y-162482400D01*
X215750000Y-162602400D02*
X213510000Y-162602400D01*
X215750000Y-162362400D02*
X213510000Y-162362400D01*
X220830000Y-161762400D02*
X218590000Y-161762400D01*
X218590000Y-161762400D02*
X218590000Y-166002400D01*
X218590000Y-166002400D02*
X220830000Y-166002400D01*
X220830000Y-166002400D02*
X220830000Y-161762400D01*
X219710000Y-161112400D02*
X219710000Y-161762400D01*
X219710000Y-166652400D02*
X219710000Y-166002400D01*
X220830000Y-162482400D02*
X218590000Y-162482400D01*
X220830000Y-162602400D02*
X218590000Y-162602400D01*
X220830000Y-162362400D02*
X218590000Y-162362400D01*
X241150000Y-161762400D02*
X238910000Y-161762400D01*
X238910000Y-161762400D02*
X238910000Y-166002400D01*
X238910000Y-166002400D02*
X241150000Y-166002400D01*
X241150000Y-166002400D02*
X241150000Y-161762400D01*
X240030000Y-161112400D02*
X240030000Y-161762400D01*
X240030000Y-166652400D02*
X240030000Y-166002400D01*
X241150000Y-162482400D02*
X238910000Y-162482400D01*
X241150000Y-162602400D02*
X238910000Y-162602400D01*
X241150000Y-162362400D02*
X238910000Y-162362400D01*
X216184200Y-146471600D02*
X213944200Y-146471600D01*
X213944200Y-146471600D02*
X213944200Y-150711600D01*
X213944200Y-150711600D02*
X216184200Y-150711600D01*
X216184200Y-150711600D02*
X216184200Y-146471600D01*
X215064200Y-145821600D02*
X215064200Y-146471600D01*
X215064200Y-151361600D02*
X215064200Y-150711600D01*
X216184200Y-147191600D02*
X213944200Y-147191600D01*
X216184200Y-147311600D02*
X213944200Y-147311600D01*
X216184200Y-147071600D02*
X213944200Y-147071600D01*
X213210000Y-161762400D02*
X210970000Y-161762400D01*
X210970000Y-161762400D02*
X210970000Y-166002400D01*
X210970000Y-166002400D02*
X213210000Y-166002400D01*
X213210000Y-166002400D02*
X213210000Y-161762400D01*
X212090000Y-161112400D02*
X212090000Y-161762400D01*
X212090000Y-166652400D02*
X212090000Y-166002400D01*
X213210000Y-162482400D02*
X210970000Y-162482400D01*
X213210000Y-162602400D02*
X210970000Y-162602400D01*
X213210000Y-162362400D02*
X210970000Y-162362400D01*
X218290000Y-161762400D02*
X216050000Y-161762400D01*
X216050000Y-161762400D02*
X216050000Y-166002400D01*
X216050000Y-166002400D02*
X218290000Y-166002400D01*
X218290000Y-166002400D02*
X218290000Y-161762400D01*
X217170000Y-161112400D02*
X217170000Y-161762400D01*
X217170000Y-166652400D02*
X217170000Y-166002400D01*
X218290000Y-162482400D02*
X216050000Y-162482400D01*
X218290000Y-162602400D02*
X216050000Y-162602400D01*
X218290000Y-162362400D02*
X216050000Y-162362400D01*
X202772000Y-163730000D02*
X202002000Y-163730000D01*
X194692000Y-163730000D02*
X195462000Y-163730000D01*
X202002000Y-162360000D02*
X195462000Y-162360000D01*
X202002000Y-165100000D02*
X202002000Y-162360000D01*
X195462000Y-165100000D02*
X202002000Y-165100000D01*
X195462000Y-162360000D02*
X195462000Y-165100000D01*
X177119000Y-162845000D02*
X174879000Y-162845000D01*
X177119000Y-163085000D02*
X174879000Y-163085000D01*
X177119000Y-162965000D02*
X174879000Y-162965000D01*
X175999000Y-167135000D02*
X175999000Y-166485000D01*
X175999000Y-161595000D02*
X175999000Y-162245000D01*
X177119000Y-166485000D02*
X177119000Y-162245000D01*
X174879000Y-166485000D02*
X177119000Y-166485000D01*
X174879000Y-162245000D02*
X174879000Y-166485000D01*
X177119000Y-162245000D02*
X174879000Y-162245000D01*
X183889200Y-171696400D02*
X183889200Y-173026400D01*
X185219200Y-171696400D02*
X183889200Y-171696400D01*
X183889200Y-174296400D02*
X183889200Y-176896400D01*
X186489200Y-174296400D02*
X183889200Y-174296400D01*
X186489200Y-171696400D02*
X186489200Y-174296400D01*
X183889200Y-176896400D02*
X234809200Y-176896400D01*
X186489200Y-171696400D02*
X234809200Y-171696400D01*
X234809200Y-171696400D02*
X234809200Y-176896400D01*
X241358280Y-76973760D02*
X241358280Y-75703760D01*
X242628280Y-76973760D02*
X241358280Y-76973760D01*
X250628280Y-74660831D02*
X250628280Y-74263760D01*
X249868280Y-74660831D02*
X249868280Y-74263760D01*
X250628280Y-65603760D02*
X250628280Y-71603760D01*
X249868280Y-65603760D02*
X250628280Y-65603760D01*
X249868280Y-71603760D02*
X249868280Y-65603760D01*
X248978280Y-74263760D02*
X248978280Y-71603760D01*
X248088280Y-74660831D02*
X248088280Y-74263760D01*
X247328280Y-74660831D02*
X247328280Y-74263760D01*
X248088280Y-65603760D02*
X248088280Y-71603760D01*
X247328280Y-65603760D02*
X248088280Y-65603760D01*
X247328280Y-71603760D02*
X247328280Y-65603760D01*
X246438280Y-74263760D02*
X246438280Y-71603760D01*
X245548280Y-74660831D02*
X245548280Y-74263760D01*
X244788280Y-74660831D02*
X244788280Y-74263760D01*
X245548280Y-65603760D02*
X245548280Y-71603760D01*
X244788280Y-65603760D02*
X245548280Y-65603760D01*
X244788280Y-71603760D02*
X244788280Y-65603760D01*
X243898280Y-74263760D02*
X243898280Y-71603760D01*
X243008280Y-74593760D02*
X243008280Y-74263760D01*
X242248280Y-74593760D02*
X242248280Y-74263760D01*
X242908280Y-71603760D02*
X242908280Y-65603760D01*
X242788280Y-71603760D02*
X242788280Y-65603760D01*
X242668280Y-71603760D02*
X242668280Y-65603760D01*
X242548280Y-71603760D02*
X242548280Y-65603760D01*
X242428280Y-71603760D02*
X242428280Y-65603760D01*
X242308280Y-71603760D02*
X242308280Y-65603760D01*
X243008280Y-65603760D02*
X243008280Y-71603760D01*
X242248280Y-65603760D02*
X243008280Y-65603760D01*
X242248280Y-71603760D02*
X242248280Y-65603760D01*
X241298280Y-71603760D02*
X241298280Y-74263760D01*
X251578280Y-71603760D02*
X241298280Y-71603760D01*
X251578280Y-74263760D02*
X251578280Y-71603760D01*
X241298280Y-74263760D02*
X251578280Y-74263760D01*
X249402000Y-127161000D02*
X239502000Y-127161000D01*
X249402000Y-104540000D02*
X239502000Y-104540000D01*
X249402000Y-127161000D02*
X249402000Y-104540000D01*
X239502000Y-127161000D02*
X239502000Y-104540000D01*
X249642000Y-127401000D02*
X248258000Y-127401000D01*
X249642000Y-127401000D02*
X249642000Y-126018000D01*
X250602000Y-125561000D02*
X249402000Y-125561000D01*
X250602000Y-123921000D02*
X249402000Y-123921000D01*
X250602000Y-125561000D02*
X250602000Y-123921000D01*
X249402000Y-125561000D02*
X249402000Y-123921000D01*
X250602000Y-123021000D02*
X249402000Y-123021000D01*
X250602000Y-121380000D02*
X249402000Y-121380000D01*
X250602000Y-123021000D02*
X250602000Y-121380000D01*
X249402000Y-123021000D02*
X249402000Y-121380000D01*
X250602000Y-120480000D02*
X249402000Y-120480000D01*
X250602000Y-118841000D02*
X249402000Y-118841000D01*
X250602000Y-120480000D02*
X250602000Y-118841000D01*
X249402000Y-120480000D02*
X249402000Y-118841000D01*
X250602000Y-117940000D02*
X249402000Y-117940000D01*
X250602000Y-116300000D02*
X249402000Y-116300000D01*
X250602000Y-117940000D02*
X250602000Y-116300000D01*
X249402000Y-117940000D02*
X249402000Y-116300000D01*
X250602000Y-115401000D02*
X249402000Y-115401000D01*
X250602000Y-113761000D02*
X249402000Y-113761000D01*
X250602000Y-115401000D02*
X250602000Y-113761000D01*
X249402000Y-115401000D02*
X249402000Y-113761000D01*
X250602000Y-112861000D02*
X249402000Y-112861000D01*
X250602000Y-111221000D02*
X249402000Y-111221000D01*
X250602000Y-112861000D02*
X250602000Y-111221000D01*
X249402000Y-112861000D02*
X249402000Y-111221000D01*
X250602000Y-110321000D02*
X249402000Y-110321000D01*
X250602000Y-108681000D02*
X249402000Y-108681000D01*
X250602000Y-110321000D02*
X250602000Y-108681000D01*
X249402000Y-110321000D02*
X249402000Y-108681000D01*
X250602000Y-107781000D02*
X249402000Y-107781000D01*
X250602000Y-106141000D02*
X249402000Y-106141000D01*
X250602000Y-107781000D02*
X250602000Y-106141000D01*
X249402000Y-107781000D02*
X249402000Y-106141000D01*
X187355200Y-125888000D02*
X185115200Y-125888000D01*
X187355200Y-126128000D02*
X185115200Y-126128000D01*
X187355200Y-126008000D02*
X185115200Y-126008000D01*
X186235200Y-130178000D02*
X186235200Y-129528000D01*
X186235200Y-124638000D02*
X186235200Y-125288000D01*
X187355200Y-129528000D02*
X187355200Y-125288000D01*
X185115200Y-129528000D02*
X187355200Y-129528000D01*
X185115200Y-125288000D02*
X185115200Y-129528000D01*
X187355200Y-125288000D02*
X185115200Y-125288000D01*
X192435200Y-125888000D02*
X190195200Y-125888000D01*
X192435200Y-126128000D02*
X190195200Y-126128000D01*
X192435200Y-126008000D02*
X190195200Y-126008000D01*
X191315200Y-130178000D02*
X191315200Y-129528000D01*
X191315200Y-124638000D02*
X191315200Y-125288000D01*
X192435200Y-129528000D02*
X192435200Y-125288000D01*
X190195200Y-129528000D02*
X192435200Y-129528000D01*
X190195200Y-125288000D02*
X190195200Y-129528000D01*
X192435200Y-125288000D02*
X190195200Y-125288000D01*
X197515200Y-125888000D02*
X195275200Y-125888000D01*
X197515200Y-126128000D02*
X195275200Y-126128000D01*
X197515200Y-126008000D02*
X195275200Y-126008000D01*
X196395200Y-130178000D02*
X196395200Y-129528000D01*
X196395200Y-124638000D02*
X196395200Y-125288000D01*
X197515200Y-129528000D02*
X197515200Y-125288000D01*
X195275200Y-129528000D02*
X197515200Y-129528000D01*
X195275200Y-125288000D02*
X195275200Y-129528000D01*
X197515200Y-125288000D02*
X195275200Y-125288000D01*
X202595200Y-125888000D02*
X200355200Y-125888000D01*
X202595200Y-126128000D02*
X200355200Y-126128000D01*
X202595200Y-126008000D02*
X200355200Y-126008000D01*
X201475200Y-130178000D02*
X201475200Y-129528000D01*
X201475200Y-124638000D02*
X201475200Y-125288000D01*
X202595200Y-129528000D02*
X202595200Y-125288000D01*
X200355200Y-129528000D02*
X202595200Y-129528000D01*
X200355200Y-125288000D02*
X200355200Y-129528000D01*
X202595200Y-125288000D02*
X200355200Y-125288000D01*
X189895200Y-125888000D02*
X187655200Y-125888000D01*
X189895200Y-126128000D02*
X187655200Y-126128000D01*
X189895200Y-126008000D02*
X187655200Y-126008000D01*
X188775200Y-130178000D02*
X188775200Y-129528000D01*
X188775200Y-124638000D02*
X188775200Y-125288000D01*
X189895200Y-129528000D02*
X189895200Y-125288000D01*
X187655200Y-129528000D02*
X189895200Y-129528000D01*
X187655200Y-125288000D02*
X187655200Y-129528000D01*
X189895200Y-125288000D02*
X187655200Y-125288000D01*
X194975200Y-125888000D02*
X192735200Y-125888000D01*
X194975200Y-126128000D02*
X192735200Y-126128000D01*
X194975200Y-126008000D02*
X192735200Y-126008000D01*
X193855200Y-130178000D02*
X193855200Y-129528000D01*
X193855200Y-124638000D02*
X193855200Y-125288000D01*
X194975200Y-129528000D02*
X194975200Y-125288000D01*
X192735200Y-129528000D02*
X194975200Y-129528000D01*
X192735200Y-125288000D02*
X192735200Y-129528000D01*
X194975200Y-125288000D02*
X192735200Y-125288000D01*
X200055200Y-125888000D02*
X197815200Y-125888000D01*
X200055200Y-126128000D02*
X197815200Y-126128000D01*
X200055200Y-126008000D02*
X197815200Y-126008000D01*
X198935200Y-130178000D02*
X198935200Y-129528000D01*
X198935200Y-124638000D02*
X198935200Y-125288000D01*
X200055200Y-129528000D02*
X200055200Y-125288000D01*
X197815200Y-129528000D02*
X200055200Y-129528000D01*
X197815200Y-125288000D02*
X197815200Y-129528000D01*
X200055200Y-125288000D02*
X197815200Y-125288000D01*
X205135200Y-125888000D02*
X202895200Y-125888000D01*
X205135200Y-126128000D02*
X202895200Y-126128000D01*
X205135200Y-126008000D02*
X202895200Y-126008000D01*
X204015200Y-130178000D02*
X204015200Y-129528000D01*
X204015200Y-124638000D02*
X204015200Y-125288000D01*
X205135200Y-129528000D02*
X205135200Y-125288000D01*
X202895200Y-129528000D02*
X205135200Y-129528000D01*
X202895200Y-125288000D02*
X202895200Y-129528000D01*
X205135200Y-125288000D02*
X202895200Y-125288000D01*
X173416000Y-127976000D02*
X173416000Y-120236000D01*
X173416000Y-120236000D02*
X170756000Y-120236000D01*
X170756000Y-120236000D02*
X170756000Y-127976000D01*
X170756000Y-127976000D02*
X173416000Y-127976000D01*
X170756000Y-127026000D02*
X164756000Y-127026000D01*
X164756000Y-127026000D02*
X164756000Y-126266000D01*
X164756000Y-126266000D02*
X170756000Y-126266000D01*
X170756000Y-126966000D02*
X164756000Y-126966000D01*
X170756000Y-126846000D02*
X164756000Y-126846000D01*
X170756000Y-126726000D02*
X164756000Y-126726000D01*
X170756000Y-126606000D02*
X164756000Y-126606000D01*
X170756000Y-126486000D02*
X164756000Y-126486000D01*
X170756000Y-126366000D02*
X164756000Y-126366000D01*
X173813071Y-127026000D02*
X173416000Y-127026000D01*
X173813071Y-126266000D02*
X173416000Y-126266000D01*
X176286000Y-127026000D02*
X175898929Y-127026000D01*
X176286000Y-126266000D02*
X175898929Y-126266000D01*
X173416000Y-125376000D02*
X170756000Y-125376000D01*
X170756000Y-124486000D02*
X164756000Y-124486000D01*
X164756000Y-124486000D02*
X164756000Y-123726000D01*
X164756000Y-123726000D02*
X170756000Y-123726000D01*
X173813071Y-124486000D02*
X173416000Y-124486000D01*
X173813071Y-123726000D02*
X173416000Y-123726000D01*
X176353071Y-124486000D02*
X175898929Y-124486000D01*
X176353071Y-123726000D02*
X175898929Y-123726000D01*
X173416000Y-122836000D02*
X170756000Y-122836000D01*
X170756000Y-121946000D02*
X164756000Y-121946000D01*
X164756000Y-121946000D02*
X164756000Y-121186000D01*
X164756000Y-121186000D02*
X170756000Y-121186000D01*
X173813071Y-121946000D02*
X173416000Y-121946000D01*
X173813071Y-121186000D02*
X173416000Y-121186000D01*
X176353071Y-121946000D02*
X175898929Y-121946000D01*
X176353071Y-121186000D02*
X175898929Y-121186000D01*
X178666000Y-126646000D02*
X178666000Y-127916000D01*
X178666000Y-127916000D02*
X177396000Y-127916000D01*
X228867800Y-134119200D02*
X230125800Y-134119200D01*
X228867800Y-132279200D02*
X230125800Y-132279200D01*
X240501000Y-134119200D02*
X241759000Y-134119200D01*
X240501000Y-132279200D02*
X241759000Y-132279200D01*
X180667000Y-115837000D02*
X180667000Y-117095000D01*
X182507000Y-115837000D02*
X182507000Y-117095000D01*
X208923000Y-144313000D02*
X208923000Y-143055000D01*
X207083000Y-144313000D02*
X207083000Y-143055000D01*
X240099200Y-155712800D02*
G75*
G02X242099200Y-155712800I1000000J0D01*
G01*
X242099200Y-155712800D02*
X243749200Y-155712800D01*
X243749200Y-155712800D02*
X243749200Y-135272800D01*
X243749200Y-135272800D02*
X238449200Y-135272800D01*
X238449200Y-135272800D02*
X238449200Y-155712800D01*
X238449200Y-155712800D02*
X240099200Y-155712800D01*
X224960800Y-155712800D02*
G75*
G02X226960800Y-155712800I1000000J0D01*
G01*
X226960800Y-155712800D02*
X228610800Y-155712800D01*
X228610800Y-155712800D02*
X228610800Y-135272800D01*
X228610800Y-135272800D02*
X223310800Y-135272800D01*
X223310800Y-135272800D02*
X223310800Y-155712800D01*
X223310800Y-155712800D02*
X224960800Y-155712800D01*
X247146000Y-91689000D02*
X249886000Y-91689000D01*
X249886000Y-91689000D02*
X249886000Y-85149000D01*
X249886000Y-85149000D02*
X247146000Y-85149000D01*
X247146000Y-85149000D02*
X247146000Y-91689000D01*
X248516000Y-92459000D02*
X248516000Y-91689000D01*
X248516000Y-84379000D02*
X248516000Y-85149000D01*
X184829000Y-106597000D02*
X184829000Y-108247000D01*
X220509000Y-106597000D02*
X184829000Y-106597000D01*
X220509000Y-111897000D02*
X220509000Y-106597000D01*
X184829000Y-111897000D02*
X220509000Y-111897000D01*
X184829000Y-110247000D02*
X184829000Y-111897000D01*
X184829000Y-108247000D02*
G75*
G02X184829000Y-110247000I0J-1000000D01*
G01*
X215171832Y-68420000D02*
X215171832Y-78700000D01*
X235731832Y-68420000D02*
X215171832Y-68420000D01*
X235731832Y-78700000D02*
X235731832Y-68420000D01*
X215171832Y-78700000D02*
X235731832Y-78700000D01*
X215231832Y-70910000D02*
X215231832Y-72560000D01*
X235671832Y-70910000D02*
X215231832Y-70910000D01*
X235671832Y-76210000D02*
X235671832Y-70910000D01*
X215231832Y-76210000D02*
X235671832Y-76210000D01*
X215231832Y-74560000D02*
X215231832Y-76210000D01*
X215231832Y-72560000D02*
G75*
G02X215231832Y-74560000I0J-1000000D01*
G01*
X174325000Y-162245000D02*
X172085000Y-162245000D01*
X172085000Y-162245000D02*
X172085000Y-166485000D01*
X172085000Y-166485000D02*
X174325000Y-166485000D01*
X174325000Y-166485000D02*
X174325000Y-162245000D01*
X173205000Y-161595000D02*
X173205000Y-162245000D01*
X173205000Y-167135000D02*
X173205000Y-166485000D01*
X174325000Y-162965000D02*
X172085000Y-162965000D01*
X174325000Y-163085000D02*
X172085000Y-163085000D01*
X174325000Y-162845000D02*
X172085000Y-162845000D01*
X180040000Y-162245000D02*
X177800000Y-162245000D01*
X177800000Y-162245000D02*
X177800000Y-166485000D01*
X177800000Y-166485000D02*
X180040000Y-166485000D01*
X180040000Y-166485000D02*
X180040000Y-162245000D01*
X178920000Y-161595000D02*
X178920000Y-162245000D01*
X178920000Y-167135000D02*
X178920000Y-166485000D01*
X180040000Y-162965000D02*
X177800000Y-162965000D01*
X180040000Y-163085000D02*
X177800000Y-163085000D01*
X180040000Y-162845000D02*
X177800000Y-162845000D01*
X202973800Y-156367000D02*
X202973800Y-153567000D01*
X182483800Y-156367000D02*
X205683800Y-156367000D01*
X182483800Y-153567000D02*
X182483800Y-156367000D01*
X205683800Y-153567000D02*
X182483800Y-153567000D01*
X205683800Y-156367000D02*
X205683800Y-153567000D01*
X183000166Y-68420000D02*
X183000166Y-78700000D01*
X203560166Y-68420000D02*
X183000166Y-68420000D01*
X203560166Y-78700000D02*
X203560166Y-68420000D01*
X183000166Y-78700000D02*
X203560166Y-78700000D01*
X183060166Y-70910000D02*
X183060166Y-72560000D01*
X203500166Y-70910000D02*
X183060166Y-70910000D01*
X203500166Y-76210000D02*
X203500166Y-70910000D01*
X183060166Y-76210000D02*
X203500166Y-76210000D01*
X183060166Y-74560000D02*
X183060166Y-76210000D01*
X183060166Y-72560000D02*
G75*
G02X183060166Y-74560000I0J-1000000D01*
G01*
D13*
X215186380Y-90363666D02*
X214710190Y-90697000D01*
X215186380Y-90935095D02*
X214186380Y-90935095D01*
X214186380Y-90554142D01*
X214234000Y-90458904D01*
X214281619Y-90411285D01*
X214376857Y-90363666D01*
X214519714Y-90363666D01*
X214614952Y-90411285D01*
X214662571Y-90458904D01*
X214710190Y-90554142D01*
X214710190Y-90935095D01*
X214186380Y-89506523D02*
X214186380Y-89697000D01*
X214234000Y-89792238D01*
X214281619Y-89839857D01*
X214424476Y-89935095D01*
X214614952Y-89982714D01*
X214995904Y-89982714D01*
X215091142Y-89935095D01*
X215138761Y-89887476D01*
X215186380Y-89792238D01*
X215186380Y-89601761D01*
X215138761Y-89506523D01*
X215091142Y-89458904D01*
X214995904Y-89411285D01*
X214757809Y-89411285D01*
X214662571Y-89458904D01*
X214614952Y-89506523D01*
X214567333Y-89601761D01*
X214567333Y-89792238D01*
X214614952Y-89887476D01*
X214662571Y-89935095D01*
X214757809Y-89982714D01*
X214392714Y-86934571D02*
X215059380Y-86934571D01*
X214011761Y-87172666D02*
X214726047Y-87410761D01*
X214726047Y-86791714D01*
X214964142Y-86410761D02*
X215011761Y-86363142D01*
X215059380Y-86410761D01*
X215011761Y-86458380D01*
X214964142Y-86410761D01*
X215059380Y-86410761D01*
X214059380Y-86029809D02*
X214059380Y-85363142D01*
X215059380Y-85791714D01*
X215059380Y-84982190D02*
X214059380Y-84982190D01*
X214678428Y-84886952D02*
X215059380Y-84601238D01*
X214392714Y-84601238D02*
X214773666Y-84982190D01*
X183027380Y-148235904D02*
X183836904Y-148235904D01*
X183932142Y-148188285D01*
X183979761Y-148140666D01*
X184027380Y-148045428D01*
X184027380Y-147854952D01*
X183979761Y-147759714D01*
X183932142Y-147712095D01*
X183836904Y-147664476D01*
X183027380Y-147664476D01*
X183122619Y-147235904D02*
X183075000Y-147188285D01*
X183027380Y-147093047D01*
X183027380Y-146854952D01*
X183075000Y-146759714D01*
X183122619Y-146712095D01*
X183217857Y-146664476D01*
X183313095Y-146664476D01*
X183455952Y-146712095D01*
X184027380Y-147283523D01*
X184027380Y-146664476D01*
X198914952Y-149339380D02*
X199581619Y-149339380D01*
X199153047Y-150339380D01*
X200391142Y-149672714D02*
X200391142Y-150339380D01*
X200153047Y-149291761D02*
X199914952Y-150006047D01*
X200534000Y-150006047D01*
X201391142Y-150339380D02*
X200914952Y-150339380D01*
X200914952Y-149339380D01*
X201676857Y-150291761D02*
X201819714Y-150339380D01*
X202057809Y-150339380D01*
X202153047Y-150291761D01*
X202200666Y-150244142D01*
X202248285Y-150148904D01*
X202248285Y-150053666D01*
X202200666Y-149958428D01*
X202153047Y-149910809D01*
X202057809Y-149863190D01*
X201867333Y-149815571D01*
X201772095Y-149767952D01*
X201724476Y-149720333D01*
X201676857Y-149625095D01*
X201676857Y-149529857D01*
X201724476Y-149434619D01*
X201772095Y-149387000D01*
X201867333Y-149339380D01*
X202105428Y-149339380D01*
X202248285Y-149387000D01*
X203200666Y-150339380D02*
X202629238Y-150339380D01*
X202914952Y-150339380D02*
X202914952Y-149339380D01*
X202819714Y-149482238D01*
X202724476Y-149577476D01*
X202629238Y-149625095D01*
X204057809Y-149339380D02*
X203867333Y-149339380D01*
X203772095Y-149387000D01*
X203724476Y-149434619D01*
X203629238Y-149577476D01*
X203581619Y-149767952D01*
X203581619Y-150148904D01*
X203629238Y-150244142D01*
X203676857Y-150291761D01*
X203772095Y-150339380D01*
X203962571Y-150339380D01*
X204057809Y-150291761D01*
X204105428Y-150244142D01*
X204153047Y-150148904D01*
X204153047Y-149910809D01*
X204105428Y-149815571D01*
X204057809Y-149767952D01*
X203962571Y-149720333D01*
X203772095Y-149720333D01*
X203676857Y-149767952D01*
X203629238Y-149815571D01*
X203581619Y-149910809D01*
X205010190Y-149339380D02*
X204819714Y-149339380D01*
X204724476Y-149387000D01*
X204676857Y-149434619D01*
X204581619Y-149577476D01*
X204534000Y-149767952D01*
X204534000Y-150148904D01*
X204581619Y-150244142D01*
X204629238Y-150291761D01*
X204724476Y-150339380D01*
X204914952Y-150339380D01*
X205010190Y-150291761D01*
X205057809Y-150244142D01*
X205105428Y-150148904D01*
X205105428Y-149910809D01*
X205057809Y-149815571D01*
X205010190Y-149767952D01*
X204914952Y-149720333D01*
X204724476Y-149720333D01*
X204629238Y-149767952D01*
X204581619Y-149815571D01*
X204534000Y-149910809D01*
X189929380Y-95657904D02*
X190738904Y-95657904D01*
X190834142Y-95610285D01*
X190881761Y-95562666D01*
X190929380Y-95467428D01*
X190929380Y-95276952D01*
X190881761Y-95181714D01*
X190834142Y-95134095D01*
X190738904Y-95086476D01*
X189929380Y-95086476D01*
X189929380Y-94134095D02*
X189929380Y-94610285D01*
X190405571Y-94657904D01*
X190357952Y-94610285D01*
X190310333Y-94515047D01*
X190310333Y-94276952D01*
X190357952Y-94181714D01*
X190405571Y-94134095D01*
X190500809Y-94086476D01*
X190738904Y-94086476D01*
X190834142Y-94134095D01*
X190881761Y-94181714D01*
X190929380Y-94276952D01*
X190929380Y-94515047D01*
X190881761Y-94610285D01*
X190834142Y-94657904D01*
X210503380Y-94998857D02*
X210503380Y-94332190D01*
X211503380Y-94760761D01*
X210836714Y-93522666D02*
X211503380Y-93522666D01*
X210455761Y-93760761D02*
X211170047Y-93998857D01*
X211170047Y-93379809D01*
X211503380Y-92522666D02*
X211503380Y-92998857D01*
X210503380Y-92998857D01*
X211455761Y-92236952D02*
X211503380Y-92094095D01*
X211503380Y-91856000D01*
X211455761Y-91760761D01*
X211408142Y-91713142D01*
X211312904Y-91665523D01*
X211217666Y-91665523D01*
X211122428Y-91713142D01*
X211074809Y-91760761D01*
X211027190Y-91856000D01*
X210979571Y-92046476D01*
X210931952Y-92141714D01*
X210884333Y-92189333D01*
X210789095Y-92236952D01*
X210693857Y-92236952D01*
X210598619Y-92189333D01*
X210551000Y-92141714D01*
X210503380Y-92046476D01*
X210503380Y-91808380D01*
X210551000Y-91665523D01*
X210503380Y-91046476D02*
X210503380Y-90951238D01*
X210551000Y-90856000D01*
X210598619Y-90808380D01*
X210693857Y-90760761D01*
X210884333Y-90713142D01*
X211122428Y-90713142D01*
X211312904Y-90760761D01*
X211408142Y-90808380D01*
X211455761Y-90856000D01*
X211503380Y-90951238D01*
X211503380Y-91046476D01*
X211455761Y-91141714D01*
X211408142Y-91189333D01*
X211312904Y-91236952D01*
X211122428Y-91284571D01*
X210884333Y-91284571D01*
X210693857Y-91236952D01*
X210598619Y-91189333D01*
X210551000Y-91141714D01*
X210503380Y-91046476D01*
X210503380Y-90379809D02*
X210503380Y-89713142D01*
X211503380Y-90141714D01*
X198565333Y-165622380D02*
X198232000Y-165146190D01*
X197993904Y-165622380D02*
X197993904Y-164622380D01*
X198374857Y-164622380D01*
X198470095Y-164670000D01*
X198517714Y-164717619D01*
X198565333Y-164812857D01*
X198565333Y-164955714D01*
X198517714Y-165050952D01*
X198470095Y-165098571D01*
X198374857Y-165146190D01*
X197993904Y-165146190D01*
X198946285Y-164717619D02*
X198993904Y-164670000D01*
X199089142Y-164622380D01*
X199327238Y-164622380D01*
X199422476Y-164670000D01*
X199470095Y-164717619D01*
X199517714Y-164812857D01*
X199517714Y-164908095D01*
X199470095Y-165050952D01*
X198898666Y-165622380D01*
X199517714Y-165622380D01*
X164037380Y-70524333D02*
X164751666Y-70524333D01*
X164894523Y-70571952D01*
X164989761Y-70667190D01*
X165037380Y-70810047D01*
X165037380Y-70905285D01*
X164370714Y-69619571D02*
X165037380Y-69619571D01*
X163989761Y-69857666D02*
X164704047Y-70095761D01*
X164704047Y-69476714D01*
X245082180Y-96078666D02*
X244605990Y-96412000D01*
X245082180Y-96650095D02*
X244082180Y-96650095D01*
X244082180Y-96269142D01*
X244129800Y-96173904D01*
X244177419Y-96126285D01*
X244272657Y-96078666D01*
X244415514Y-96078666D01*
X244510752Y-96126285D01*
X244558371Y-96173904D01*
X244605990Y-96269142D01*
X244605990Y-96650095D01*
X244415514Y-95221523D02*
X245082180Y-95221523D01*
X244034561Y-95459619D02*
X244748847Y-95697714D01*
X244748847Y-95078666D01*
X188167142Y-94300666D02*
X188214761Y-94348285D01*
X188262380Y-94491142D01*
X188262380Y-94586380D01*
X188214761Y-94729238D01*
X188119523Y-94824476D01*
X188024285Y-94872095D01*
X187833809Y-94919714D01*
X187690952Y-94919714D01*
X187500476Y-94872095D01*
X187405238Y-94824476D01*
X187310000Y-94729238D01*
X187262380Y-94586380D01*
X187262380Y-94491142D01*
X187310000Y-94348285D01*
X187357619Y-94300666D01*
X187262380Y-93395904D02*
X187262380Y-93872095D01*
X187738571Y-93919714D01*
X187690952Y-93872095D01*
X187643333Y-93776857D01*
X187643333Y-93538761D01*
X187690952Y-93443523D01*
X187738571Y-93395904D01*
X187833809Y-93348285D01*
X188071904Y-93348285D01*
X188167142Y-93395904D01*
X188214761Y-93443523D01*
X188262380Y-93538761D01*
X188262380Y-93776857D01*
X188214761Y-93872095D01*
X188167142Y-93919714D01*
X185212380Y-95141809D02*
X185212380Y-95046571D01*
X185260000Y-94951333D01*
X185307619Y-94903714D01*
X185402857Y-94856095D01*
X185593333Y-94808476D01*
X185831428Y-94808476D01*
X186021904Y-94856095D01*
X186117142Y-94903714D01*
X186164761Y-94951333D01*
X186212380Y-95046571D01*
X186212380Y-95141809D01*
X186164761Y-95237047D01*
X186117142Y-95284666D01*
X186021904Y-95332285D01*
X185831428Y-95379904D01*
X185593333Y-95379904D01*
X185402857Y-95332285D01*
X185307619Y-95284666D01*
X185260000Y-95237047D01*
X185212380Y-95141809D01*
X186117142Y-94379904D02*
X186164761Y-94332285D01*
X186212380Y-94379904D01*
X186164761Y-94427523D01*
X186117142Y-94379904D01*
X186212380Y-94379904D01*
X186212380Y-93379904D02*
X186212380Y-93951333D01*
X186212380Y-93665619D02*
X185212380Y-93665619D01*
X185355238Y-93760857D01*
X185450476Y-93856095D01*
X185498095Y-93951333D01*
X185545714Y-91760857D02*
X186212380Y-91760857D01*
X185545714Y-92189428D02*
X186069523Y-92189428D01*
X186164761Y-92141809D01*
X186212380Y-92046571D01*
X186212380Y-91903714D01*
X186164761Y-91808476D01*
X186117142Y-91760857D01*
X185688571Y-90951333D02*
X185688571Y-91284666D01*
X186212380Y-91284666D02*
X185212380Y-91284666D01*
X185212380Y-90808476D01*
X191199333Y-160435880D02*
X190866000Y-159959690D01*
X190627904Y-160435880D02*
X190627904Y-159435880D01*
X191008857Y-159435880D01*
X191104095Y-159483500D01*
X191151714Y-159531119D01*
X191199333Y-159626357D01*
X191199333Y-159769214D01*
X191151714Y-159864452D01*
X191104095Y-159912071D01*
X191008857Y-159959690D01*
X190627904Y-159959690D01*
X192151714Y-160435880D02*
X191580285Y-160435880D01*
X191866000Y-160435880D02*
X191866000Y-159435880D01*
X191770761Y-159578738D01*
X191675523Y-159673976D01*
X191580285Y-159721595D01*
X217446980Y-150009085D02*
X216446980Y-150009085D01*
X216446980Y-149770990D01*
X216494600Y-149628133D01*
X216589838Y-149532895D01*
X216685076Y-149485276D01*
X216875552Y-149437657D01*
X217018409Y-149437657D01*
X217208885Y-149485276D01*
X217304123Y-149532895D01*
X217399361Y-149628133D01*
X217446980Y-149770990D01*
X217446980Y-150009085D01*
X217446980Y-148485276D02*
X217446980Y-149056704D01*
X217446980Y-148770990D02*
X216446980Y-148770990D01*
X216589838Y-148866228D01*
X216685076Y-148961466D01*
X216732695Y-149056704D01*
X216542219Y-148104323D02*
X216494600Y-148056704D01*
X216446980Y-147961466D01*
X216446980Y-147723371D01*
X216494600Y-147628133D01*
X216542219Y-147580514D01*
X216637457Y-147532895D01*
X216732695Y-147532895D01*
X216875552Y-147580514D01*
X217446980Y-148151942D01*
X217446980Y-147532895D01*
X218869380Y-149532895D02*
X217869380Y-149532895D01*
X217869380Y-149294800D01*
X217917000Y-149151942D01*
X218012238Y-149056704D01*
X218107476Y-149009085D01*
X218297952Y-148961466D01*
X218440809Y-148961466D01*
X218631285Y-149009085D01*
X218726523Y-149056704D01*
X218821761Y-149151942D01*
X218869380Y-149294800D01*
X218869380Y-149532895D01*
X217869380Y-148628133D02*
X217869380Y-148009085D01*
X218250333Y-148342419D01*
X218250333Y-148199561D01*
X218297952Y-148104323D01*
X218345571Y-148056704D01*
X218440809Y-148009085D01*
X218678904Y-148009085D01*
X218774142Y-148056704D01*
X218821761Y-148104323D01*
X218869380Y-148199561D01*
X218869380Y-148485276D01*
X218821761Y-148580514D01*
X218774142Y-148628133D01*
X191199333Y-164309380D02*
X190866000Y-163833190D01*
X190627904Y-164309380D02*
X190627904Y-163309380D01*
X191008857Y-163309380D01*
X191104095Y-163357000D01*
X191151714Y-163404619D01*
X191199333Y-163499857D01*
X191199333Y-163642714D01*
X191151714Y-163737952D01*
X191104095Y-163785571D01*
X191008857Y-163833190D01*
X190627904Y-163833190D01*
X192104095Y-163309380D02*
X191627904Y-163309380D01*
X191580285Y-163785571D01*
X191627904Y-163737952D01*
X191723142Y-163690333D01*
X191961238Y-163690333D01*
X192056476Y-163737952D01*
X192104095Y-163785571D01*
X192151714Y-163880809D01*
X192151714Y-164118904D01*
X192104095Y-164214142D01*
X192056476Y-164261761D01*
X191961238Y-164309380D01*
X191723142Y-164309380D01*
X191627904Y-164261761D01*
X191580285Y-164214142D01*
X197446285Y-165552380D02*
X198065333Y-165552380D01*
X197732000Y-165933333D01*
X197874857Y-165933333D01*
X197970095Y-165980952D01*
X198017714Y-166028571D01*
X198065333Y-166123809D01*
X198065333Y-166361904D01*
X198017714Y-166457142D01*
X197970095Y-166504761D01*
X197874857Y-166552380D01*
X197589142Y-166552380D01*
X197493904Y-166504761D01*
X197446285Y-166457142D01*
X198398666Y-165552380D02*
X199017714Y-165552380D01*
X198684380Y-165933333D01*
X198827238Y-165933333D01*
X198922476Y-165980952D01*
X198970095Y-166028571D01*
X199017714Y-166123809D01*
X199017714Y-166361904D01*
X198970095Y-166457142D01*
X198922476Y-166504761D01*
X198827238Y-166552380D01*
X198541523Y-166552380D01*
X198446285Y-166504761D01*
X198398666Y-166457142D01*
X199636761Y-165552380D02*
X199732000Y-165552380D01*
X199827238Y-165600000D01*
X199874857Y-165647619D01*
X199922476Y-165742857D01*
X199970095Y-165933333D01*
X199970095Y-166171428D01*
X199922476Y-166361904D01*
X199874857Y-166457142D01*
X199827238Y-166504761D01*
X199732000Y-166552380D01*
X199636761Y-166552380D01*
X199541523Y-166504761D01*
X199493904Y-166457142D01*
X199446285Y-166361904D01*
X199398666Y-166171428D01*
X199398666Y-165933333D01*
X199446285Y-165742857D01*
X199493904Y-165647619D01*
X199541523Y-165600000D01*
X199636761Y-165552380D01*
X176375180Y-159038785D02*
X175375180Y-159038785D01*
X175375180Y-158800690D01*
X175422800Y-158657833D01*
X175518038Y-158562595D01*
X175613276Y-158514976D01*
X175803752Y-158467357D01*
X175946609Y-158467357D01*
X176137085Y-158514976D01*
X176232323Y-158562595D01*
X176327561Y-158657833D01*
X176375180Y-158800690D01*
X176375180Y-159038785D01*
X175470419Y-158086404D02*
X175422800Y-158038785D01*
X175375180Y-157943547D01*
X175375180Y-157705452D01*
X175422800Y-157610214D01*
X175470419Y-157562595D01*
X175565657Y-157514976D01*
X175660895Y-157514976D01*
X175803752Y-157562595D01*
X176375180Y-158134023D01*
X176375180Y-157514976D01*
X175375180Y-157181642D02*
X175375180Y-156562595D01*
X175756133Y-156895928D01*
X175756133Y-156753071D01*
X175803752Y-156657833D01*
X175851371Y-156610214D01*
X175946609Y-156562595D01*
X176184704Y-156562595D01*
X176279942Y-156610214D01*
X176327561Y-156657833D01*
X176375180Y-156753071D01*
X176375180Y-157038785D01*
X176327561Y-157134023D01*
X176279942Y-157181642D01*
X209765166Y-177914380D02*
X209765166Y-178628666D01*
X209717547Y-178771523D01*
X209622309Y-178866761D01*
X209479452Y-178914380D01*
X209384214Y-178914380D01*
X210669928Y-177914380D02*
X210479452Y-177914380D01*
X210384214Y-177962000D01*
X210336595Y-178009619D01*
X210241357Y-178152476D01*
X210193738Y-178342952D01*
X210193738Y-178723904D01*
X210241357Y-178819142D01*
X210288976Y-178866761D01*
X210384214Y-178914380D01*
X210574690Y-178914380D01*
X210669928Y-178866761D01*
X210717547Y-178819142D01*
X210765166Y-178723904D01*
X210765166Y-178485809D01*
X210717547Y-178390571D01*
X210669928Y-178342952D01*
X210574690Y-178295333D01*
X210384214Y-178295333D01*
X210288976Y-178342952D01*
X210241357Y-178390571D01*
X210193738Y-178485809D01*
X212115023Y-178914380D02*
X212115023Y-177914380D01*
X212686452Y-178914380D02*
X212257880Y-178342952D01*
X212686452Y-177914380D02*
X212115023Y-178485809D01*
X213495976Y-178866761D02*
X213400738Y-178914380D01*
X213210261Y-178914380D01*
X213115023Y-178866761D01*
X213067404Y-178771523D01*
X213067404Y-178390571D01*
X213115023Y-178295333D01*
X213210261Y-178247714D01*
X213400738Y-178247714D01*
X213495976Y-178295333D01*
X213543595Y-178390571D01*
X213543595Y-178485809D01*
X213067404Y-178581047D01*
X213876928Y-178247714D02*
X214115023Y-178914380D01*
X214353119Y-178247714D02*
X214115023Y-178914380D01*
X214019785Y-179152476D01*
X213972166Y-179200095D01*
X213876928Y-179247714D01*
X214734071Y-178914380D02*
X214734071Y-177914380D01*
X214734071Y-178295333D02*
X214829309Y-178247714D01*
X215019785Y-178247714D01*
X215115023Y-178295333D01*
X215162642Y-178342952D01*
X215210261Y-178438190D01*
X215210261Y-178723904D01*
X215162642Y-178819142D01*
X215115023Y-178866761D01*
X215019785Y-178914380D01*
X214829309Y-178914380D01*
X214734071Y-178866761D01*
X215781690Y-178914380D02*
X215686452Y-178866761D01*
X215638833Y-178819142D01*
X215591214Y-178723904D01*
X215591214Y-178438190D01*
X215638833Y-178342952D01*
X215686452Y-178295333D01*
X215781690Y-178247714D01*
X215924547Y-178247714D01*
X216019785Y-178295333D01*
X216067404Y-178342952D01*
X216115023Y-178438190D01*
X216115023Y-178723904D01*
X216067404Y-178819142D01*
X216019785Y-178866761D01*
X215924547Y-178914380D01*
X215781690Y-178914380D01*
X216972166Y-178914380D02*
X216972166Y-178390571D01*
X216924547Y-178295333D01*
X216829309Y-178247714D01*
X216638833Y-178247714D01*
X216543595Y-178295333D01*
X216972166Y-178866761D02*
X216876928Y-178914380D01*
X216638833Y-178914380D01*
X216543595Y-178866761D01*
X216495976Y-178771523D01*
X216495976Y-178676285D01*
X216543595Y-178581047D01*
X216638833Y-178533428D01*
X216876928Y-178533428D01*
X216972166Y-178485809D01*
X217448357Y-178914380D02*
X217448357Y-178247714D01*
X217448357Y-178438190D02*
X217495976Y-178342952D01*
X217543595Y-178295333D01*
X217638833Y-178247714D01*
X217734071Y-178247714D01*
X218495976Y-178914380D02*
X218495976Y-177914380D01*
X218495976Y-178866761D02*
X218400738Y-178914380D01*
X218210261Y-178914380D01*
X218115023Y-178866761D01*
X218067404Y-178819142D01*
X218019785Y-178723904D01*
X218019785Y-178438190D01*
X218067404Y-178342952D01*
X218115023Y-178295333D01*
X218210261Y-178247714D01*
X218400738Y-178247714D01*
X218495976Y-178295333D01*
X239332380Y-74274333D02*
X240046666Y-74274333D01*
X240189523Y-74321952D01*
X240284761Y-74417190D01*
X240332380Y-74560047D01*
X240332380Y-74655285D01*
X239332380Y-73893380D02*
X239332380Y-73274333D01*
X239713333Y-73607666D01*
X239713333Y-73464809D01*
X239760952Y-73369571D01*
X239808571Y-73321952D01*
X239903809Y-73274333D01*
X240141904Y-73274333D01*
X240237142Y-73321952D01*
X240284761Y-73369571D01*
X240332380Y-73464809D01*
X240332380Y-73750523D01*
X240284761Y-73845761D01*
X240237142Y-73893380D01*
X239459380Y-70329238D02*
X240268904Y-70329238D01*
X240364142Y-70281619D01*
X240411761Y-70234000D01*
X240459380Y-70138761D01*
X240459380Y-69948285D01*
X240411761Y-69853047D01*
X240364142Y-69805428D01*
X240268904Y-69757809D01*
X239459380Y-69757809D01*
X240173666Y-69329238D02*
X240173666Y-68853047D01*
X240459380Y-69424476D02*
X239459380Y-69091142D01*
X240459380Y-68757809D01*
X240459380Y-67853047D02*
X239983190Y-68186380D01*
X240459380Y-68424476D02*
X239459380Y-68424476D01*
X239459380Y-68043523D01*
X239507000Y-67948285D01*
X239554619Y-67900666D01*
X239649857Y-67853047D01*
X239792714Y-67853047D01*
X239887952Y-67900666D01*
X239935571Y-67948285D01*
X239983190Y-68043523D01*
X239983190Y-68424476D01*
X239459380Y-67567333D02*
X239459380Y-66995904D01*
X240459380Y-67281619D02*
X239459380Y-67281619D01*
X238216466Y-128752561D02*
X238359323Y-128800180D01*
X238597419Y-128800180D01*
X238692657Y-128752561D01*
X238740276Y-128704942D01*
X238787895Y-128609704D01*
X238787895Y-128514466D01*
X238740276Y-128419228D01*
X238692657Y-128371609D01*
X238597419Y-128323990D01*
X238406942Y-128276371D01*
X238311704Y-128228752D01*
X238264085Y-128181133D01*
X238216466Y-128085895D01*
X238216466Y-127990657D01*
X238264085Y-127895419D01*
X238311704Y-127847800D01*
X238406942Y-127800180D01*
X238645038Y-127800180D01*
X238787895Y-127847800D01*
X239121228Y-127800180D02*
X239359323Y-128800180D01*
X239549800Y-128085895D01*
X239740276Y-128800180D01*
X239978371Y-127800180D01*
X240883133Y-128800180D02*
X240311704Y-128800180D01*
X240597419Y-128800180D02*
X240597419Y-127800180D01*
X240502180Y-127943038D01*
X240406942Y-128038276D01*
X240311704Y-128085895D01*
X251092580Y-132608352D02*
X251092580Y-132417876D01*
X251140200Y-132322638D01*
X251235438Y-132227400D01*
X251425914Y-132179780D01*
X251759247Y-132179780D01*
X251949723Y-132227400D01*
X252044961Y-132322638D01*
X252092580Y-132417876D01*
X252092580Y-132608352D01*
X252044961Y-132703590D01*
X251949723Y-132798828D01*
X251759247Y-132846447D01*
X251425914Y-132846447D01*
X251235438Y-132798828D01*
X251140200Y-132703590D01*
X251092580Y-132608352D01*
X251425914Y-131751209D02*
X252425914Y-131751209D01*
X251473533Y-131751209D02*
X251425914Y-131655971D01*
X251425914Y-131465495D01*
X251473533Y-131370257D01*
X251521152Y-131322638D01*
X251616390Y-131275019D01*
X251902104Y-131275019D01*
X251997342Y-131322638D01*
X252044961Y-131370257D01*
X252092580Y-131465495D01*
X252092580Y-131655971D01*
X252044961Y-131751209D01*
X251425914Y-130989304D02*
X251425914Y-130608352D01*
X251092580Y-130846447D02*
X251949723Y-130846447D01*
X252044961Y-130798828D01*
X252092580Y-130703590D01*
X252092580Y-130608352D01*
X252092580Y-130275019D02*
X251425914Y-130275019D01*
X251092580Y-130275019D02*
X251140200Y-130322638D01*
X251187819Y-130275019D01*
X251140200Y-130227400D01*
X251092580Y-130275019D01*
X251187819Y-130275019D01*
X252092580Y-129655971D02*
X252044961Y-129751209D01*
X251997342Y-129798828D01*
X251902104Y-129846447D01*
X251616390Y-129846447D01*
X251521152Y-129798828D01*
X251473533Y-129751209D01*
X251425914Y-129655971D01*
X251425914Y-129513114D01*
X251473533Y-129417876D01*
X251521152Y-129370257D01*
X251616390Y-129322638D01*
X251902104Y-129322638D01*
X251997342Y-129370257D01*
X252044961Y-129417876D01*
X252092580Y-129513114D01*
X252092580Y-129655971D01*
X251425914Y-128894066D02*
X252092580Y-128894066D01*
X251521152Y-128894066D02*
X251473533Y-128846447D01*
X251425914Y-128751209D01*
X251425914Y-128608352D01*
X251473533Y-128513114D01*
X251568771Y-128465495D01*
X252092580Y-128465495D01*
X252044961Y-128036923D02*
X252092580Y-127941685D01*
X252092580Y-127751209D01*
X252044961Y-127655971D01*
X251949723Y-127608352D01*
X251902104Y-127608352D01*
X251806866Y-127655971D01*
X251759247Y-127751209D01*
X251759247Y-127894066D01*
X251711628Y-127989304D01*
X251616390Y-128036923D01*
X251568771Y-128036923D01*
X251473533Y-127989304D01*
X251425914Y-127894066D01*
X251425914Y-127751209D01*
X251473533Y-127655971D01*
X184350780Y-128368285D02*
X183350780Y-128368285D01*
X183350780Y-128130190D01*
X183398400Y-127987333D01*
X183493638Y-127892095D01*
X183588876Y-127844476D01*
X183779352Y-127796857D01*
X183922209Y-127796857D01*
X184112685Y-127844476D01*
X184207923Y-127892095D01*
X184303161Y-127987333D01*
X184350780Y-128130190D01*
X184350780Y-128368285D01*
X183446019Y-127415904D02*
X183398400Y-127368285D01*
X183350780Y-127273047D01*
X183350780Y-127034952D01*
X183398400Y-126939714D01*
X183446019Y-126892095D01*
X183541257Y-126844476D01*
X183636495Y-126844476D01*
X183779352Y-126892095D01*
X184350780Y-127463523D01*
X184350780Y-126844476D01*
X183350780Y-126511142D02*
X183350780Y-125844476D01*
X184350780Y-126273047D01*
X206702780Y-128368286D02*
X205702780Y-128368286D01*
X205702780Y-128130191D01*
X205750400Y-127987334D01*
X205845638Y-127892096D01*
X205940876Y-127844477D01*
X206131352Y-127796858D01*
X206274209Y-127796858D01*
X206464685Y-127844477D01*
X206559923Y-127892096D01*
X206655161Y-127987334D01*
X206702780Y-128130191D01*
X206702780Y-128368286D01*
X206702780Y-126844477D02*
X206702780Y-127415905D01*
X206702780Y-127130191D02*
X205702780Y-127130191D01*
X205845638Y-127225429D01*
X205940876Y-127320667D01*
X205988495Y-127415905D01*
X205702780Y-126511143D02*
X205702780Y-125844477D01*
X206702780Y-126273048D01*
X208226780Y-129296857D02*
X208226780Y-129868285D01*
X208226780Y-129582571D02*
X207226780Y-129582571D01*
X207369638Y-129677809D01*
X207464876Y-129773047D01*
X207512495Y-129868285D01*
X208226780Y-128868285D02*
X207226780Y-128868285D01*
X208226780Y-128296857D01*
X207226780Y-128296857D01*
X207560114Y-127392095D02*
X208226780Y-127392095D01*
X207179161Y-127630190D02*
X207893447Y-127868285D01*
X207893447Y-127249238D01*
X208226780Y-126344476D02*
X208226780Y-126915904D01*
X208226780Y-126630190D02*
X207226780Y-126630190D01*
X207369638Y-126725428D01*
X207464876Y-126820666D01*
X207512495Y-126915904D01*
X207560114Y-125487333D02*
X208226780Y-125487333D01*
X207179161Y-125725428D02*
X207893447Y-125963523D01*
X207893447Y-125344476D01*
X207655352Y-124820666D02*
X207607733Y-124915904D01*
X207560114Y-124963523D01*
X207464876Y-125011142D01*
X207417257Y-125011142D01*
X207322019Y-124963523D01*
X207274400Y-124915904D01*
X207226780Y-124820666D01*
X207226780Y-124630190D01*
X207274400Y-124534952D01*
X207322019Y-124487333D01*
X207417257Y-124439714D01*
X207464876Y-124439714D01*
X207560114Y-124487333D01*
X207607733Y-124534952D01*
X207655352Y-124630190D01*
X207655352Y-124820666D01*
X207702971Y-124915904D01*
X207750590Y-124963523D01*
X207845828Y-125011142D01*
X208036304Y-125011142D01*
X208131542Y-124963523D01*
X208179161Y-124915904D01*
X208226780Y-124820666D01*
X208226780Y-124630190D01*
X208179161Y-124534952D01*
X208131542Y-124487333D01*
X208036304Y-124439714D01*
X207845828Y-124439714D01*
X207750590Y-124487333D01*
X207702971Y-124534952D01*
X207655352Y-124630190D01*
X172566866Y-129501980D02*
X172566866Y-130216266D01*
X172519247Y-130359123D01*
X172424009Y-130454361D01*
X172281152Y-130501980D01*
X172185914Y-130501980D01*
X173519247Y-129501980D02*
X173043057Y-129501980D01*
X172995438Y-129978171D01*
X173043057Y-129930552D01*
X173138295Y-129882933D01*
X173376390Y-129882933D01*
X173471628Y-129930552D01*
X173519247Y-129978171D01*
X173566866Y-130073409D01*
X173566866Y-130311504D01*
X173519247Y-130406742D01*
X173471628Y-130454361D01*
X173376390Y-130501980D01*
X173138295Y-130501980D01*
X173043057Y-130454361D01*
X172995438Y-130406742D01*
X180489980Y-127986952D02*
X179489980Y-127986952D01*
X180442361Y-127558380D02*
X180489980Y-127415523D01*
X180489980Y-127177428D01*
X180442361Y-127082190D01*
X180394742Y-127034571D01*
X180299504Y-126986952D01*
X180204266Y-126986952D01*
X180109028Y-127034571D01*
X180061409Y-127082190D01*
X180013790Y-127177428D01*
X179966171Y-127367904D01*
X179918552Y-127463142D01*
X179870933Y-127510761D01*
X179775695Y-127558380D01*
X179680457Y-127558380D01*
X179585219Y-127510761D01*
X179537600Y-127463142D01*
X179489980Y-127367904D01*
X179489980Y-127129809D01*
X179537600Y-126986952D01*
X180489980Y-126558380D02*
X179489980Y-126558380D01*
X179489980Y-126177428D01*
X179537600Y-126082190D01*
X179585219Y-126034571D01*
X179680457Y-125986952D01*
X179823314Y-125986952D01*
X179918552Y-126034571D01*
X179966171Y-126082190D01*
X180013790Y-126177428D01*
X180013790Y-126558380D01*
X180489980Y-124796476D02*
X179489980Y-124796476D01*
X180489980Y-124367904D02*
X179966171Y-124367904D01*
X179870933Y-124415523D01*
X179823314Y-124510761D01*
X179823314Y-124653619D01*
X179870933Y-124748857D01*
X179918552Y-124796476D01*
X180442361Y-123510761D02*
X180489980Y-123606000D01*
X180489980Y-123796476D01*
X180442361Y-123891714D01*
X180347123Y-123939333D01*
X179966171Y-123939333D01*
X179870933Y-123891714D01*
X179823314Y-123796476D01*
X179823314Y-123606000D01*
X179870933Y-123510761D01*
X179966171Y-123463142D01*
X180061409Y-123463142D01*
X180156647Y-123939333D01*
X180489980Y-122606000D02*
X179966171Y-122606000D01*
X179870933Y-122653619D01*
X179823314Y-122748857D01*
X179823314Y-122939333D01*
X179870933Y-123034571D01*
X180442361Y-122606000D02*
X180489980Y-122701238D01*
X180489980Y-122939333D01*
X180442361Y-123034571D01*
X180347123Y-123082190D01*
X180251885Y-123082190D01*
X180156647Y-123034571D01*
X180109028Y-122939333D01*
X180109028Y-122701238D01*
X180061409Y-122606000D01*
X180489980Y-121701238D02*
X179489980Y-121701238D01*
X180442361Y-121701238D02*
X180489980Y-121796476D01*
X180489980Y-121986952D01*
X180442361Y-122082190D01*
X180394742Y-122129809D01*
X180299504Y-122177428D01*
X180013790Y-122177428D01*
X179918552Y-122129809D01*
X179870933Y-122082190D01*
X179823314Y-121986952D01*
X179823314Y-121796476D01*
X179870933Y-121701238D01*
X180442361Y-120844095D02*
X180489980Y-120939333D01*
X180489980Y-121129809D01*
X180442361Y-121225047D01*
X180347123Y-121272666D01*
X179966171Y-121272666D01*
X179870933Y-121225047D01*
X179823314Y-121129809D01*
X179823314Y-120939333D01*
X179870933Y-120844095D01*
X179966171Y-120796476D01*
X180061409Y-120796476D01*
X180156647Y-121272666D01*
X180489980Y-120367904D02*
X179823314Y-120367904D01*
X180013790Y-120367904D02*
X179918552Y-120320285D01*
X179870933Y-120272666D01*
X179823314Y-120177428D01*
X179823314Y-120082190D01*
X225870333Y-133099142D02*
X225822714Y-133146761D01*
X225679857Y-133194380D01*
X225584619Y-133194380D01*
X225441761Y-133146761D01*
X225346523Y-133051523D01*
X225298904Y-132956285D01*
X225251285Y-132765809D01*
X225251285Y-132622952D01*
X225298904Y-132432476D01*
X225346523Y-132337238D01*
X225441761Y-132242000D01*
X225584619Y-132194380D01*
X225679857Y-132194380D01*
X225822714Y-132242000D01*
X225870333Y-132289619D01*
X226203666Y-132194380D02*
X226822714Y-132194380D01*
X226489380Y-132575333D01*
X226632238Y-132575333D01*
X226727476Y-132622952D01*
X226775095Y-132670571D01*
X226822714Y-132765809D01*
X226822714Y-133003904D01*
X226775095Y-133099142D01*
X226727476Y-133146761D01*
X226632238Y-133194380D01*
X226346523Y-133194380D01*
X226251285Y-133146761D01*
X226203666Y-133099142D01*
X233284190Y-132702380D02*
X233379428Y-132702380D01*
X233474666Y-132750000D01*
X233522285Y-132797619D01*
X233569904Y-132892857D01*
X233617523Y-133083333D01*
X233617523Y-133321428D01*
X233569904Y-133511904D01*
X233522285Y-133607142D01*
X233474666Y-133654761D01*
X233379428Y-133702380D01*
X233284190Y-133702380D01*
X233188952Y-133654761D01*
X233141333Y-133607142D01*
X233093714Y-133511904D01*
X233046095Y-133321428D01*
X233046095Y-133083333D01*
X233093714Y-132892857D01*
X233141333Y-132797619D01*
X233188952Y-132750000D01*
X233284190Y-132702380D01*
X234046095Y-133607142D02*
X234093714Y-133654761D01*
X234046095Y-133702380D01*
X233998476Y-133654761D01*
X234046095Y-133607142D01*
X234046095Y-133702380D01*
X235046095Y-133702380D02*
X234474666Y-133702380D01*
X234760380Y-133702380D02*
X234760380Y-132702380D01*
X234665142Y-132845238D01*
X234569904Y-132940476D01*
X234474666Y-132988095D01*
X236665142Y-133035714D02*
X236665142Y-133702380D01*
X236236571Y-133035714D02*
X236236571Y-133559523D01*
X236284190Y-133654761D01*
X236379428Y-133702380D01*
X236522285Y-133702380D01*
X236617523Y-133654761D01*
X236665142Y-133607142D01*
X237474666Y-133178571D02*
X237141333Y-133178571D01*
X237141333Y-133702380D02*
X237141333Y-132702380D01*
X237617523Y-132702380D01*
X244666333Y-133861142D02*
X244618714Y-133908761D01*
X244475857Y-133956380D01*
X244380619Y-133956380D01*
X244237761Y-133908761D01*
X244142523Y-133813523D01*
X244094904Y-133718285D01*
X244047285Y-133527809D01*
X244047285Y-133384952D01*
X244094904Y-133194476D01*
X244142523Y-133099238D01*
X244237761Y-133004000D01*
X244380619Y-132956380D01*
X244475857Y-132956380D01*
X244618714Y-133004000D01*
X244666333Y-133051619D01*
X245523476Y-133289714D02*
X245523476Y-133956380D01*
X245285380Y-132908761D02*
X245047285Y-133623047D01*
X245666333Y-133623047D01*
X181182142Y-113223666D02*
X181229761Y-113271285D01*
X181277380Y-113414142D01*
X181277380Y-113509380D01*
X181229761Y-113652238D01*
X181134523Y-113747476D01*
X181039285Y-113795095D01*
X180848809Y-113842714D01*
X180705952Y-113842714D01*
X180515476Y-113795095D01*
X180420238Y-113747476D01*
X180325000Y-113652238D01*
X180277380Y-113509380D01*
X180277380Y-113414142D01*
X180325000Y-113271285D01*
X180372619Y-113223666D01*
X180372619Y-112842714D02*
X180325000Y-112795095D01*
X180277380Y-112699857D01*
X180277380Y-112461761D01*
X180325000Y-112366523D01*
X180372619Y-112318904D01*
X180467857Y-112271285D01*
X180563095Y-112271285D01*
X180705952Y-112318904D01*
X181277380Y-112890333D01*
X181277380Y-112271285D01*
X178753380Y-113683809D02*
X178753380Y-113588571D01*
X178801000Y-113493333D01*
X178848619Y-113445714D01*
X178943857Y-113398095D01*
X179134333Y-113350476D01*
X179372428Y-113350476D01*
X179562904Y-113398095D01*
X179658142Y-113445714D01*
X179705761Y-113493333D01*
X179753380Y-113588571D01*
X179753380Y-113683809D01*
X179705761Y-113779047D01*
X179658142Y-113826666D01*
X179562904Y-113874285D01*
X179372428Y-113921904D01*
X179134333Y-113921904D01*
X178943857Y-113874285D01*
X178848619Y-113826666D01*
X178801000Y-113779047D01*
X178753380Y-113683809D01*
X179658142Y-112921904D02*
X179705761Y-112874285D01*
X179753380Y-112921904D01*
X179705761Y-112969523D01*
X179658142Y-112921904D01*
X179753380Y-112921904D01*
X179753380Y-111921904D02*
X179753380Y-112493333D01*
X179753380Y-112207619D02*
X178753380Y-112207619D01*
X178896238Y-112302857D01*
X178991476Y-112398095D01*
X179039095Y-112493333D01*
X179086714Y-110302857D02*
X179753380Y-110302857D01*
X179086714Y-110731428D02*
X179610523Y-110731428D01*
X179705761Y-110683809D01*
X179753380Y-110588571D01*
X179753380Y-110445714D01*
X179705761Y-110350476D01*
X179658142Y-110302857D01*
X179229571Y-109493333D02*
X179229571Y-109826666D01*
X179753380Y-109826666D02*
X178753380Y-109826666D01*
X178753380Y-109350476D01*
X208360142Y-140401666D02*
X208407761Y-140449285D01*
X208455380Y-140592142D01*
X208455380Y-140687380D01*
X208407761Y-140830238D01*
X208312523Y-140925476D01*
X208217285Y-140973095D01*
X208026809Y-141020714D01*
X207883952Y-141020714D01*
X207693476Y-140973095D01*
X207598238Y-140925476D01*
X207503000Y-140830238D01*
X207455380Y-140687380D01*
X207455380Y-140592142D01*
X207503000Y-140449285D01*
X207550619Y-140401666D01*
X208455380Y-139449285D02*
X208455380Y-140020714D01*
X208455380Y-139735000D02*
X207455380Y-139735000D01*
X207598238Y-139830238D01*
X207693476Y-139925476D01*
X207741095Y-140020714D01*
X209360380Y-144036809D02*
X209360380Y-143941571D01*
X209408000Y-143846333D01*
X209455619Y-143798714D01*
X209550857Y-143751095D01*
X209741333Y-143703476D01*
X209979428Y-143703476D01*
X210169904Y-143751095D01*
X210265142Y-143798714D01*
X210312761Y-143846333D01*
X210360380Y-143941571D01*
X210360380Y-144036809D01*
X210312761Y-144132047D01*
X210265142Y-144179666D01*
X210169904Y-144227285D01*
X209979428Y-144274904D01*
X209741333Y-144274904D01*
X209550857Y-144227285D01*
X209455619Y-144179666D01*
X209408000Y-144132047D01*
X209360380Y-144036809D01*
X210265142Y-143274904D02*
X210312761Y-143227285D01*
X210360380Y-143274904D01*
X210312761Y-143322523D01*
X210265142Y-143274904D01*
X210360380Y-143274904D01*
X210360380Y-142274904D02*
X210360380Y-142846333D01*
X210360380Y-142560619D02*
X209360380Y-142560619D01*
X209503238Y-142655857D01*
X209598476Y-142751095D01*
X209646095Y-142846333D01*
X209693714Y-140655857D02*
X210360380Y-140655857D01*
X209693714Y-141084428D02*
X210217523Y-141084428D01*
X210312761Y-141036809D01*
X210360380Y-140941571D01*
X210360380Y-140798714D01*
X210312761Y-140703476D01*
X210265142Y-140655857D01*
X209836571Y-139846333D02*
X209836571Y-140179666D01*
X210360380Y-140179666D02*
X209360380Y-140179666D01*
X209360380Y-139703476D01*
X245239495Y-156425980D02*
X245239495Y-157235504D01*
X245287114Y-157330742D01*
X245334733Y-157378361D01*
X245429971Y-157425980D01*
X245620447Y-157425980D01*
X245715685Y-157378361D01*
X245763304Y-157330742D01*
X245810923Y-157235504D01*
X245810923Y-156425980D01*
X246715685Y-156759314D02*
X246715685Y-157425980D01*
X246477590Y-156378361D02*
X246239495Y-157092647D01*
X246858542Y-157092647D01*
X235211552Y-156527580D02*
X235878219Y-156527580D01*
X235449647Y-157527580D01*
X236687742Y-156860914D02*
X236687742Y-157527580D01*
X236449647Y-156479961D02*
X236211552Y-157194247D01*
X236830600Y-157194247D01*
X237687742Y-157527580D02*
X237211552Y-157527580D01*
X237211552Y-156527580D01*
X237973457Y-157479961D02*
X238116314Y-157527580D01*
X238354409Y-157527580D01*
X238449647Y-157479961D01*
X238497266Y-157432342D01*
X238544885Y-157337104D01*
X238544885Y-157241866D01*
X238497266Y-157146628D01*
X238449647Y-157099009D01*
X238354409Y-157051390D01*
X238163933Y-157003771D01*
X238068695Y-156956152D01*
X238021076Y-156908533D01*
X237973457Y-156813295D01*
X237973457Y-156718057D01*
X238021076Y-156622819D01*
X238068695Y-156575200D01*
X238163933Y-156527580D01*
X238402028Y-156527580D01*
X238544885Y-156575200D01*
X239497266Y-157527580D02*
X238925838Y-157527580D01*
X239211552Y-157527580D02*
X239211552Y-156527580D01*
X239116314Y-156670438D01*
X239021076Y-156765676D01*
X238925838Y-156813295D01*
X239830600Y-156527580D02*
X240449647Y-156527580D01*
X240116314Y-156908533D01*
X240259171Y-156908533D01*
X240354409Y-156956152D01*
X240402028Y-157003771D01*
X240449647Y-157099009D01*
X240449647Y-157337104D01*
X240402028Y-157432342D01*
X240354409Y-157479961D01*
X240259171Y-157527580D01*
X239973457Y-157527580D01*
X239878219Y-157479961D01*
X239830600Y-157432342D01*
X241021076Y-156956152D02*
X240925838Y-156908533D01*
X240878219Y-156860914D01*
X240830600Y-156765676D01*
X240830600Y-156718057D01*
X240878219Y-156622819D01*
X240925838Y-156575200D01*
X241021076Y-156527580D01*
X241211552Y-156527580D01*
X241306790Y-156575200D01*
X241354409Y-156622819D01*
X241402028Y-156718057D01*
X241402028Y-156765676D01*
X241354409Y-156860914D01*
X241306790Y-156908533D01*
X241211552Y-156956152D01*
X241021076Y-156956152D01*
X240925838Y-157003771D01*
X240878219Y-157051390D01*
X240830600Y-157146628D01*
X240830600Y-157337104D01*
X240878219Y-157432342D01*
X240925838Y-157479961D01*
X241021076Y-157527580D01*
X241211552Y-157527580D01*
X241306790Y-157479961D01*
X241354409Y-157432342D01*
X241402028Y-157337104D01*
X241402028Y-157146628D01*
X241354409Y-157051390D01*
X241306790Y-157003771D01*
X241211552Y-156956152D01*
X221490495Y-156679980D02*
X221490495Y-157489504D01*
X221538114Y-157584742D01*
X221585733Y-157632361D01*
X221680971Y-157679980D01*
X221871447Y-157679980D01*
X221966685Y-157632361D01*
X222014304Y-157584742D01*
X222061923Y-157489504D01*
X222061923Y-156679980D01*
X222442876Y-156679980D02*
X223061923Y-156679980D01*
X222728590Y-157060933D01*
X222871447Y-157060933D01*
X222966685Y-157108552D01*
X223014304Y-157156171D01*
X223061923Y-157251409D01*
X223061923Y-157489504D01*
X223014304Y-157584742D01*
X222966685Y-157632361D01*
X222871447Y-157679980D01*
X222585733Y-157679980D01*
X222490495Y-157632361D01*
X222442876Y-157584742D01*
X225127752Y-156679980D02*
X225794419Y-156679980D01*
X225365847Y-157679980D01*
X226603942Y-157013314D02*
X226603942Y-157679980D01*
X226365847Y-156632361D02*
X226127752Y-157346647D01*
X226746800Y-157346647D01*
X227603942Y-157679980D02*
X227127752Y-157679980D01*
X227127752Y-156679980D01*
X227889657Y-157632361D02*
X228032514Y-157679980D01*
X228270609Y-157679980D01*
X228365847Y-157632361D01*
X228413466Y-157584742D01*
X228461085Y-157489504D01*
X228461085Y-157394266D01*
X228413466Y-157299028D01*
X228365847Y-157251409D01*
X228270609Y-157203790D01*
X228080133Y-157156171D01*
X227984895Y-157108552D01*
X227937276Y-157060933D01*
X227889657Y-156965695D01*
X227889657Y-156870457D01*
X227937276Y-156775219D01*
X227984895Y-156727600D01*
X228080133Y-156679980D01*
X228318228Y-156679980D01*
X228461085Y-156727600D01*
X229413466Y-157679980D02*
X228842038Y-157679980D01*
X229127752Y-157679980D02*
X229127752Y-156679980D01*
X229032514Y-156822838D01*
X228937276Y-156918076D01*
X228842038Y-156965695D01*
X229746800Y-156679980D02*
X230365847Y-156679980D01*
X230032514Y-157060933D01*
X230175371Y-157060933D01*
X230270609Y-157108552D01*
X230318228Y-157156171D01*
X230365847Y-157251409D01*
X230365847Y-157489504D01*
X230318228Y-157584742D01*
X230270609Y-157632361D01*
X230175371Y-157679980D01*
X229889657Y-157679980D01*
X229794419Y-157632361D01*
X229746800Y-157584742D01*
X230937276Y-157108552D02*
X230842038Y-157060933D01*
X230794419Y-157013314D01*
X230746800Y-156918076D01*
X230746800Y-156870457D01*
X230794419Y-156775219D01*
X230842038Y-156727600D01*
X230937276Y-156679980D01*
X231127752Y-156679980D01*
X231222990Y-156727600D01*
X231270609Y-156775219D01*
X231318228Y-156870457D01*
X231318228Y-156918076D01*
X231270609Y-157013314D01*
X231222990Y-157060933D01*
X231127752Y-157108552D01*
X230937276Y-157108552D01*
X230842038Y-157156171D01*
X230794419Y-157203790D01*
X230746800Y-157299028D01*
X230746800Y-157489504D01*
X230794419Y-157584742D01*
X230842038Y-157632361D01*
X230937276Y-157679980D01*
X231127752Y-157679980D01*
X231222990Y-157632361D01*
X231270609Y-157584742D01*
X231318228Y-157489504D01*
X231318228Y-157299028D01*
X231270609Y-157203790D01*
X231222990Y-157156171D01*
X231127752Y-157108552D01*
X248968380Y-95951666D02*
X248492190Y-96285000D01*
X248968380Y-96523095D02*
X247968380Y-96523095D01*
X247968380Y-96142142D01*
X248016000Y-96046904D01*
X248063619Y-95999285D01*
X248158857Y-95951666D01*
X248301714Y-95951666D01*
X248396952Y-95999285D01*
X248444571Y-96046904D01*
X248492190Y-96142142D01*
X248492190Y-96523095D01*
X247968380Y-95618333D02*
X247968380Y-94999285D01*
X248349333Y-95332619D01*
X248349333Y-95189761D01*
X248396952Y-95094523D01*
X248444571Y-95046904D01*
X248539809Y-94999285D01*
X248777904Y-94999285D01*
X248873142Y-95046904D01*
X248920761Y-95094523D01*
X248968380Y-95189761D01*
X248968380Y-95475476D01*
X248920761Y-95570714D01*
X248873142Y-95618333D01*
X250663914Y-88977704D02*
X251330580Y-88977704D01*
X250282961Y-89215800D02*
X250997247Y-89453895D01*
X250997247Y-88834847D01*
X250330580Y-88549133D02*
X250330580Y-87882466D01*
X251330580Y-88311038D01*
X250330580Y-87311038D02*
X250330580Y-87215800D01*
X250378200Y-87120561D01*
X250425819Y-87072942D01*
X250521057Y-87025323D01*
X250711533Y-86977704D01*
X250949628Y-86977704D01*
X251140104Y-87025323D01*
X251235342Y-87072942D01*
X251282961Y-87120561D01*
X251330580Y-87215800D01*
X251330580Y-87311038D01*
X251282961Y-87406276D01*
X251235342Y-87453895D01*
X251140104Y-87501514D01*
X250949628Y-87549133D01*
X250711533Y-87549133D01*
X250521057Y-87501514D01*
X250425819Y-87453895D01*
X250378200Y-87406276D01*
X250330580Y-87311038D01*
X183198380Y-113818904D02*
X184007904Y-113818904D01*
X184103142Y-113771285D01*
X184150761Y-113723666D01*
X184198380Y-113628428D01*
X184198380Y-113437952D01*
X184150761Y-113342714D01*
X184103142Y-113295095D01*
X184007904Y-113247476D01*
X183198380Y-113247476D01*
X184198380Y-112247476D02*
X184198380Y-112818904D01*
X184198380Y-112533190D02*
X183198380Y-112533190D01*
X183341238Y-112628428D01*
X183436476Y-112723666D01*
X183484095Y-112818904D01*
X185294380Y-103317666D02*
X185770571Y-103317666D01*
X185199142Y-103603380D02*
X185532476Y-102603380D01*
X185865809Y-103603380D01*
X186056285Y-102603380D02*
X186627714Y-102603380D01*
X186342000Y-103603380D02*
X186342000Y-102603380D01*
X186961047Y-103603380D02*
X186961047Y-102936714D01*
X186961047Y-103031952D02*
X187008666Y-102984333D01*
X187103904Y-102936714D01*
X187246761Y-102936714D01*
X187342000Y-102984333D01*
X187389619Y-103079571D01*
X187389619Y-103603380D01*
X187389619Y-103079571D02*
X187437238Y-102984333D01*
X187532476Y-102936714D01*
X187675333Y-102936714D01*
X187770571Y-102984333D01*
X187818190Y-103079571D01*
X187818190Y-103603380D01*
X188675333Y-103555761D02*
X188580095Y-103603380D01*
X188389619Y-103603380D01*
X188294380Y-103555761D01*
X188246761Y-103460523D01*
X188246761Y-103079571D01*
X188294380Y-102984333D01*
X188389619Y-102936714D01*
X188580095Y-102936714D01*
X188675333Y-102984333D01*
X188722952Y-103079571D01*
X188722952Y-103174809D01*
X188246761Y-103270047D01*
X189580095Y-102936714D02*
X189580095Y-103746238D01*
X189532476Y-103841476D01*
X189484857Y-103889095D01*
X189389619Y-103936714D01*
X189246761Y-103936714D01*
X189151523Y-103889095D01*
X189580095Y-103555761D02*
X189484857Y-103603380D01*
X189294380Y-103603380D01*
X189199142Y-103555761D01*
X189151523Y-103508142D01*
X189103904Y-103412904D01*
X189103904Y-103127190D01*
X189151523Y-103031952D01*
X189199142Y-102984333D01*
X189294380Y-102936714D01*
X189484857Y-102936714D01*
X189580095Y-102984333D01*
X190484857Y-103603380D02*
X190484857Y-103079571D01*
X190437238Y-102984333D01*
X190342000Y-102936714D01*
X190151523Y-102936714D01*
X190056285Y-102984333D01*
X190484857Y-103555761D02*
X190389619Y-103603380D01*
X190151523Y-103603380D01*
X190056285Y-103555761D01*
X190008666Y-103460523D01*
X190008666Y-103365285D01*
X190056285Y-103270047D01*
X190151523Y-103222428D01*
X190389619Y-103222428D01*
X190484857Y-103174809D01*
X190865809Y-102603380D02*
X191484857Y-102603380D01*
X191151523Y-102984333D01*
X191294380Y-102984333D01*
X191389619Y-103031952D01*
X191437238Y-103079571D01*
X191484857Y-103174809D01*
X191484857Y-103412904D01*
X191437238Y-103508142D01*
X191389619Y-103555761D01*
X191294380Y-103603380D01*
X191008666Y-103603380D01*
X190913428Y-103555761D01*
X190865809Y-103508142D01*
X191865809Y-102698619D02*
X191913428Y-102651000D01*
X192008666Y-102603380D01*
X192246761Y-102603380D01*
X192342000Y-102651000D01*
X192389619Y-102698619D01*
X192437238Y-102793857D01*
X192437238Y-102889095D01*
X192389619Y-103031952D01*
X191818190Y-103603380D01*
X192437238Y-103603380D01*
X193008666Y-103031952D02*
X192913428Y-102984333D01*
X192865809Y-102936714D01*
X192818190Y-102841476D01*
X192818190Y-102793857D01*
X192865809Y-102698619D01*
X192913428Y-102651000D01*
X193008666Y-102603380D01*
X193199142Y-102603380D01*
X193294380Y-102651000D01*
X193342000Y-102698619D01*
X193389619Y-102793857D01*
X193389619Y-102841476D01*
X193342000Y-102936714D01*
X193294380Y-102984333D01*
X193199142Y-103031952D01*
X193008666Y-103031952D01*
X192913428Y-103079571D01*
X192865809Y-103127190D01*
X192818190Y-103222428D01*
X192818190Y-103412904D01*
X192865809Y-103508142D01*
X192913428Y-103555761D01*
X193008666Y-103603380D01*
X193199142Y-103603380D01*
X193294380Y-103555761D01*
X193342000Y-103508142D01*
X193389619Y-103412904D01*
X193389619Y-103222428D01*
X193342000Y-103127190D01*
X193294380Y-103079571D01*
X193199142Y-103031952D01*
X193818190Y-103603380D02*
X193818190Y-102603380D01*
X194199142Y-102603380D01*
X194294380Y-102651000D01*
X194342000Y-102698619D01*
X194389619Y-102793857D01*
X194389619Y-102936714D01*
X194342000Y-103031952D01*
X194294380Y-103079571D01*
X194199142Y-103127190D01*
X193818190Y-103127190D01*
X213678380Y-69194333D02*
X214392666Y-69194333D01*
X214535523Y-69241952D01*
X214630761Y-69337190D01*
X214678380Y-69480047D01*
X214678380Y-69575285D01*
X214678380Y-68194333D02*
X214678380Y-68765761D01*
X214678380Y-68480047D02*
X213678380Y-68480047D01*
X213821238Y-68575285D01*
X213916476Y-68670523D01*
X213964095Y-68765761D01*
X223001095Y-66786666D02*
X223605857Y-66786666D01*
X222880142Y-67149523D02*
X223303476Y-65879523D01*
X223726809Y-67149523D01*
X224150142Y-66302857D02*
X224150142Y-67572857D01*
X224150142Y-66363333D02*
X224271095Y-66302857D01*
X224513000Y-66302857D01*
X224633952Y-66363333D01*
X224694428Y-66423809D01*
X224754904Y-66544761D01*
X224754904Y-66907619D01*
X224694428Y-67028571D01*
X224633952Y-67089047D01*
X224513000Y-67149523D01*
X224271095Y-67149523D01*
X224150142Y-67089047D01*
X225299190Y-66302857D02*
X225299190Y-67572857D01*
X225299190Y-66363333D02*
X225420142Y-66302857D01*
X225662047Y-66302857D01*
X225783000Y-66363333D01*
X225843476Y-66423809D01*
X225903952Y-66544761D01*
X225903952Y-66907619D01*
X225843476Y-67028571D01*
X225783000Y-67089047D01*
X225662047Y-67149523D01*
X225420142Y-67149523D01*
X225299190Y-67089047D01*
X226629666Y-67149523D02*
X226508714Y-67089047D01*
X226448238Y-66968095D01*
X226448238Y-65879523D01*
X227597285Y-67089047D02*
X227476333Y-67149523D01*
X227234428Y-67149523D01*
X227113476Y-67089047D01*
X227053000Y-66968095D01*
X227053000Y-66484285D01*
X227113476Y-66363333D01*
X227234428Y-66302857D01*
X227476333Y-66302857D01*
X227597285Y-66363333D01*
X227657761Y-66484285D01*
X227657761Y-66605238D01*
X227053000Y-66726190D01*
X229109190Y-66000476D02*
X229169666Y-65940000D01*
X229290619Y-65879523D01*
X229593000Y-65879523D01*
X229713952Y-65940000D01*
X229774428Y-66000476D01*
X229834904Y-66121428D01*
X229834904Y-66242380D01*
X229774428Y-66423809D01*
X229048714Y-67149523D01*
X229834904Y-67149523D01*
X173530380Y-159038785D02*
X172530380Y-159038785D01*
X172530380Y-158800690D01*
X172578000Y-158657833D01*
X172673238Y-158562595D01*
X172768476Y-158514976D01*
X172958952Y-158467357D01*
X173101809Y-158467357D01*
X173292285Y-158514976D01*
X173387523Y-158562595D01*
X173482761Y-158657833D01*
X173530380Y-158800690D01*
X173530380Y-159038785D01*
X172625619Y-158086404D02*
X172578000Y-158038785D01*
X172530380Y-157943547D01*
X172530380Y-157705452D01*
X172578000Y-157610214D01*
X172625619Y-157562595D01*
X172720857Y-157514976D01*
X172816095Y-157514976D01*
X172958952Y-157562595D01*
X173530380Y-158134023D01*
X173530380Y-157514976D01*
X172625619Y-157134023D02*
X172578000Y-157086404D01*
X172530380Y-156991166D01*
X172530380Y-156753071D01*
X172578000Y-156657833D01*
X172625619Y-156610214D01*
X172720857Y-156562595D01*
X172816095Y-156562595D01*
X172958952Y-156610214D01*
X173530380Y-157181642D01*
X173530380Y-156562595D01*
X179372380Y-159038785D02*
X178372380Y-159038785D01*
X178372380Y-158800690D01*
X178420000Y-158657833D01*
X178515238Y-158562595D01*
X178610476Y-158514976D01*
X178800952Y-158467357D01*
X178943809Y-158467357D01*
X179134285Y-158514976D01*
X179229523Y-158562595D01*
X179324761Y-158657833D01*
X179372380Y-158800690D01*
X179372380Y-159038785D01*
X178467619Y-158086404D02*
X178420000Y-158038785D01*
X178372380Y-157943547D01*
X178372380Y-157705452D01*
X178420000Y-157610214D01*
X178467619Y-157562595D01*
X178562857Y-157514976D01*
X178658095Y-157514976D01*
X178800952Y-157562595D01*
X179372380Y-158134023D01*
X179372380Y-157514976D01*
X179372380Y-156562595D02*
X179372380Y-157134023D01*
X179372380Y-156848309D02*
X178372380Y-156848309D01*
X178515238Y-156943547D01*
X178610476Y-157038785D01*
X178658095Y-157134023D01*
X171599980Y-166380857D02*
X171599980Y-166952285D01*
X171599980Y-166666571D02*
X170599980Y-166666571D01*
X170742838Y-166761809D01*
X170838076Y-166857047D01*
X170885695Y-166952285D01*
X171599980Y-165952285D02*
X170599980Y-165952285D01*
X171599980Y-165380857D01*
X170599980Y-165380857D01*
X170933314Y-164476095D02*
X171599980Y-164476095D01*
X170552361Y-164714190D02*
X171266647Y-164952285D01*
X171266647Y-164333238D01*
X171599980Y-163428476D02*
X171599980Y-163999904D01*
X171599980Y-163714190D02*
X170599980Y-163714190D01*
X170742838Y-163809428D01*
X170838076Y-163904666D01*
X170885695Y-163999904D01*
X170933314Y-162571333D02*
X171599980Y-162571333D01*
X170552361Y-162809428D02*
X171266647Y-163047523D01*
X171266647Y-162428476D01*
X171028552Y-161904666D02*
X170980933Y-161999904D01*
X170933314Y-162047523D01*
X170838076Y-162095142D01*
X170790457Y-162095142D01*
X170695219Y-162047523D01*
X170647600Y-161999904D01*
X170599980Y-161904666D01*
X170599980Y-161714190D01*
X170647600Y-161618952D01*
X170695219Y-161571333D01*
X170790457Y-161523714D01*
X170838076Y-161523714D01*
X170933314Y-161571333D01*
X170980933Y-161618952D01*
X171028552Y-161714190D01*
X171028552Y-161904666D01*
X171076171Y-161999904D01*
X171123790Y-162047523D01*
X171219028Y-162095142D01*
X171409504Y-162095142D01*
X171504742Y-162047523D01*
X171552361Y-161999904D01*
X171599980Y-161904666D01*
X171599980Y-161714190D01*
X171552361Y-161618952D01*
X171504742Y-161571333D01*
X171409504Y-161523714D01*
X171219028Y-161523714D01*
X171123790Y-161571333D01*
X171076171Y-161618952D01*
X171028552Y-161714190D01*
X183309523Y-157984780D02*
X182976190Y-157508590D01*
X182738095Y-157984780D02*
X182738095Y-156984780D01*
X183119047Y-156984780D01*
X183214285Y-157032400D01*
X183261904Y-157080019D01*
X183309523Y-157175257D01*
X183309523Y-157318114D01*
X183261904Y-157413352D01*
X183214285Y-157460971D01*
X183119047Y-157508590D01*
X182738095Y-157508590D01*
X183738095Y-157984780D02*
X183738095Y-156984780D01*
X184309523Y-157984780D01*
X184309523Y-156984780D01*
X185309523Y-157984780D02*
X184738095Y-157984780D01*
X185023809Y-157984780D02*
X185023809Y-156984780D01*
X184928571Y-157127638D01*
X184833333Y-157222876D01*
X184738095Y-157270495D01*
X186881428Y-157318114D02*
X186881428Y-157984780D01*
X186643333Y-156937161D02*
X186405238Y-157651447D01*
X187024285Y-157651447D01*
X187405238Y-157889542D02*
X187452857Y-157937161D01*
X187405238Y-157984780D01*
X187357619Y-157937161D01*
X187405238Y-157889542D01*
X187405238Y-157984780D01*
X187786190Y-156984780D02*
X188452857Y-156984780D01*
X188024285Y-157984780D01*
X188833809Y-157984780D02*
X188833809Y-156984780D01*
X188929047Y-157603828D02*
X189214761Y-157984780D01*
X189214761Y-157318114D02*
X188833809Y-157699066D01*
X181293380Y-69448333D02*
X182007666Y-69448333D01*
X182150523Y-69495952D01*
X182245761Y-69591190D01*
X182293380Y-69734047D01*
X182293380Y-69829285D01*
X181388619Y-69019761D02*
X181341000Y-68972142D01*
X181293380Y-68876904D01*
X181293380Y-68638809D01*
X181341000Y-68543571D01*
X181388619Y-68495952D01*
X181483857Y-68448333D01*
X181579095Y-68448333D01*
X181721952Y-68495952D01*
X182293380Y-69067380D01*
X182293380Y-68448333D01*
X189346095Y-66786666D02*
X189950857Y-66786666D01*
X189225142Y-67149523D02*
X189648476Y-65879523D01*
X190071809Y-67149523D01*
X190495142Y-66302857D02*
X190495142Y-67572857D01*
X190495142Y-66363333D02*
X190616095Y-66302857D01*
X190858000Y-66302857D01*
X190978952Y-66363333D01*
X191039428Y-66423809D01*
X191099904Y-66544761D01*
X191099904Y-66907619D01*
X191039428Y-67028571D01*
X190978952Y-67089047D01*
X190858000Y-67149523D01*
X190616095Y-67149523D01*
X190495142Y-67089047D01*
X191644190Y-66302857D02*
X191644190Y-67572857D01*
X191644190Y-66363333D02*
X191765142Y-66302857D01*
X192007047Y-66302857D01*
X192128000Y-66363333D01*
X192188476Y-66423809D01*
X192248952Y-66544761D01*
X192248952Y-66907619D01*
X192188476Y-67028571D01*
X192128000Y-67089047D01*
X192007047Y-67149523D01*
X191765142Y-67149523D01*
X191644190Y-67089047D01*
X192974666Y-67149523D02*
X192853714Y-67089047D01*
X192793238Y-66968095D01*
X192793238Y-65879523D01*
X193942285Y-67089047D02*
X193821333Y-67149523D01*
X193579428Y-67149523D01*
X193458476Y-67089047D01*
X193398000Y-66968095D01*
X193398000Y-66484285D01*
X193458476Y-66363333D01*
X193579428Y-66302857D01*
X193821333Y-66302857D01*
X193942285Y-66363333D01*
X194002761Y-66484285D01*
X194002761Y-66605238D01*
X193398000Y-66726190D01*
X196179904Y-67149523D02*
X195454190Y-67149523D01*
X195817047Y-67149523D02*
X195817047Y-65879523D01*
X195696095Y-66060952D01*
X195575142Y-66181904D01*
X195454190Y-66242380D01*
M02*
