M48
; DRILL file {KiCad (5.1.5-0-10_14)} date Saturday, January 04, 2020 at 04:27:14 AM
; FORMAT={-:-/ absolute / inch / decimal}
; #@! TF.CreationDate,2020-01-04T04:27:14-06:00
; #@! TF.GenerationSoftware,Kicad,Pcbnew,(5.1.5-0-10_14)
; #@! TF.FileFunction,Plated,1,2,PTH
FMAT,2
INCH
T1C0.0157
T2C0.0160
T3C0.0315
T4C0.0394
T5C0.0420
T6C0.0550
T7C0.0620
%
G90
G05
T1
X3.5937Y-5.4167
X5.1743Y-4.016
X5.2186Y-3.7875
X5.8498Y-5.4486
X6.6105Y-5.4164
X6.8025Y-3.78
X7.5364Y-3.8385
X8.1515Y-3.8336
X8.4744Y-4.0067
X8.7944Y-5.278
X9.4274Y-3.9706
X10.0225Y-5.4475
X10.283Y-5.4334
X10.392Y-5.3886
X10.7595Y-5.3104
X11.9175Y-6.085
X12.3512Y-5.375
X12.5064Y-5.4373
X12.5631Y-4.8218
X12.5752Y-4.2209
X13.8765Y-5.4593
X14.0328Y-5.6463
X14.3466Y-3.995
T2
X3.4387Y-4.1354
X5.0218Y-5.3844
X8.6181Y-6.2853
X9.1525Y-6.255
X10.085Y-6.4549
X10.134Y-6.4549
X11.67Y-6.2
X11.8672Y-4.6603
X11.8672Y-4.7528
X11.8796Y-5.3104
X11.94Y-6.295
X12.4762Y-6.1512
X12.675Y-5.32
X12.8941Y-3.2421
X13.285Y-5.3275
X13.3069Y-3.9821
X13.4189Y-4.875
X13.9567Y-5.4003
X14.067Y-4.7025
X14.294Y-4.0154
T3
X10.5747Y-3.3854
X10.5747Y-3.6854
X13.5747Y-3.392
X13.5747Y-3.692
X7.0077Y-5.6354
X7.0077Y-5.9354
X5.1327Y-4.8854
X5.1327Y-5.1854
X7.9387Y-4.1354
X7.9387Y-4.4354
X7.3827Y-4.8854
X7.3827Y-5.1854
X10.1887Y-4.1354
X10.1887Y-4.4354
X4.7577Y-5.6354
X4.7577Y-5.9354
X8.1657Y-6.3914
X8.1657Y-6.6914
X4.9387Y-4.1354
X4.9387Y-4.4354
X12.8247Y-3.3854
X12.8247Y-3.6854
X9.2577Y-5.6354
X9.2577Y-5.9354
X12.0747Y-3.3854
X12.0747Y-3.6854
X12.641Y-4.8854
X12.641Y-5.1854
X8.1327Y-4.8854
X8.1327Y-5.1854
X4.5747Y-3.3854
X4.5747Y-3.6854
X11.1327Y-4.8854
X11.1327Y-5.1854
X13.5683Y-4.1354
X13.5683Y-4.4354
X3.8247Y-3.3854
X3.8247Y-3.6854
X5.8827Y-4.8854
X5.8827Y-5.1854
X12.5412Y-5.6354
X12.5412Y-5.9354
X8.5077Y-5.6354
X8.5077Y-5.9354
X11.7832Y-4.1354
X11.7832Y-4.4354
X9.8247Y-3.3854
X9.8247Y-3.6854
X3.9132Y-5.6354
X3.9132Y-5.9354
X9.0747Y-3.3854
X9.0747Y-3.6854
X6.2577Y-5.6354
X6.2577Y-5.9354
X14.141Y-4.8854
X14.141Y-5.1854
X14.3183Y-4.1354
X14.3183Y-4.4354
X11.6022Y-5.6354
X11.6022Y-5.9354
X7.1887Y-4.1354
X7.1887Y-4.4354
X10.3827Y-4.8854
X10.3827Y-5.1854
X5.5077Y-5.6354
X5.5077Y-5.9354
X7.5747Y-3.3854
X7.5747Y-3.6854
X9.6327Y-4.8854
X9.6327Y-5.1854
X7.7577Y-5.6354
X7.7577Y-5.9354
X6.4387Y-4.1354
X6.4387Y-4.4354
X10.7577Y-5.6354
X10.7577Y-5.9354
X4.3827Y-4.8854
X4.3827Y-5.1854
X14.3247Y-3.392
X14.3247Y-3.692
X9.4387Y-4.1354
X9.4387Y-4.4354
X8.8827Y-4.8854
X8.8827Y-5.1854
X6.8247Y-3.3854
X6.8247Y-3.6854
X5.6887Y-4.1354
X5.6887Y-4.4354
X3.4387Y-4.1354
X3.4387Y-4.4354
X4.1887Y-4.1354
X4.1887Y-4.4354
X8.6887Y-4.1354
X8.6887Y-4.4354
X10.0077Y-5.6354
X10.0077Y-5.9354
X6.0747Y-3.3854
X6.0747Y-3.6854
X3.6327Y-4.8854
X3.6327Y-5.1854
X13.3802Y-5.6354
X13.3802Y-5.9354
X5.3247Y-3.3854
X5.3247Y-3.6854
X8.3247Y-3.3854
X8.3247Y-3.6854
X3.0747Y-3.3854
X3.0747Y-3.6854
X10.9387Y-4.1354
X10.9387Y-4.4354
X11.3247Y-3.3854
X11.3247Y-3.6854
X6.6327Y-4.8854
X6.6327Y-5.1854
X14.202Y-5.6545
X14.202Y-5.9545
X12.7222Y-4.1354
X12.7222Y-4.4354
T4
X11.839Y-6.552
X11.839Y-6.652
X11.939Y-6.552
X11.939Y-6.652
X12.039Y-6.552
X12.039Y-6.652
X12.139Y-6.552
X12.139Y-6.652
X12.239Y-6.552
X12.239Y-6.652
X12.339Y-6.552
X12.339Y-6.652
X12.439Y-6.552
X12.439Y-6.652
X12.539Y-6.552
X12.539Y-6.652
X12.639Y-6.552
X12.639Y-6.652
X12.739Y-6.552
X12.739Y-6.652
X12.839Y-6.552
X12.839Y-6.652
X12.939Y-6.552
X12.939Y-6.652
X13.039Y-6.552
X13.039Y-6.652
X13.139Y-6.552
X13.139Y-6.652
X13.239Y-6.552
X13.239Y-6.652
X13.339Y-6.552
X13.339Y-6.652
X13.439Y-6.552
X13.439Y-6.652
X13.539Y-6.552
X13.539Y-6.652
X13.639Y-6.552
X13.639Y-6.652
X13.739Y-6.552
X13.739Y-6.652
T5
X11.4577Y-5.2354
X11.5577Y-5.2354
X3.2077Y-6.7354
X3.3077Y-6.7354
X13.1417Y-4.4854
X13.2417Y-4.4854
T6
X11.5077Y-4.8779
X11.5077Y-5.1929
X3.2577Y-6.3779
X3.2577Y-6.6929
X2.6997Y-3.3779
X2.6997Y-3.6929
X13.1917Y-4.1279
X13.1917Y-4.4429
T7
X5.5497Y-3.4354
X5.6997Y-3.3754
X5.6997Y-3.6954
X5.7997Y-3.3354
X11.9217Y-5.6854
X12.0717Y-5.6254
X12.0717Y-5.9454
X12.1717Y-5.5854
X3.2937Y-5.6854
X3.4437Y-5.6254
X3.4437Y-5.9454
X3.5437Y-5.5854
X7.0497Y-3.4354
X7.1997Y-3.3754
X7.1997Y-3.6954
X7.2997Y-3.3354
X10.2327Y-5.6854
X10.3827Y-5.6254
X10.3827Y-5.9454
X10.4827Y-5.5854
X5.3577Y-4.9354
X5.5077Y-4.8754
X5.5077Y-5.1954
X5.6077Y-4.8354
X8.3577Y-4.9354
X8.5077Y-4.8754
X8.5077Y-5.1954
X8.6077Y-4.8354
X9.4827Y-5.6854
X9.6327Y-5.6254
X9.6327Y-5.9454
X9.7327Y-5.5854
X6.8577Y-4.9354
X7.0077Y-4.8754
X7.0077Y-5.1954
X7.1077Y-4.8354
X12.8577Y-4.9354
X13.0077Y-4.8754
X13.0077Y-5.1954
X13.1077Y-4.8354
X9.6637Y-4.1854
X9.8137Y-4.1254
X9.8137Y-4.4454
X9.9137Y-4.0854
X5.1637Y-4.1854
X5.3137Y-4.1254
X5.3137Y-4.4454
X5.4137Y-4.0854
X11.3577Y-4.9354
X11.6077Y-4.8354
X6.6637Y-4.1854
X6.8137Y-4.1254
X6.8137Y-4.4454
X6.9137Y-4.0854
X4.6077Y-4.9354
X4.7577Y-4.8754
X4.7577Y-5.1954
X4.8577Y-4.8354
X8.9137Y-4.1854
X9.0637Y-4.1254
X9.0637Y-4.4454
X9.1637Y-4.0854
X3.1077Y-6.4354
X3.3577Y-6.3354
X9.2997Y-3.4354
X9.4497Y-3.3754
X9.4497Y-3.6954
X9.5497Y-3.3354
X13.7997Y-3.4354
X13.9497Y-3.3754
X13.9497Y-3.6954
X14.0497Y-3.3354
X12.2997Y-3.4354
X12.4497Y-3.3754
X12.4497Y-3.6954
X12.5497Y-3.3354
X12.1027Y-4.1854
X12.2527Y-4.1254
X12.2527Y-4.4454
X12.3527Y-4.0854
X3.6637Y-4.1854
X3.8137Y-4.1254
X3.8137Y-4.4454
X3.9137Y-4.0854
X7.9827Y-5.6854
X8.1327Y-5.6254
X8.1327Y-5.9454
X8.2327Y-5.5854
X7.2327Y-5.6854
X7.3827Y-5.6254
X7.3827Y-5.9454
X7.4827Y-5.5854
X13.7917Y-4.1854
X13.9417Y-4.1254
X13.9417Y-4.4454
X14.0417Y-4.0854
X4.2327Y-5.6854
X4.3827Y-5.6254
X4.3827Y-5.9454
X4.4827Y-5.5854
X4.7997Y-3.4354
X4.9497Y-3.3754
X4.9497Y-3.6954
X5.0497Y-3.3354
X8.1637Y-4.1854
X8.3137Y-4.1254
X8.3137Y-4.4454
X8.4137Y-4.0854
X3.1077Y-4.9354
X3.2577Y-4.8754
X3.2577Y-5.1954
X3.3577Y-4.8354
X2.5497Y-3.4354
X2.7997Y-3.3354
X6.2997Y-3.4354
X6.4497Y-3.3754
X6.4497Y-3.6954
X6.5497Y-3.3354
X10.7997Y-3.4354
X10.9497Y-3.3754
X10.9497Y-3.6954
X11.0497Y-3.3354
X13.0497Y-3.4354
X13.1997Y-3.3754
X13.1997Y-3.6954
X13.2997Y-3.3354
X6.1077Y-4.9354
X6.2577Y-4.8754
X6.2577Y-5.1954
X6.3577Y-4.8354
X9.1077Y-4.9354
X9.2577Y-4.8754
X9.2577Y-5.1954
X9.3577Y-4.8354
X4.4137Y-4.1854
X4.5637Y-4.1254
X4.5637Y-4.4454
X4.6637Y-4.0854
X5.7327Y-5.6854
X5.8827Y-5.6254
X5.8827Y-5.9454
X5.9827Y-5.5854
X8.7327Y-5.6854
X8.8827Y-5.6254
X8.8827Y-5.9454
X8.9827Y-5.5854
X3.2997Y-3.4354
X3.4497Y-3.3754
X3.4497Y-3.6954
X3.5497Y-3.3354
X13.0417Y-4.1854
X13.2917Y-4.0854
X5.9137Y-4.1854
X6.0637Y-4.1254
X6.0637Y-4.4454
X6.1637Y-4.0854
X12.1077Y-4.9354
X12.2577Y-4.8754
X12.2577Y-5.1954
X12.3577Y-4.8354
X10.9827Y-5.6854
X11.1327Y-5.6254
X11.1327Y-5.9454
X11.2327Y-5.5854
X7.6037Y-6.4354
X7.7537Y-6.3754
X7.7537Y-6.6954
X7.8537Y-6.3354
X4.9827Y-5.6854
X5.1327Y-5.6254
X5.1327Y-5.9454
X5.2327Y-5.5854
X7.6077Y-4.9354
X7.7577Y-4.8754
X7.7577Y-5.1954
X7.8577Y-4.8354
X13.6107Y-5.6854
X13.7607Y-5.6254
X13.7607Y-5.9454
X13.8607Y-5.5854
X9.8577Y-4.9354
X10.0077Y-4.8754
X10.0077Y-5.1954
X10.1077Y-4.8354
X11.1637Y-4.1854
X11.3137Y-4.1254
X11.3137Y-4.4454
X11.4137Y-4.0854
X12.8607Y-5.6854
X13.0107Y-5.6254
X13.0107Y-5.9454
X13.1107Y-5.5854
X13.6077Y-4.9354
X13.7577Y-4.8754
X13.7577Y-5.1954
X13.8577Y-4.8354
X10.4137Y-4.1854
X10.5637Y-4.1254
X10.5637Y-4.4454
X10.6637Y-4.0854
X7.4137Y-4.1854
X7.5637Y-4.1254
X7.5637Y-4.4454
X7.6637Y-4.0854
X2.9207Y-4.1854
X3.0707Y-4.1254
X3.0707Y-4.4454
X3.1707Y-4.0854
X10.0497Y-3.4354
X10.1997Y-3.3754
X10.1997Y-3.6954
X10.2997Y-3.3354
X7.7997Y-3.4354
X7.9497Y-3.3754
X7.9497Y-3.6954
X8.0497Y-3.3354
X11.5497Y-3.4354
X11.6997Y-3.3754
X11.6997Y-3.6954
X11.7997Y-3.3354
X6.4827Y-5.6854
X6.6327Y-5.6254
X6.6327Y-5.9454
X6.7327Y-5.5854
X4.0497Y-3.4354
X4.1997Y-3.3754
X4.1997Y-3.6954
X4.2997Y-3.3354
X3.8577Y-4.9354
X4.0077Y-4.8754
X4.0077Y-5.1954
X4.1077Y-4.8354
X10.6077Y-4.9354
X10.7577Y-4.8754
X10.7577Y-5.1954
X10.8577Y-4.8354
X8.5497Y-3.4354
X8.6997Y-3.3754
X8.6997Y-3.6954
X8.7997Y-3.3354
T0
M30
