M48
; DRILL file {KiCad (5.1.5-0-10_14)} date Saturday, January 04, 2020 at 04:27:14 AM
; FORMAT={-:-/ absolute / inch / decimal}
; #@! TF.CreationDate,2020-01-04T04:27:14-06:00
; #@! TF.GenerationSoftware,Kicad,Pcbnew,(5.1.5-0-10_14)
; #@! TF.FileFunction,NonPlated,1,2,NPTH
FMAT,2
INCH
T1C0.0670
T2C0.1181
T3C0.1200
T4C0.1378
T5C0.1570
%
G90
G05
T1
X6.4327Y-5.7854
X6.8327Y-5.7854
X3.9997Y-3.5354
X4.3997Y-3.5354
X3.8077Y-5.0354
X4.2077Y-5.0354
X10.5577Y-5.0354
X10.9577Y-5.0354
X8.4997Y-3.5354
X8.8997Y-3.5354
X5.4997Y-3.5354
X5.8997Y-3.5354
X11.8717Y-5.7854
X12.2717Y-5.7854
X3.2437Y-5.7854
X3.6437Y-5.7854
X6.9997Y-3.5354
X7.3997Y-3.5354
X10.1827Y-5.7854
X10.5827Y-5.7854
X5.3077Y-5.0354
X5.7077Y-5.0354
X8.3077Y-5.0354
X8.7077Y-5.0354
X9.4327Y-5.7854
X9.8327Y-5.7854
X6.8077Y-5.0354
X7.2077Y-5.0354
X12.8077Y-5.0354
X13.2077Y-5.0354
X9.6137Y-4.2854
X10.0137Y-4.2854
X5.1137Y-4.2854
X5.5137Y-4.2854
X11.3077Y-5.0354
X11.7077Y-5.0354
X6.6137Y-4.2854
X7.0137Y-4.2854
X4.5577Y-5.0354
X4.9577Y-5.0354
X8.8637Y-4.2854
X9.2637Y-4.2854
X3.0577Y-6.5354
X3.4577Y-6.5354
X9.2497Y-3.5354
X9.6497Y-3.5354
X13.7497Y-3.5354
X14.1497Y-3.5354
X12.2497Y-3.5354
X12.6497Y-3.5354
X12.0527Y-4.2854
X12.4527Y-4.2854
X3.6137Y-4.2854
X4.0137Y-4.2854
X7.9327Y-5.7854
X8.3327Y-5.7854
X7.1827Y-5.7854
X7.5827Y-5.7854
X13.7417Y-4.2854
X14.1417Y-4.2854
X4.1827Y-5.7854
X4.5827Y-5.7854
X4.7497Y-3.5354
X5.1497Y-3.5354
X8.1137Y-4.2854
X8.5137Y-4.2854
X3.0577Y-5.0354
X3.4577Y-5.0354
X2.4997Y-3.5354
X2.8997Y-3.5354
X6.2497Y-3.5354
X6.6497Y-3.5354
X10.7497Y-3.5354
X11.1497Y-3.5354
X12.9997Y-3.5354
X13.3997Y-3.5354
X6.0577Y-5.0354
X6.4577Y-5.0354
X9.0577Y-5.0354
X9.4577Y-5.0354
X4.3637Y-4.2854
X4.7637Y-4.2854
X5.6827Y-5.7854
X6.0827Y-5.7854
X8.6827Y-5.7854
X9.0827Y-5.7854
X3.2497Y-3.5354
X3.6497Y-3.5354
X12.9917Y-4.2854
X13.3917Y-4.2854
X5.8637Y-4.2854
X6.2637Y-4.2854
X12.0577Y-5.0354
X12.4577Y-5.0354
X10.9327Y-5.7854
X11.3327Y-5.7854
X7.5537Y-6.5354
X7.9537Y-6.5354
X4.9327Y-5.7854
X5.3327Y-5.7854
X7.5577Y-5.0354
X7.9577Y-5.0354
X13.5607Y-5.7854
X13.9607Y-5.7854
X9.8077Y-5.0354
X10.2077Y-5.0354
X11.1137Y-4.2854
X11.5137Y-4.2854
X12.8107Y-5.7854
X13.2107Y-5.7854
X13.5577Y-5.0354
X13.9577Y-5.0354
X10.3637Y-4.2854
X10.7637Y-4.2854
X7.3637Y-4.2854
X7.7637Y-4.2854
X2.8707Y-4.2854
X3.2707Y-4.2854
X9.9997Y-3.5354
X10.3997Y-3.5354
X7.7497Y-3.5354
X8.1497Y-3.5354
X11.4997Y-3.5354
X11.8997Y-3.5354
T2
X12.0787Y-2.8794
X3.4287Y-2.8794
X7.7537Y-2.8794
X4.3687Y-6.5544
X11.1387Y-6.5544
X6.5037Y-6.9354
X9.0037Y-6.9354
T3
X5.1287Y-6.2604
X10.3787Y-6.2604
T4
X11.45Y-3.05
X2.65Y-3.05
X13.739Y-3.05
X11.405Y-6.75
X8.55Y-3.05
X14.1Y-6.75
X2.65Y-6.75
X11.839Y-3.05
X5.65Y-3.05
X14.35Y-3.05
X4.0425Y-6.75
T5
X6.0637Y-4.2854
X12.2577Y-5.0354
X11.1327Y-5.7854
X7.7537Y-6.5354
X5.1327Y-5.7854
X7.7577Y-5.0354
X13.7607Y-5.7854
X10.0077Y-5.0354
X11.3137Y-4.2854
X13.0107Y-5.7854
X13.7577Y-5.0354
X10.5637Y-4.2854
X5.1287Y-6.8604
X7.5637Y-4.2854
X3.0707Y-4.2854
X10.1997Y-3.5354
X7.9497Y-3.5354
X11.6997Y-3.5354
X6.6327Y-5.7854
X4.1997Y-3.5354
X4.0077Y-5.0354
X10.7577Y-5.0354
X8.6997Y-3.5354
X5.6997Y-3.5354
X12.0717Y-5.7854
X3.4437Y-5.7854
X7.1997Y-3.5354
X10.3827Y-5.7854
X5.5077Y-5.0354
X8.5077Y-5.0354
X9.6327Y-5.7854
X7.0077Y-5.0354
X13.0077Y-5.0354
X9.8137Y-4.2854
X5.3137Y-4.2854
X11.5077Y-5.0354
X6.8137Y-4.2854
X4.7577Y-5.0354
X9.0637Y-4.2854
X3.2577Y-6.5354
X9.4497Y-3.5354
X10.3787Y-6.8604
X13.9497Y-3.5354
X12.4497Y-3.5354
X12.2527Y-4.2854
X3.8137Y-4.2854
X8.1327Y-5.7854
X7.3827Y-5.7854
X13.9417Y-4.2854
X4.3827Y-5.7854
X4.9497Y-3.5354
X8.3137Y-4.2854
X3.2577Y-5.0354
X2.6997Y-3.5354
X6.4497Y-3.5354
X10.9497Y-3.5354
X13.1997Y-3.5354
X6.2577Y-5.0354
X9.2577Y-5.0354
X4.5637Y-4.2854
X5.8827Y-5.7854
X8.8827Y-5.7854
X3.4497Y-3.5354
X13.1917Y-4.2854
T0
M30
