G04 #@! TF.GenerationSoftware,KiCad,Pcbnew,(5.1.5-0-10_14)*
G04 #@! TF.CreationDate,2020-01-04T04:27:12-06:00*
G04 #@! TF.ProjectId,kbd-classic,6b62642d-636c-4617-9373-69632e6b6963,1.3*
G04 #@! TF.SameCoordinates,Original*
G04 #@! TF.FileFunction,Soldermask,Bot*
G04 #@! TF.FilePolarity,Negative*
%FSLAX46Y46*%
G04 Gerber Fmt 4.6, Leading zero omitted, Abs format (unit mm)*
G04 Created by KiCad (PCBNEW (5.1.5-0-10_14)) date 2020-01-04 04:27:12*
%MOMM*%
%LPD*%
G04 APERTURE LIST*
%ADD10C,2.235200*%
%ADD11C,1.701800*%
%ADD12C,3.987800*%
%ADD13O,1.600000X1.600000*%
%ADD14R,1.600000X1.600000*%
%ADD15C,3.000000*%
%ADD16C,1.270000*%
%ADD17C,1.651000*%
%ADD18C,3.048000*%
%ADD19C,3.500000*%
%ADD20R,1.700000X1.700000*%
%ADD21O,1.700000X1.700000*%
G04 APERTURE END LIST*
D10*
X68572380Y-93799660D03*
X68572380Y-85798660D03*
X71112380Y-84719160D03*
D11*
X63492380Y-89799160D03*
X73652380Y-89799160D03*
D12*
X68572380Y-89799160D03*
D10*
X64762380Y-87259160D03*
D13*
X78097380Y-93609160D03*
D14*
X78097380Y-85989160D03*
D15*
X306798980Y-73136760D03*
X87088980Y-73136760D03*
X196943980Y-73136760D03*
X110964980Y-166481760D03*
X282922980Y-166481760D03*
D16*
X291025580Y-132979160D03*
X293565580Y-132979160D03*
D17*
X292295580Y-131899660D03*
D10*
X292295580Y-123898660D03*
X294835580Y-122819160D03*
D11*
X287215580Y-127899160D03*
X297375580Y-127899160D03*
D12*
X292295580Y-127899160D03*
D10*
X288485580Y-125359160D03*
D16*
X333799180Y-113929160D03*
X336339180Y-113929160D03*
D17*
X335069180Y-112849660D03*
D10*
X335069180Y-104848660D03*
X337609180Y-103769160D03*
D11*
X329989180Y-108849160D03*
X340149180Y-108849160D03*
D12*
X335069180Y-108849160D03*
D10*
X331259180Y-106309160D03*
D13*
X344634820Y-112659160D03*
D14*
X344634820Y-105039160D03*
D16*
X81475580Y-171079160D03*
X84015580Y-171079160D03*
D17*
X82745580Y-169999660D03*
D10*
X82745580Y-161998660D03*
X85285580Y-160919160D03*
D11*
X77665580Y-165999160D03*
X87825580Y-165999160D03*
D12*
X82745580Y-165999160D03*
D10*
X78935580Y-163459160D03*
D12*
X263618980Y-174254160D03*
D18*
X263618980Y-159014160D03*
D15*
X165193980Y-176159160D03*
X228693980Y-176159160D03*
D12*
X130268980Y-174254160D03*
D18*
X130268980Y-159014160D03*
D19*
X67310000Y-171450000D03*
X102679500Y-171450000D03*
X289687000Y-171450000D03*
X358140000Y-171450000D03*
X364490000Y-77470000D03*
X348970600Y-77470000D03*
X300710600Y-77470000D03*
X290830000Y-77470000D03*
X217170000Y-77470000D03*
X143510000Y-77470000D03*
X67310000Y-77470000D03*
D10*
X193133980Y-163459160D03*
D12*
X196943980Y-165999160D03*
D11*
X202023980Y-165999160D03*
X191863980Y-165999160D03*
D10*
X199483980Y-160919160D03*
X196943980Y-161935160D03*
X196943980Y-170063160D03*
X240860580Y-144409160D03*
D12*
X244670580Y-146949160D03*
D11*
X249750580Y-146949160D03*
X239590580Y-146949160D03*
D10*
X247210580Y-141869160D03*
X244670580Y-142885160D03*
X244670580Y-151013160D03*
X83812380Y-87259160D03*
D12*
X87622380Y-89799160D03*
D11*
X92702380Y-89799160D03*
X82542380Y-89799160D03*
D10*
X90162380Y-84719160D03*
X87622380Y-85735160D03*
X87622380Y-93863160D03*
X217162380Y-87259160D03*
D12*
X220972380Y-89799160D03*
D11*
X226052380Y-89799160D03*
X215892380Y-89799160D03*
D10*
X223512380Y-84719160D03*
X220972380Y-85735160D03*
X220972380Y-93863160D03*
X259910580Y-144409160D03*
D12*
X263720580Y-146949160D03*
D11*
X268800580Y-146949160D03*
X258640580Y-146949160D03*
D10*
X266260580Y-141869160D03*
X263720580Y-142885160D03*
X263720580Y-151013160D03*
X112107980Y-106309160D03*
D12*
X115917980Y-108849160D03*
D11*
X120997980Y-108849160D03*
X110837980Y-108849160D03*
D10*
X118457980Y-103769160D03*
X115917980Y-104785160D03*
X115917980Y-112913160D03*
X102862380Y-87259160D03*
D12*
X106672380Y-89799160D03*
D11*
X111752380Y-89799160D03*
X101592380Y-89799160D03*
D10*
X109212380Y-84719160D03*
X106672380Y-85735160D03*
X106672380Y-93863160D03*
X236212380Y-87259160D03*
D12*
X240022380Y-89799160D03*
D11*
X245102380Y-89799160D03*
X234942380Y-89799160D03*
D10*
X242562380Y-84719160D03*
X240022380Y-85735160D03*
X240022380Y-93863160D03*
X250385580Y-125359160D03*
D12*
X254195580Y-127899160D03*
D11*
X259275580Y-127899160D03*
X249115580Y-127899160D03*
D10*
X256735580Y-122819160D03*
X254195580Y-123835160D03*
X254195580Y-131963160D03*
X131157980Y-106309160D03*
D12*
X134967980Y-108849160D03*
D11*
X140047980Y-108849160D03*
X129887980Y-108849160D03*
D10*
X137507980Y-103769160D03*
X134967980Y-104785160D03*
X134967980Y-112913160D03*
X121912380Y-87259160D03*
D12*
X125722380Y-89799160D03*
D11*
X130802380Y-89799160D03*
X120642380Y-89799160D03*
D10*
X128262380Y-84719160D03*
X125722380Y-85735160D03*
X125722380Y-93863160D03*
X255262380Y-87259160D03*
D12*
X259072380Y-89799160D03*
D11*
X264152380Y-89799160D03*
X253992380Y-89799160D03*
D10*
X261612380Y-84719160D03*
X259072380Y-85735160D03*
X259072380Y-93863160D03*
X245457980Y-106309160D03*
D12*
X249267980Y-108849160D03*
D11*
X254347980Y-108849160D03*
X244187980Y-108849160D03*
D10*
X251807980Y-103769160D03*
X249267980Y-104785160D03*
X249267980Y-112913160D03*
X150207980Y-106309160D03*
D12*
X154017980Y-108849160D03*
D11*
X159097980Y-108849160D03*
X148937980Y-108849160D03*
D10*
X156557980Y-103769160D03*
X154017980Y-104785160D03*
X154017980Y-112913160D03*
X140962380Y-87259160D03*
D12*
X144772380Y-89799160D03*
D11*
X149852380Y-89799160D03*
X139692380Y-89799160D03*
D10*
X147312380Y-84719160D03*
X144772380Y-85735160D03*
X144772380Y-93863160D03*
X274312380Y-87259160D03*
D12*
X278122380Y-89799160D03*
D11*
X283202380Y-89799160D03*
X273042380Y-89799160D03*
D10*
X280662380Y-84719160D03*
X278122380Y-85735160D03*
X278122380Y-93863160D03*
X283557980Y-106309160D03*
D12*
X287367980Y-108849160D03*
D11*
X292447980Y-108849160D03*
X282287980Y-108849160D03*
D10*
X289907980Y-103769160D03*
X287367980Y-104785160D03*
X287367980Y-112913160D03*
X169257980Y-106309160D03*
D12*
X173067980Y-108849160D03*
D11*
X178147980Y-108849160D03*
X167987980Y-108849160D03*
D10*
X175607980Y-103769160D03*
X173067980Y-104785160D03*
X173067980Y-112913160D03*
X160012380Y-87259160D03*
D12*
X163822380Y-89799160D03*
D11*
X168902380Y-89799160D03*
X158742380Y-89799160D03*
D10*
X166362380Y-84719160D03*
X163822380Y-85735160D03*
X163822380Y-93863160D03*
X293362380Y-87259160D03*
D12*
X297172380Y-89799160D03*
D11*
X302252380Y-89799160D03*
X292092380Y-89799160D03*
D10*
X299712380Y-84719160D03*
X297172380Y-85735160D03*
X297172380Y-93863160D03*
X307408580Y-106309160D03*
D12*
X311218580Y-108849160D03*
D11*
X316298580Y-108849160D03*
X306138580Y-108849160D03*
D10*
X313758580Y-103769160D03*
X311218580Y-104785160D03*
X311218580Y-112913160D03*
X188307980Y-106309160D03*
D12*
X192117980Y-108849160D03*
D11*
X197197980Y-108849160D03*
X187037980Y-108849160D03*
D10*
X194657980Y-103769160D03*
X192117980Y-104785160D03*
X192117980Y-112913160D03*
X179062380Y-87259160D03*
D12*
X182872380Y-89799160D03*
D11*
X187952380Y-89799160D03*
X177792380Y-89799160D03*
D10*
X185412380Y-84719160D03*
X182872380Y-85735160D03*
X182872380Y-93863160D03*
X312412380Y-87259160D03*
D12*
X316222380Y-89799160D03*
D11*
X321302380Y-89799160D03*
X311142380Y-89799160D03*
D10*
X318762380Y-84719160D03*
X316222380Y-85735160D03*
X316222380Y-93863160D03*
X207357980Y-106309160D03*
D12*
X211167980Y-108849160D03*
D11*
X216247980Y-108849160D03*
X206087980Y-108849160D03*
D10*
X213707980Y-103769160D03*
X211167980Y-104785160D03*
X211167980Y-112913160D03*
X198112380Y-87259160D03*
D12*
X201922380Y-89799160D03*
D11*
X207002380Y-89799160D03*
X196842380Y-89799160D03*
D10*
X204462380Y-84719160D03*
X201922380Y-85735160D03*
X201922380Y-93863160D03*
X331462380Y-87259160D03*
D12*
X335272380Y-89799160D03*
D11*
X340352380Y-89799160D03*
X330192380Y-89799160D03*
D10*
X337812380Y-84719160D03*
X335272380Y-85735160D03*
X335272380Y-93863160D03*
X345635580Y-125359160D03*
D12*
X349445580Y-127899160D03*
D11*
X354525580Y-127899160D03*
X344365580Y-127899160D03*
D10*
X351985580Y-122819160D03*
X349445580Y-123835160D03*
X349445580Y-131963160D03*
X226407980Y-106309160D03*
D12*
X230217980Y-108849160D03*
D11*
X235297980Y-108849160D03*
X225137980Y-108849160D03*
D10*
X232757980Y-103769160D03*
X230217980Y-104785160D03*
X230217980Y-112913160D03*
X350512380Y-87259160D03*
D12*
X354322380Y-89799160D03*
D11*
X359402380Y-89799160D03*
X349242380Y-89799160D03*
D10*
X356862380Y-84719160D03*
X354322380Y-85735160D03*
X354322380Y-93863160D03*
X326661780Y-144409160D03*
D12*
X330471780Y-146949160D03*
D11*
X335551780Y-146949160D03*
X325391780Y-146949160D03*
D10*
X333011780Y-141869160D03*
X330471780Y-142885160D03*
X330471780Y-151013160D03*
X117035580Y-125359160D03*
D12*
X120845580Y-127899160D03*
D11*
X125925580Y-127899160D03*
X115765580Y-127899160D03*
D10*
X123385580Y-122819160D03*
X120845580Y-123835160D03*
X120845580Y-131963160D03*
X126560580Y-144409160D03*
D12*
X130370580Y-146949160D03*
D11*
X135450580Y-146949160D03*
X125290580Y-146949160D03*
D10*
X132910580Y-141869160D03*
X130370580Y-142885160D03*
X130370580Y-151013160D03*
X93057980Y-106309160D03*
D12*
X96867980Y-108849160D03*
D11*
X101947980Y-108849160D03*
X91787980Y-108849160D03*
D10*
X99407980Y-103769160D03*
X96867980Y-104785160D03*
X96867980Y-112913160D03*
X307535580Y-125359160D03*
D12*
X311345580Y-127899160D03*
D11*
X316425580Y-127899160D03*
X306265580Y-127899160D03*
D10*
X313885580Y-122819160D03*
X311345580Y-123835160D03*
X311345580Y-131963160D03*
X136085580Y-125359160D03*
D12*
X139895580Y-127899160D03*
D11*
X144975580Y-127899160D03*
X134815580Y-127899160D03*
D10*
X142435580Y-122819160D03*
X139895580Y-123835160D03*
X139895580Y-131963160D03*
X145610580Y-144409160D03*
D12*
X149420580Y-146949160D03*
D11*
X154500580Y-146949160D03*
X144340580Y-146949160D03*
D10*
X151960580Y-141869160D03*
X149420580Y-142885160D03*
X149420580Y-151013160D03*
X97985580Y-125359160D03*
D12*
X101795580Y-127899160D03*
D11*
X106875580Y-127899160D03*
X96715580Y-127899160D03*
D10*
X104335580Y-122819160D03*
X101795580Y-123835160D03*
X101795580Y-131963160D03*
X78935580Y-125359160D03*
D12*
X82745580Y-127899160D03*
D11*
X87825580Y-127899160D03*
X77665580Y-127899160D03*
D10*
X85285580Y-122819160D03*
X82745580Y-123835160D03*
X82745580Y-131963160D03*
X155135580Y-125359160D03*
D12*
X158945580Y-127899160D03*
D11*
X164025580Y-127899160D03*
X153865580Y-127899160D03*
D10*
X161485580Y-122819160D03*
X158945580Y-123835160D03*
X158945580Y-131963160D03*
X164660580Y-144409160D03*
D12*
X168470580Y-146949160D03*
D11*
X173550580Y-146949160D03*
X163390580Y-146949160D03*
D10*
X171010580Y-141869160D03*
X168470580Y-142885160D03*
X168470580Y-151013160D03*
X107510580Y-144409160D03*
D12*
X111320580Y-146949160D03*
D11*
X116400580Y-146949160D03*
X106240580Y-146949160D03*
D10*
X113860580Y-141869160D03*
X111320580Y-142885160D03*
X111320580Y-151013160D03*
X74185780Y-106309160D03*
D12*
X77995780Y-108849160D03*
D11*
X83075780Y-108849160D03*
X72915780Y-108849160D03*
D10*
X80535780Y-103769160D03*
X77995780Y-104785160D03*
X77995780Y-112913160D03*
X174185580Y-125359160D03*
D12*
X177995580Y-127899160D03*
D11*
X183075580Y-127899160D03*
X172915580Y-127899160D03*
D10*
X180535580Y-122819160D03*
X177995580Y-123835160D03*
X177995580Y-131963160D03*
X183710580Y-144409160D03*
D12*
X187520580Y-146949160D03*
D11*
X192600580Y-146949160D03*
X182440580Y-146949160D03*
D10*
X190060580Y-141869160D03*
X187520580Y-142885160D03*
X187520580Y-151013160D03*
X193235580Y-125359160D03*
D12*
X197045580Y-127899160D03*
D11*
X202125580Y-127899160D03*
X191965580Y-127899160D03*
D10*
X199585580Y-122819160D03*
X197045580Y-123835160D03*
X197045580Y-131963160D03*
X202760580Y-144409160D03*
D12*
X206570580Y-146949160D03*
D11*
X211650580Y-146949160D03*
X201490580Y-146949160D03*
D10*
X209110580Y-141869160D03*
X206570580Y-142885160D03*
X206570580Y-151013160D03*
X278960580Y-144409160D03*
D12*
X282770580Y-146949160D03*
D11*
X287850580Y-146949160D03*
X277690580Y-146949160D03*
D10*
X285310580Y-141869160D03*
X282770580Y-142885160D03*
X282770580Y-151013160D03*
X212285580Y-125359160D03*
D12*
X216095580Y-127899160D03*
D11*
X221175580Y-127899160D03*
X211015580Y-127899160D03*
D10*
X218635580Y-122819160D03*
X216095580Y-123835160D03*
X216095580Y-131963160D03*
X221810580Y-144409160D03*
D12*
X225620580Y-146949160D03*
D11*
X230700580Y-146949160D03*
X220540580Y-146949160D03*
D10*
X228160580Y-141869160D03*
X225620580Y-142885160D03*
X225620580Y-151013160D03*
X269435580Y-125359160D03*
D12*
X273245580Y-127899160D03*
D11*
X278325580Y-127899160D03*
X268165580Y-127899160D03*
D10*
X275785580Y-122819160D03*
X273245580Y-123835160D03*
X273245580Y-131963160D03*
X83659980Y-144409160D03*
D12*
X87469980Y-146949160D03*
D11*
X92549980Y-146949160D03*
X82389980Y-146949160D03*
D10*
X90009980Y-141869160D03*
X87469980Y-142885160D03*
X87469980Y-151013160D03*
X231335580Y-125359160D03*
D12*
X235145580Y-127899160D03*
D11*
X240225580Y-127899160D03*
X230065580Y-127899160D03*
D10*
X237685580Y-122819160D03*
X235145580Y-123835160D03*
X235145580Y-131963160D03*
X264507980Y-106309160D03*
D12*
X268317980Y-108849160D03*
D11*
X273397980Y-108849160D03*
X263237980Y-108849160D03*
D10*
X270857980Y-103769160D03*
X268317980Y-104785160D03*
X268317980Y-112913160D03*
X302811180Y-144409160D03*
D12*
X306621180Y-146949160D03*
D11*
X311701180Y-146949160D03*
X301541180Y-146949160D03*
D10*
X309161180Y-141869160D03*
X306621180Y-142885160D03*
X306621180Y-151013160D03*
X330395580Y-131963160D03*
X330395580Y-123835160D03*
X332935580Y-122819160D03*
D11*
X325315580Y-127899160D03*
X335475580Y-127899160D03*
D12*
X330395580Y-127899160D03*
D10*
X326585580Y-125359160D03*
X350309180Y-106309160D03*
D12*
X354119180Y-108849160D03*
D11*
X359199180Y-108849160D03*
X349039180Y-108849160D03*
D10*
X356659180Y-103769160D03*
X354119180Y-104785160D03*
X354119180Y-112913160D03*
X345711780Y-144409160D03*
D12*
X349521780Y-146949160D03*
D11*
X354601780Y-146949160D03*
X344441780Y-146949160D03*
D10*
X352061780Y-141869160D03*
X349521780Y-142885160D03*
X349521780Y-151013160D03*
D20*
X300710600Y-166420800D03*
D21*
X300710600Y-168960800D03*
X303250600Y-166420800D03*
X303250600Y-168960800D03*
X305790600Y-166420800D03*
X305790600Y-168960800D03*
X308330600Y-166420800D03*
X308330600Y-168960800D03*
X310870600Y-166420800D03*
X310870600Y-168960800D03*
X313410600Y-166420800D03*
X313410600Y-168960800D03*
X315950600Y-166420800D03*
X315950600Y-168960800D03*
X318490600Y-166420800D03*
X318490600Y-168960800D03*
X321030600Y-166420800D03*
X321030600Y-168960800D03*
X323570600Y-166420800D03*
X323570600Y-168960800D03*
X326110600Y-166420800D03*
X326110600Y-168960800D03*
X328650600Y-166420800D03*
X328650600Y-168960800D03*
X331190600Y-166420800D03*
X331190600Y-168960800D03*
X333730600Y-166420800D03*
X333730600Y-168960800D03*
X336270600Y-166420800D03*
X336270600Y-168960800D03*
X338810600Y-166420800D03*
X338810600Y-168960800D03*
X341350600Y-166420800D03*
X341350600Y-168960800D03*
X343890600Y-166420800D03*
X343890600Y-168960800D03*
X346430600Y-166420800D03*
X346430600Y-168960800D03*
X348970600Y-166420800D03*
X348970600Y-168960800D03*
D13*
X325747380Y-93609160D03*
D14*
X325747380Y-85989160D03*
D13*
X239742980Y-112659160D03*
D14*
X239742980Y-105039160D03*
D13*
X363684820Y-112659160D03*
D14*
X363684820Y-105039160D03*
D13*
X318546480Y-150759160D03*
D14*
X318546480Y-143139160D03*
D13*
X277842980Y-112659160D03*
D14*
X277842980Y-105039160D03*
D13*
X254195580Y-150759160D03*
D14*
X254195580Y-143139160D03*
D13*
X244670580Y-131709160D03*
D14*
X244670580Y-124089160D03*
D13*
X99395280Y-150759160D03*
D14*
X99395280Y-143139160D03*
D13*
X282770580Y-131709160D03*
D14*
X282770580Y-124089160D03*
D13*
X235145580Y-150759160D03*
D14*
X235145580Y-143139160D03*
D13*
X225620580Y-131709160D03*
D14*
X225620580Y-124089160D03*
D13*
X294695880Y-150759160D03*
D14*
X294695880Y-143139160D03*
D13*
X216095580Y-150759160D03*
D14*
X216095580Y-143139160D03*
D13*
X206570580Y-131709160D03*
D14*
X206570580Y-124089160D03*
D13*
X207408780Y-169961560D03*
D14*
X207408780Y-162341560D03*
D13*
X197045580Y-150759160D03*
D14*
X197045580Y-143139160D03*
D13*
X187520580Y-131709160D03*
D14*
X187520580Y-124089160D03*
D13*
X87342980Y-112659160D03*
D14*
X87342980Y-105039160D03*
D13*
X120845580Y-150759160D03*
D14*
X120845580Y-143139160D03*
D13*
X177995580Y-150759160D03*
D14*
X177995580Y-143139160D03*
D13*
X168470580Y-131709160D03*
D14*
X168470580Y-124089160D03*
D13*
X92270580Y-131709160D03*
D14*
X92270580Y-124089160D03*
D13*
X111320580Y-131709160D03*
D14*
X111320580Y-124089160D03*
D13*
X158945580Y-150759160D03*
D14*
X158945580Y-143139160D03*
D13*
X149420580Y-131709160D03*
D14*
X149420580Y-124089160D03*
D13*
X321081400Y-131709160D03*
D14*
X321081400Y-124089160D03*
D13*
X106392980Y-112659160D03*
D14*
X106392980Y-105039160D03*
D13*
X139895580Y-150759160D03*
D14*
X139895580Y-143139160D03*
D13*
X130370580Y-131709160D03*
D14*
X130370580Y-124089160D03*
D13*
X360730800Y-151244300D03*
D14*
X360730800Y-143624300D03*
D13*
X339858113Y-150759160D03*
D14*
X339858113Y-143139160D03*
D13*
X363847380Y-93776800D03*
D14*
X363847380Y-86156800D03*
D13*
X359181400Y-131709160D03*
D14*
X359181400Y-124089160D03*
D13*
X344797380Y-93776800D03*
D14*
X344797380Y-86156800D03*
D13*
X211447380Y-93609160D03*
D14*
X211447380Y-85989160D03*
D13*
X220692980Y-112659160D03*
D14*
X220692980Y-105039160D03*
D13*
X192397380Y-93609160D03*
D14*
X192397380Y-85989160D03*
D13*
X201642980Y-112659160D03*
D14*
X201642980Y-105039160D03*
D13*
X323143880Y-112659160D03*
D14*
X323143880Y-105039160D03*
D13*
X306697380Y-93609160D03*
D14*
X306697380Y-85989160D03*
D13*
X173347380Y-93609160D03*
D14*
X173347380Y-85989160D03*
D13*
X182592980Y-112659160D03*
D14*
X182592980Y-105039160D03*
D13*
X299293280Y-112659160D03*
D14*
X299293280Y-105039160D03*
D13*
X287647380Y-93609160D03*
D14*
X287647380Y-85989160D03*
D13*
X154297380Y-93609160D03*
D14*
X154297380Y-85989160D03*
D13*
X163542980Y-112659160D03*
D14*
X163542980Y-105039160D03*
D13*
X258792980Y-112659160D03*
D14*
X258792980Y-105039160D03*
D13*
X268597380Y-93609160D03*
D14*
X268597380Y-85989160D03*
D13*
X135247380Y-93609160D03*
D14*
X135247380Y-85989160D03*
D13*
X144492980Y-112659160D03*
D14*
X144492980Y-105039160D03*
D13*
X263720580Y-131709160D03*
D14*
X263720580Y-124089160D03*
D13*
X249547380Y-93609160D03*
D14*
X249547380Y-85989160D03*
D13*
X116197380Y-93609160D03*
D14*
X116197380Y-85989160D03*
D13*
X125442980Y-112659160D03*
D14*
X125442980Y-105039160D03*
D13*
X273245580Y-150759160D03*
D14*
X273245580Y-143139160D03*
D13*
X230497380Y-93609160D03*
D14*
X230497380Y-85989160D03*
D13*
X97147380Y-93609160D03*
D14*
X97147380Y-85989160D03*
M02*
