G04 #@! TF.GenerationSoftware,KiCad,Pcbnew,(5.1.5-0-10_14)*
G04 #@! TF.CreationDate,2020-01-04T04:27:12-06:00*
G04 #@! TF.ProjectId,kbd-classic,6b62642d-636c-4617-9373-69632e6b6963,1.3*
G04 #@! TF.SameCoordinates,Original*
G04 #@! TF.FileFunction,Copper,L1,Top*
G04 #@! TF.FilePolarity,Positive*
%FSLAX46Y46*%
G04 Gerber Fmt 4.6, Leading zero omitted, Abs format (unit mm)*
G04 Created by KiCad (PCBNEW (5.1.5-0-10_14)) date 2020-01-04 04:27:12*
%MOMM*%
%LPD*%
G04 APERTURE LIST*
%ADD10C,0.304800*%
%ADD11C,2.235200*%
%ADD12O,1.600000X1.600000*%
%ADD13R,1.600000X1.600000*%
%ADD14C,1.270000*%
%ADD15C,1.651000*%
%ADD16R,1.700000X1.700000*%
%ADD17O,1.700000X1.700000*%
%ADD18C,0.812800*%
%ADD19C,0.800000*%
%ADD20C,0.254000*%
G04 APERTURE END LIST*
D10*
X69842380Y-84719160D02*
X69308980Y-85125560D01*
X70223380Y-84719160D02*
X69842380Y-84719160D01*
X66032380Y-91069160D02*
X68572380Y-93609160D01*
X66032380Y-89799160D02*
X66032380Y-91069160D01*
X64762380Y-87259160D02*
X66032380Y-89799160D01*
X293565580Y-122819160D02*
X293032180Y-123225560D01*
X293946580Y-122819160D02*
X293565580Y-122819160D01*
X289755580Y-129169160D02*
X292295580Y-131709160D01*
X289755580Y-127899160D02*
X289755580Y-129169160D01*
X288485580Y-125359160D02*
X289755580Y-127899160D01*
X336339180Y-103769160D02*
X335805780Y-104175560D01*
X336720180Y-103769160D02*
X336339180Y-103769160D01*
X332529180Y-110119160D02*
X335069180Y-112659160D01*
X332529180Y-108849160D02*
X332529180Y-110119160D01*
X331259180Y-106309160D02*
X332529180Y-108849160D01*
X84015580Y-160919160D02*
X83482180Y-161325560D01*
X84396580Y-160919160D02*
X84015580Y-160919160D01*
X80205580Y-167269160D02*
X82745580Y-169809160D01*
X80205580Y-165999160D02*
X80205580Y-167269160D01*
X78935580Y-163459160D02*
X80205580Y-165999160D01*
X198213980Y-160919160D02*
X197680580Y-161325560D01*
X198594980Y-160919160D02*
X198213980Y-160919160D01*
X194403980Y-167269160D02*
X196943980Y-169809160D01*
X194403980Y-165999160D02*
X194403980Y-167269160D01*
X193133980Y-163459160D02*
X194403980Y-165999160D01*
X245940580Y-141869160D02*
X245407180Y-142275560D01*
X246321580Y-141869160D02*
X245940580Y-141869160D01*
X242130580Y-148219160D02*
X244670580Y-150759160D01*
X242130580Y-146949160D02*
X242130580Y-148219160D01*
X240860580Y-144409160D02*
X242130580Y-146949160D01*
X88892380Y-84719160D02*
X88358980Y-85125560D01*
X89273380Y-84719160D02*
X88892380Y-84719160D01*
X85082380Y-91069160D02*
X87622380Y-93609160D01*
X85082380Y-89799160D02*
X85082380Y-91069160D01*
X83812380Y-87259160D02*
X85082380Y-89799160D01*
X222242380Y-84719160D02*
X221708980Y-85125560D01*
X222623380Y-84719160D02*
X222242380Y-84719160D01*
X218432380Y-91069160D02*
X220972380Y-93609160D01*
X218432380Y-89799160D02*
X218432380Y-91069160D01*
X217162380Y-87259160D02*
X218432380Y-89799160D01*
X264990580Y-141869160D02*
X264457180Y-142275560D01*
X265371580Y-141869160D02*
X264990580Y-141869160D01*
X261180580Y-148219160D02*
X263720580Y-150759160D01*
X261180580Y-146949160D02*
X261180580Y-148219160D01*
X259910580Y-144409160D02*
X261180580Y-146949160D01*
X117187980Y-103769160D02*
X116654580Y-104175560D01*
X117568980Y-103769160D02*
X117187980Y-103769160D01*
X113377980Y-110119160D02*
X115917980Y-112659160D01*
X113377980Y-108849160D02*
X113377980Y-110119160D01*
X112107980Y-106309160D02*
X113377980Y-108849160D01*
X107942380Y-84719160D02*
X107408980Y-85125560D01*
X108323380Y-84719160D02*
X107942380Y-84719160D01*
X104132380Y-91069160D02*
X106672380Y-93609160D01*
X104132380Y-89799160D02*
X104132380Y-91069160D01*
X102862380Y-87259160D02*
X104132380Y-89799160D01*
X241292380Y-84719160D02*
X240758980Y-85125560D01*
X241673380Y-84719160D02*
X241292380Y-84719160D01*
X237482380Y-91069160D02*
X240022380Y-93609160D01*
X237482380Y-89799160D02*
X237482380Y-91069160D01*
X236212380Y-87259160D02*
X237482380Y-89799160D01*
X255465580Y-122819160D02*
X254932180Y-123225560D01*
X255846580Y-122819160D02*
X255465580Y-122819160D01*
X251655580Y-129169160D02*
X254195580Y-131709160D01*
X251655580Y-127899160D02*
X251655580Y-129169160D01*
X250385580Y-125359160D02*
X251655580Y-127899160D01*
X136237980Y-103769160D02*
X135704580Y-104175560D01*
X136618980Y-103769160D02*
X136237980Y-103769160D01*
X132427980Y-110119160D02*
X134967980Y-112659160D01*
X132427980Y-108849160D02*
X132427980Y-110119160D01*
X131157980Y-106309160D02*
X132427980Y-108849160D01*
X126992380Y-84719160D02*
X126458980Y-85125560D01*
X127373380Y-84719160D02*
X126992380Y-84719160D01*
X123182380Y-91069160D02*
X125722380Y-93609160D01*
X123182380Y-89799160D02*
X123182380Y-91069160D01*
X121912380Y-87259160D02*
X123182380Y-89799160D01*
X260342380Y-84719160D02*
X259808980Y-85125560D01*
X260723380Y-84719160D02*
X260342380Y-84719160D01*
X256532380Y-91069160D02*
X259072380Y-93609160D01*
X256532380Y-89799160D02*
X256532380Y-91069160D01*
X255262380Y-87259160D02*
X256532380Y-89799160D01*
X250537980Y-103769160D02*
X250004580Y-104175560D01*
X250918980Y-103769160D02*
X250537980Y-103769160D01*
X246727980Y-110119160D02*
X249267980Y-112659160D01*
X246727980Y-108849160D02*
X246727980Y-110119160D01*
X245457980Y-106309160D02*
X246727980Y-108849160D01*
X155287980Y-103769160D02*
X154754580Y-104175560D01*
X155668980Y-103769160D02*
X155287980Y-103769160D01*
X151477980Y-110119160D02*
X154017980Y-112659160D01*
X151477980Y-108849160D02*
X151477980Y-110119160D01*
X150207980Y-106309160D02*
X151477980Y-108849160D01*
X146042380Y-84719160D02*
X145508980Y-85125560D01*
X146423380Y-84719160D02*
X146042380Y-84719160D01*
X142232380Y-91069160D02*
X144772380Y-93609160D01*
X142232380Y-89799160D02*
X142232380Y-91069160D01*
X140962380Y-87259160D02*
X142232380Y-89799160D01*
X279392380Y-84719160D02*
X278858980Y-85125560D01*
X279773380Y-84719160D02*
X279392380Y-84719160D01*
X275582380Y-91069160D02*
X278122380Y-93609160D01*
X275582380Y-89799160D02*
X275582380Y-91069160D01*
X274312380Y-87259160D02*
X275582380Y-89799160D01*
X288637980Y-103769160D02*
X288104580Y-104175560D01*
X289018980Y-103769160D02*
X288637980Y-103769160D01*
X284827980Y-110119160D02*
X287367980Y-112659160D01*
X284827980Y-108849160D02*
X284827980Y-110119160D01*
X283557980Y-106309160D02*
X284827980Y-108849160D01*
X174337980Y-103769160D02*
X173804580Y-104175560D01*
X174718980Y-103769160D02*
X174337980Y-103769160D01*
X170527980Y-110119160D02*
X173067980Y-112659160D01*
X170527980Y-108849160D02*
X170527980Y-110119160D01*
X169257980Y-106309160D02*
X170527980Y-108849160D01*
X165092380Y-84719160D02*
X164558980Y-85125560D01*
X165473380Y-84719160D02*
X165092380Y-84719160D01*
X161282380Y-91069160D02*
X163822380Y-93609160D01*
X161282380Y-89799160D02*
X161282380Y-91069160D01*
X160012380Y-87259160D02*
X161282380Y-89799160D01*
X298442380Y-84719160D02*
X297908980Y-85125560D01*
X298823380Y-84719160D02*
X298442380Y-84719160D01*
X294632380Y-91069160D02*
X297172380Y-93609160D01*
X294632380Y-89799160D02*
X294632380Y-91069160D01*
X293362380Y-87259160D02*
X294632380Y-89799160D01*
X312488580Y-103769160D02*
X311955180Y-104175560D01*
X312869580Y-103769160D02*
X312488580Y-103769160D01*
X308678580Y-110119160D02*
X311218580Y-112659160D01*
X308678580Y-108849160D02*
X308678580Y-110119160D01*
X307408580Y-106309160D02*
X308678580Y-108849160D01*
X193387980Y-103769160D02*
X192854580Y-104175560D01*
X193768980Y-103769160D02*
X193387980Y-103769160D01*
X189577980Y-110119160D02*
X192117980Y-112659160D01*
X189577980Y-108849160D02*
X189577980Y-110119160D01*
X188307980Y-106309160D02*
X189577980Y-108849160D01*
X184142380Y-84719160D02*
X183608980Y-85125560D01*
X184523380Y-84719160D02*
X184142380Y-84719160D01*
X180332380Y-91069160D02*
X182872380Y-93609160D01*
X180332380Y-89799160D02*
X180332380Y-91069160D01*
X179062380Y-87259160D02*
X180332380Y-89799160D01*
X317492380Y-84719160D02*
X316958980Y-85125560D01*
X317873380Y-84719160D02*
X317492380Y-84719160D01*
X313682380Y-91069160D02*
X316222380Y-93609160D01*
X313682380Y-89799160D02*
X313682380Y-91069160D01*
X312412380Y-87259160D02*
X313682380Y-89799160D01*
X212437980Y-103769160D02*
X211904580Y-104175560D01*
X212818980Y-103769160D02*
X212437980Y-103769160D01*
X208627980Y-110119160D02*
X211167980Y-112659160D01*
X208627980Y-108849160D02*
X208627980Y-110119160D01*
X207357980Y-106309160D02*
X208627980Y-108849160D01*
X203192380Y-84719160D02*
X202658980Y-85125560D01*
X203573380Y-84719160D02*
X203192380Y-84719160D01*
X199382380Y-91069160D02*
X201922380Y-93609160D01*
X199382380Y-89799160D02*
X199382380Y-91069160D01*
X198112380Y-87259160D02*
X199382380Y-89799160D01*
X336542380Y-84719160D02*
X336008980Y-85125560D01*
X336923380Y-84719160D02*
X336542380Y-84719160D01*
X332732380Y-91069160D02*
X335272380Y-93609160D01*
X332732380Y-89799160D02*
X332732380Y-91069160D01*
X331462380Y-87259160D02*
X332732380Y-89799160D01*
X350715580Y-122819160D02*
X350182180Y-123225560D01*
X351096580Y-122819160D02*
X350715580Y-122819160D01*
X346905580Y-129169160D02*
X349445580Y-131709160D01*
X346905580Y-127899160D02*
X346905580Y-129169160D01*
X345635580Y-125359160D02*
X346905580Y-127899160D01*
X231487980Y-103769160D02*
X230954580Y-104175560D01*
X231868980Y-103769160D02*
X231487980Y-103769160D01*
X227677980Y-110119160D02*
X230217980Y-112659160D01*
X227677980Y-108849160D02*
X227677980Y-110119160D01*
X226407980Y-106309160D02*
X227677980Y-108849160D01*
X355592380Y-84719160D02*
X355058980Y-85125560D01*
X355973380Y-84719160D02*
X355592380Y-84719160D01*
X351782380Y-91069160D02*
X354322380Y-93609160D01*
X351782380Y-89799160D02*
X351782380Y-91069160D01*
X350512380Y-87259160D02*
X351782380Y-89799160D01*
X331741780Y-141869160D02*
X331208380Y-142275560D01*
X332122780Y-141869160D02*
X331741780Y-141869160D01*
X327931780Y-148219160D02*
X330471780Y-150759160D01*
X327931780Y-146949160D02*
X327931780Y-148219160D01*
X326661780Y-144409160D02*
X327931780Y-146949160D01*
X122115580Y-122819160D02*
X121582180Y-123225560D01*
X122496580Y-122819160D02*
X122115580Y-122819160D01*
X118305580Y-129169160D02*
X120845580Y-131709160D01*
X118305580Y-127899160D02*
X118305580Y-129169160D01*
X117035580Y-125359160D02*
X118305580Y-127899160D01*
X131640580Y-141869160D02*
X131107180Y-142275560D01*
X132021580Y-141869160D02*
X131640580Y-141869160D01*
X127830580Y-148219160D02*
X130370580Y-150759160D01*
X127830580Y-146949160D02*
X127830580Y-148219160D01*
X126560580Y-144409160D02*
X127830580Y-146949160D01*
X98137980Y-103769160D02*
X97604580Y-104175560D01*
X98518980Y-103769160D02*
X98137980Y-103769160D01*
X94327980Y-110119160D02*
X96867980Y-112659160D01*
X94327980Y-108849160D02*
X94327980Y-110119160D01*
X93057980Y-106309160D02*
X94327980Y-108849160D01*
X312615580Y-122819160D02*
X312082180Y-123225560D01*
X312996580Y-122819160D02*
X312615580Y-122819160D01*
X308805580Y-129169160D02*
X311345580Y-131709160D01*
X308805580Y-127899160D02*
X308805580Y-129169160D01*
X307535580Y-125359160D02*
X308805580Y-127899160D01*
X141165580Y-122819160D02*
X140632180Y-123225560D01*
X141546580Y-122819160D02*
X141165580Y-122819160D01*
X137355580Y-129169160D02*
X139895580Y-131709160D01*
X137355580Y-127899160D02*
X137355580Y-129169160D01*
X136085580Y-125359160D02*
X137355580Y-127899160D01*
X150690580Y-141869160D02*
X150157180Y-142275560D01*
X151071580Y-141869160D02*
X150690580Y-141869160D01*
X146880580Y-148219160D02*
X149420580Y-150759160D01*
X146880580Y-146949160D02*
X146880580Y-148219160D01*
X145610580Y-144409160D02*
X146880580Y-146949160D01*
X103065580Y-122819160D02*
X102532180Y-123225560D01*
X103446580Y-122819160D02*
X103065580Y-122819160D01*
X99255580Y-129169160D02*
X101795580Y-131709160D01*
X99255580Y-127899160D02*
X99255580Y-129169160D01*
X97985580Y-125359160D02*
X99255580Y-127899160D01*
X84015580Y-122819160D02*
X83482180Y-123225560D01*
X84396580Y-122819160D02*
X84015580Y-122819160D01*
X80205580Y-129169160D02*
X82745580Y-131709160D01*
X80205580Y-127899160D02*
X80205580Y-129169160D01*
X78935580Y-125359160D02*
X80205580Y-127899160D01*
X160215580Y-122819160D02*
X159682180Y-123225560D01*
X160596580Y-122819160D02*
X160215580Y-122819160D01*
X156405580Y-129169160D02*
X158945580Y-131709160D01*
X156405580Y-127899160D02*
X156405580Y-129169160D01*
X155135580Y-125359160D02*
X156405580Y-127899160D01*
X169740580Y-141869160D02*
X169207180Y-142275560D01*
X170121580Y-141869160D02*
X169740580Y-141869160D01*
X165930580Y-148219160D02*
X168470580Y-150759160D01*
X165930580Y-146949160D02*
X165930580Y-148219160D01*
X164660580Y-144409160D02*
X165930580Y-146949160D01*
X112590580Y-141869160D02*
X112057180Y-142275560D01*
X112971580Y-141869160D02*
X112590580Y-141869160D01*
X108780580Y-148219160D02*
X111320580Y-150759160D01*
X108780580Y-146949160D02*
X108780580Y-148219160D01*
X107510580Y-144409160D02*
X108780580Y-146949160D01*
X79265780Y-103769160D02*
X78732380Y-104175560D01*
X79646780Y-103769160D02*
X79265780Y-103769160D01*
X75455780Y-110119160D02*
X77995780Y-112659160D01*
X75455780Y-108849160D02*
X75455780Y-110119160D01*
X74185780Y-106309160D02*
X75455780Y-108849160D01*
X179265580Y-122819160D02*
X178732180Y-123225560D01*
X179646580Y-122819160D02*
X179265580Y-122819160D01*
X175455580Y-129169160D02*
X177995580Y-131709160D01*
X175455580Y-127899160D02*
X175455580Y-129169160D01*
X174185580Y-125359160D02*
X175455580Y-127899160D01*
X188790580Y-141869160D02*
X188257180Y-142275560D01*
X189171580Y-141869160D02*
X188790580Y-141869160D01*
X184980580Y-148219160D02*
X187520580Y-150759160D01*
X184980580Y-146949160D02*
X184980580Y-148219160D01*
X183710580Y-144409160D02*
X184980580Y-146949160D01*
X198315580Y-122819160D02*
X197782180Y-123225560D01*
X198696580Y-122819160D02*
X198315580Y-122819160D01*
X194505580Y-129169160D02*
X197045580Y-131709160D01*
X194505580Y-127899160D02*
X194505580Y-129169160D01*
X193235580Y-125359160D02*
X194505580Y-127899160D01*
X207840580Y-141869160D02*
X207307180Y-142275560D01*
X208221580Y-141869160D02*
X207840580Y-141869160D01*
X204030580Y-148219160D02*
X206570580Y-150759160D01*
X204030580Y-146949160D02*
X204030580Y-148219160D01*
X202760580Y-144409160D02*
X204030580Y-146949160D01*
X284040580Y-141869160D02*
X283507180Y-142275560D01*
X284421580Y-141869160D02*
X284040580Y-141869160D01*
X280230580Y-148219160D02*
X282770580Y-150759160D01*
X280230580Y-146949160D02*
X280230580Y-148219160D01*
X278960580Y-144409160D02*
X280230580Y-146949160D01*
X217365580Y-122819160D02*
X216832180Y-123225560D01*
X217746580Y-122819160D02*
X217365580Y-122819160D01*
X213555580Y-129169160D02*
X216095580Y-131709160D01*
X213555580Y-127899160D02*
X213555580Y-129169160D01*
X212285580Y-125359160D02*
X213555580Y-127899160D01*
X226890580Y-141869160D02*
X226357180Y-142275560D01*
X227271580Y-141869160D02*
X226890580Y-141869160D01*
X223080580Y-148219160D02*
X225620580Y-150759160D01*
X223080580Y-146949160D02*
X223080580Y-148219160D01*
X221810580Y-144409160D02*
X223080580Y-146949160D01*
X274515580Y-122819160D02*
X273982180Y-123225560D01*
X274896580Y-122819160D02*
X274515580Y-122819160D01*
X270705580Y-129169160D02*
X273245580Y-131709160D01*
X270705580Y-127899160D02*
X270705580Y-129169160D01*
X269435580Y-125359160D02*
X270705580Y-127899160D01*
X88739980Y-141869160D02*
X88206580Y-142275560D01*
X89120980Y-141869160D02*
X88739980Y-141869160D01*
X84929980Y-148219160D02*
X87469980Y-150759160D01*
X84929980Y-146949160D02*
X84929980Y-148219160D01*
X83659980Y-144409160D02*
X84929980Y-146949160D01*
X236415580Y-122819160D02*
X235882180Y-123225560D01*
X236796580Y-122819160D02*
X236415580Y-122819160D01*
X232605580Y-129169160D02*
X235145580Y-131709160D01*
X232605580Y-127899160D02*
X232605580Y-129169160D01*
X231335580Y-125359160D02*
X232605580Y-127899160D01*
X269587980Y-103769160D02*
X269054580Y-104175560D01*
X269968980Y-103769160D02*
X269587980Y-103769160D01*
X265777980Y-110119160D02*
X268317980Y-112659160D01*
X265777980Y-108849160D02*
X265777980Y-110119160D01*
X264507980Y-106309160D02*
X265777980Y-108849160D01*
X307891180Y-141869160D02*
X307357780Y-142275560D01*
X308272180Y-141869160D02*
X307891180Y-141869160D01*
X304081180Y-148219160D02*
X306621180Y-150759160D01*
X304081180Y-146949160D02*
X304081180Y-148219160D01*
X302811180Y-144409160D02*
X304081180Y-146949160D01*
X326585580Y-125359160D02*
X327855580Y-127899160D01*
X327855580Y-127899160D02*
X327855580Y-129169160D01*
X327855580Y-129169160D02*
X330395580Y-131709160D01*
X332046580Y-122819160D02*
X331665580Y-122819160D01*
X331665580Y-122819160D02*
X331132180Y-123225560D01*
X355389180Y-103769160D02*
X354855780Y-104175560D01*
X355770180Y-103769160D02*
X355389180Y-103769160D01*
X351579180Y-110119160D02*
X354119180Y-112659160D01*
X351579180Y-108849160D02*
X351579180Y-110119160D01*
X350309180Y-106309160D02*
X351579180Y-108849160D01*
X350791780Y-141869160D02*
X350258380Y-142275560D01*
X351172780Y-141869160D02*
X350791780Y-141869160D01*
X346981780Y-148219160D02*
X349521780Y-150759160D01*
X346981780Y-146949160D02*
X346981780Y-148219160D01*
X345711780Y-144409160D02*
X346981780Y-146949160D01*
D11*
X68572380Y-93799660D03*
X68572380Y-85798660D03*
X71112380Y-84719160D03*
X64762380Y-87259160D03*
D12*
X78097380Y-93609160D03*
D13*
X78097380Y-85989160D03*
D14*
X291025580Y-132979160D03*
X293565580Y-132979160D03*
D15*
X292295580Y-131899660D03*
D11*
X292295580Y-123898660D03*
X294835580Y-122819160D03*
X288485580Y-125359160D03*
D14*
X333799180Y-113929160D03*
X336339180Y-113929160D03*
D15*
X335069180Y-112849660D03*
D11*
X335069180Y-104848660D03*
X337609180Y-103769160D03*
X331259180Y-106309160D03*
D12*
X344634820Y-112659160D03*
D13*
X344634820Y-105039160D03*
D14*
X81475580Y-171079160D03*
X84015580Y-171079160D03*
D15*
X82745580Y-169999660D03*
D11*
X82745580Y-161998660D03*
X85285580Y-160919160D03*
X78935580Y-163459160D03*
X193133980Y-163459160D03*
X199483980Y-160919160D03*
X196943980Y-161935160D03*
X196943980Y-170063160D03*
X240860580Y-144409160D03*
X247210580Y-141869160D03*
X244670580Y-142885160D03*
X244670580Y-151013160D03*
X83812380Y-87259160D03*
X90162380Y-84719160D03*
X87622380Y-85735160D03*
X87622380Y-93863160D03*
X217162380Y-87259160D03*
X223512380Y-84719160D03*
X220972380Y-85735160D03*
X220972380Y-93863160D03*
X259910580Y-144409160D03*
X266260580Y-141869160D03*
X263720580Y-142885160D03*
X263720580Y-151013160D03*
X112107980Y-106309160D03*
X118457980Y-103769160D03*
X115917980Y-104785160D03*
X115917980Y-112913160D03*
X102862380Y-87259160D03*
X109212380Y-84719160D03*
X106672380Y-85735160D03*
X106672380Y-93863160D03*
X236212380Y-87259160D03*
X242562380Y-84719160D03*
X240022380Y-85735160D03*
X240022380Y-93863160D03*
X250385580Y-125359160D03*
X256735580Y-122819160D03*
X254195580Y-123835160D03*
X254195580Y-131963160D03*
X131157980Y-106309160D03*
X137507980Y-103769160D03*
X134967980Y-104785160D03*
X134967980Y-112913160D03*
X121912380Y-87259160D03*
X128262380Y-84719160D03*
X125722380Y-85735160D03*
X125722380Y-93863160D03*
X255262380Y-87259160D03*
X261612380Y-84719160D03*
X259072380Y-85735160D03*
X259072380Y-93863160D03*
X245457980Y-106309160D03*
X251807980Y-103769160D03*
X249267980Y-104785160D03*
X249267980Y-112913160D03*
X150207980Y-106309160D03*
X156557980Y-103769160D03*
X154017980Y-104785160D03*
X154017980Y-112913160D03*
X140962380Y-87259160D03*
X147312380Y-84719160D03*
X144772380Y-85735160D03*
X144772380Y-93863160D03*
X274312380Y-87259160D03*
X280662380Y-84719160D03*
X278122380Y-85735160D03*
X278122380Y-93863160D03*
X283557980Y-106309160D03*
X289907980Y-103769160D03*
X287367980Y-104785160D03*
X287367980Y-112913160D03*
X169257980Y-106309160D03*
X175607980Y-103769160D03*
X173067980Y-104785160D03*
X173067980Y-112913160D03*
X160012380Y-87259160D03*
X166362380Y-84719160D03*
X163822380Y-85735160D03*
X163822380Y-93863160D03*
X293362380Y-87259160D03*
X299712380Y-84719160D03*
X297172380Y-85735160D03*
X297172380Y-93863160D03*
X307408580Y-106309160D03*
X313758580Y-103769160D03*
X311218580Y-104785160D03*
X311218580Y-112913160D03*
X188307980Y-106309160D03*
X194657980Y-103769160D03*
X192117980Y-104785160D03*
X192117980Y-112913160D03*
X179062380Y-87259160D03*
X185412380Y-84719160D03*
X182872380Y-85735160D03*
X182872380Y-93863160D03*
X312412380Y-87259160D03*
X318762380Y-84719160D03*
X316222380Y-85735160D03*
X316222380Y-93863160D03*
X207357980Y-106309160D03*
X213707980Y-103769160D03*
X211167980Y-104785160D03*
X211167980Y-112913160D03*
X198112380Y-87259160D03*
X204462380Y-84719160D03*
X201922380Y-85735160D03*
X201922380Y-93863160D03*
X331462380Y-87259160D03*
X337812380Y-84719160D03*
X335272380Y-85735160D03*
X335272380Y-93863160D03*
X345635580Y-125359160D03*
X351985580Y-122819160D03*
X349445580Y-123835160D03*
X349445580Y-131963160D03*
X226407980Y-106309160D03*
X232757980Y-103769160D03*
X230217980Y-104785160D03*
X230217980Y-112913160D03*
X350512380Y-87259160D03*
X356862380Y-84719160D03*
X354322380Y-85735160D03*
X354322380Y-93863160D03*
X326661780Y-144409160D03*
X333011780Y-141869160D03*
X330471780Y-142885160D03*
X330471780Y-151013160D03*
X117035580Y-125359160D03*
X123385580Y-122819160D03*
X120845580Y-123835160D03*
X120845580Y-131963160D03*
X126560580Y-144409160D03*
X132910580Y-141869160D03*
X130370580Y-142885160D03*
X130370580Y-151013160D03*
X93057980Y-106309160D03*
X99407980Y-103769160D03*
X96867980Y-104785160D03*
X96867980Y-112913160D03*
X307535580Y-125359160D03*
X313885580Y-122819160D03*
X311345580Y-123835160D03*
X311345580Y-131963160D03*
X136085580Y-125359160D03*
X142435580Y-122819160D03*
X139895580Y-123835160D03*
X139895580Y-131963160D03*
X145610580Y-144409160D03*
X151960580Y-141869160D03*
X149420580Y-142885160D03*
X149420580Y-151013160D03*
X97985580Y-125359160D03*
X104335580Y-122819160D03*
X101795580Y-123835160D03*
X101795580Y-131963160D03*
X78935580Y-125359160D03*
X85285580Y-122819160D03*
X82745580Y-123835160D03*
X82745580Y-131963160D03*
X155135580Y-125359160D03*
X161485580Y-122819160D03*
X158945580Y-123835160D03*
X158945580Y-131963160D03*
X164660580Y-144409160D03*
X171010580Y-141869160D03*
X168470580Y-142885160D03*
X168470580Y-151013160D03*
X107510580Y-144409160D03*
X113860580Y-141869160D03*
X111320580Y-142885160D03*
X111320580Y-151013160D03*
X74185780Y-106309160D03*
X80535780Y-103769160D03*
X77995780Y-104785160D03*
X77995780Y-112913160D03*
X174185580Y-125359160D03*
X180535580Y-122819160D03*
X177995580Y-123835160D03*
X177995580Y-131963160D03*
X183710580Y-144409160D03*
X190060580Y-141869160D03*
X187520580Y-142885160D03*
X187520580Y-151013160D03*
X193235580Y-125359160D03*
X199585580Y-122819160D03*
X197045580Y-123835160D03*
X197045580Y-131963160D03*
X202760580Y-144409160D03*
X209110580Y-141869160D03*
X206570580Y-142885160D03*
X206570580Y-151013160D03*
X278960580Y-144409160D03*
X285310580Y-141869160D03*
X282770580Y-142885160D03*
X282770580Y-151013160D03*
X212285580Y-125359160D03*
X218635580Y-122819160D03*
X216095580Y-123835160D03*
X216095580Y-131963160D03*
X221810580Y-144409160D03*
X228160580Y-141869160D03*
X225620580Y-142885160D03*
X225620580Y-151013160D03*
X269435580Y-125359160D03*
X275785580Y-122819160D03*
X273245580Y-123835160D03*
X273245580Y-131963160D03*
X83659980Y-144409160D03*
X90009980Y-141869160D03*
X87469980Y-142885160D03*
X87469980Y-151013160D03*
X231335580Y-125359160D03*
X237685580Y-122819160D03*
X235145580Y-123835160D03*
X235145580Y-131963160D03*
X264507980Y-106309160D03*
X270857980Y-103769160D03*
X268317980Y-104785160D03*
X268317980Y-112913160D03*
X302811180Y-144409160D03*
X309161180Y-141869160D03*
X306621180Y-142885160D03*
X306621180Y-151013160D03*
X330395580Y-131963160D03*
X330395580Y-123835160D03*
X332935580Y-122819160D03*
X326585580Y-125359160D03*
X350309180Y-106309160D03*
X356659180Y-103769160D03*
X354119180Y-104785160D03*
X354119180Y-112913160D03*
X345711780Y-144409160D03*
X352061780Y-141869160D03*
X349521780Y-142885160D03*
X349521780Y-151013160D03*
D16*
X300710600Y-166420800D03*
D17*
X300710600Y-168960800D03*
X303250600Y-166420800D03*
X303250600Y-168960800D03*
X305790600Y-166420800D03*
X305790600Y-168960800D03*
X308330600Y-166420800D03*
X308330600Y-168960800D03*
X310870600Y-166420800D03*
X310870600Y-168960800D03*
X313410600Y-166420800D03*
X313410600Y-168960800D03*
X315950600Y-166420800D03*
X315950600Y-168960800D03*
X318490600Y-166420800D03*
X318490600Y-168960800D03*
X321030600Y-166420800D03*
X321030600Y-168960800D03*
X323570600Y-166420800D03*
X323570600Y-168960800D03*
X326110600Y-166420800D03*
X326110600Y-168960800D03*
X328650600Y-166420800D03*
X328650600Y-168960800D03*
X331190600Y-166420800D03*
X331190600Y-168960800D03*
X333730600Y-166420800D03*
X333730600Y-168960800D03*
X336270600Y-166420800D03*
X336270600Y-168960800D03*
X338810600Y-166420800D03*
X338810600Y-168960800D03*
X341350600Y-166420800D03*
X341350600Y-168960800D03*
X343890600Y-166420800D03*
X343890600Y-168960800D03*
X346430600Y-166420800D03*
X346430600Y-168960800D03*
X348970600Y-166420800D03*
X348970600Y-168960800D03*
D12*
X325747380Y-93609160D03*
D13*
X325747380Y-85989160D03*
D12*
X239742980Y-112659160D03*
D13*
X239742980Y-105039160D03*
D12*
X363684820Y-112659160D03*
D13*
X363684820Y-105039160D03*
D12*
X318546480Y-150759160D03*
D13*
X318546480Y-143139160D03*
D12*
X277842980Y-112659160D03*
D13*
X277842980Y-105039160D03*
D12*
X254195580Y-150759160D03*
D13*
X254195580Y-143139160D03*
D12*
X244670580Y-131709160D03*
D13*
X244670580Y-124089160D03*
D12*
X99395280Y-150759160D03*
D13*
X99395280Y-143139160D03*
D12*
X282770580Y-131709160D03*
D13*
X282770580Y-124089160D03*
D12*
X235145580Y-150759160D03*
D13*
X235145580Y-143139160D03*
D12*
X225620580Y-131709160D03*
D13*
X225620580Y-124089160D03*
D12*
X294695880Y-150759160D03*
D13*
X294695880Y-143139160D03*
D12*
X216095580Y-150759160D03*
D13*
X216095580Y-143139160D03*
D12*
X206570580Y-131709160D03*
D13*
X206570580Y-124089160D03*
D12*
X207408780Y-169961560D03*
D13*
X207408780Y-162341560D03*
D12*
X197045580Y-150759160D03*
D13*
X197045580Y-143139160D03*
D12*
X187520580Y-131709160D03*
D13*
X187520580Y-124089160D03*
D12*
X87342980Y-112659160D03*
D13*
X87342980Y-105039160D03*
D12*
X120845580Y-150759160D03*
D13*
X120845580Y-143139160D03*
D12*
X177995580Y-150759160D03*
D13*
X177995580Y-143139160D03*
D12*
X168470580Y-131709160D03*
D13*
X168470580Y-124089160D03*
D12*
X92270580Y-131709160D03*
D13*
X92270580Y-124089160D03*
D12*
X111320580Y-131709160D03*
D13*
X111320580Y-124089160D03*
D12*
X158945580Y-150759160D03*
D13*
X158945580Y-143139160D03*
D12*
X149420580Y-131709160D03*
D13*
X149420580Y-124089160D03*
D12*
X321081400Y-131709160D03*
D13*
X321081400Y-124089160D03*
D12*
X106392980Y-112659160D03*
D13*
X106392980Y-105039160D03*
D12*
X139895580Y-150759160D03*
D13*
X139895580Y-143139160D03*
D12*
X130370580Y-131709160D03*
D13*
X130370580Y-124089160D03*
D12*
X360730800Y-151244300D03*
D13*
X360730800Y-143624300D03*
D12*
X339858113Y-150759160D03*
D13*
X339858113Y-143139160D03*
D12*
X363847380Y-93776800D03*
D13*
X363847380Y-86156800D03*
D12*
X359181400Y-131709160D03*
D13*
X359181400Y-124089160D03*
D12*
X344797380Y-93776800D03*
D13*
X344797380Y-86156800D03*
D12*
X211447380Y-93609160D03*
D13*
X211447380Y-85989160D03*
D12*
X220692980Y-112659160D03*
D13*
X220692980Y-105039160D03*
D12*
X192397380Y-93609160D03*
D13*
X192397380Y-85989160D03*
D12*
X201642980Y-112659160D03*
D13*
X201642980Y-105039160D03*
D12*
X323143880Y-112659160D03*
D13*
X323143880Y-105039160D03*
D12*
X306697380Y-93609160D03*
D13*
X306697380Y-85989160D03*
D12*
X173347380Y-93609160D03*
D13*
X173347380Y-85989160D03*
D12*
X182592980Y-112659160D03*
D13*
X182592980Y-105039160D03*
D12*
X299293280Y-112659160D03*
D13*
X299293280Y-105039160D03*
D12*
X287647380Y-93609160D03*
D13*
X287647380Y-85989160D03*
D12*
X154297380Y-93609160D03*
D13*
X154297380Y-85989160D03*
D12*
X163542980Y-112659160D03*
D13*
X163542980Y-105039160D03*
D12*
X258792980Y-112659160D03*
D13*
X258792980Y-105039160D03*
D12*
X268597380Y-93609160D03*
D13*
X268597380Y-85989160D03*
D12*
X135247380Y-93609160D03*
D13*
X135247380Y-85989160D03*
D12*
X144492980Y-112659160D03*
D13*
X144492980Y-105039160D03*
D12*
X263720580Y-131709160D03*
D13*
X263720580Y-124089160D03*
D12*
X249547380Y-93609160D03*
D13*
X249547380Y-85989160D03*
D12*
X116197380Y-93609160D03*
D13*
X116197380Y-85989160D03*
D12*
X125442980Y-112659160D03*
D13*
X125442980Y-105039160D03*
D12*
X273245580Y-150759160D03*
D13*
X273245580Y-143139160D03*
D12*
X230497380Y-93609160D03*
D13*
X230497380Y-85989160D03*
D12*
X97147380Y-93609160D03*
D13*
X97147380Y-85989160D03*
D18*
X340839410Y-123825000D03*
X301426880Y-118371620D03*
X87342980Y-105039160D03*
X301426880Y-120721120D03*
X316896034Y-156241034D03*
X296417988Y-157480000D03*
D19*
X239455960Y-100853240D03*
X364404848Y-101472331D03*
D18*
X337994602Y-101145998D03*
D19*
X356433120Y-143416020D03*
D18*
X363067600Y-101991160D03*
X232473500Y-158877000D03*
X357301800Y-119443498D03*
X337439000Y-135318500D03*
D19*
X352463100Y-138666220D03*
X273291300Y-134884160D03*
X215249760Y-101770180D03*
D18*
X301741840Y-134884160D03*
X321945001Y-135128000D03*
D19*
X207048100Y-97373440D03*
X319102740Y-122473720D03*
X319410080Y-107210860D03*
D18*
X218899740Y-159646620D03*
D19*
X191424560Y-97497900D03*
X317662560Y-138107990D03*
D18*
X303276000Y-159893000D03*
D19*
X172783500Y-96012000D03*
X302704500Y-154559000D03*
X167906700Y-137576560D03*
X91279980Y-137584180D03*
X131427220Y-102006400D03*
X261188620Y-138009589D03*
D18*
X257403600Y-163953812D03*
D19*
X132552440Y-96202500D03*
X148586190Y-138393170D03*
D18*
X256159000Y-163953810D03*
D19*
X254571500Y-138366500D03*
X263956800Y-136870440D03*
X223377760Y-134061200D03*
X313720480Y-136524430D03*
D18*
X127553720Y-136763760D03*
X327510140Y-82349340D03*
X354500180Y-137167620D03*
D20*
X331190600Y-166420800D02*
X342773000Y-154838400D01*
X340839410Y-140306410D02*
X342709500Y-142176500D01*
X340839410Y-123825000D02*
X340839410Y-140306410D01*
X342773000Y-154838400D02*
X342709500Y-142176500D01*
X168470580Y-123035160D02*
X168470580Y-124089160D01*
X318546480Y-142085160D02*
X318470280Y-142008960D01*
X318546480Y-143139160D02*
X318546480Y-142085160D01*
X321081400Y-125143160D02*
X321081400Y-124089160D01*
X318470280Y-127754280D02*
X321081400Y-125143160D01*
X318470280Y-142008960D02*
X318470280Y-127754280D01*
X87342980Y-105039160D02*
X87342980Y-106093160D01*
X92270580Y-125143160D02*
X92532200Y-125404780D01*
X92270580Y-124089160D02*
X92270580Y-125143160D01*
X92532200Y-125404780D02*
X92532200Y-128490980D01*
X92532200Y-128490980D02*
X96083120Y-132041900D01*
X96083120Y-132041900D02*
X96083120Y-138808460D01*
X99395280Y-142085160D02*
X99395280Y-143139160D01*
X96118580Y-138808460D02*
X99395280Y-142085160D01*
X96083120Y-138808460D02*
X96118580Y-138808460D01*
X86288980Y-105039160D02*
X87342980Y-105039160D01*
X92270580Y-122648980D02*
X92270580Y-124089160D01*
X89938860Y-120317260D02*
X92270580Y-122648980D01*
X89938860Y-108689040D02*
X89938860Y-120317260D01*
X87342980Y-106093160D02*
X89938860Y-108689040D01*
X301426880Y-118371620D02*
X301426880Y-120721120D01*
X318546480Y-143139160D02*
X318546480Y-144193160D01*
X316896034Y-145843606D02*
X316896034Y-155666298D01*
X316896034Y-155666298D02*
X316896034Y-156241034D01*
X318546480Y-144193160D02*
X316896034Y-145843606D01*
X79151380Y-85989160D02*
X81127600Y-87965380D01*
X78097380Y-85989160D02*
X79151380Y-85989160D01*
X81127600Y-87965380D02*
X81127600Y-95097600D01*
X87342980Y-101312980D02*
X87342980Y-105039160D01*
X81127600Y-95097600D02*
X87342980Y-101312980D01*
X106392980Y-105039160D02*
X106392980Y-109082840D01*
X111320580Y-114010440D02*
X111320580Y-124089160D01*
X106392980Y-109082840D02*
X111320580Y-114010440D01*
X111320580Y-125143160D02*
X113903760Y-127726340D01*
X111320580Y-124089160D02*
X111320580Y-125143160D01*
X113903760Y-127726340D02*
X113903760Y-135483600D01*
X120845580Y-142085160D02*
X120845580Y-143139160D01*
X114244020Y-135483600D02*
X120845580Y-142085160D01*
X113903760Y-135483600D02*
X114244020Y-135483600D01*
X296417988Y-156905264D02*
X296417988Y-157480000D01*
X294695880Y-143139160D02*
X294695880Y-144193160D01*
X294695880Y-144193160D02*
X296418010Y-145915290D01*
X296418010Y-145915290D02*
X296418010Y-156905242D01*
X296418010Y-156905242D02*
X296417988Y-156905264D01*
X277842980Y-106093160D02*
X277842980Y-105039160D01*
X280103580Y-108353760D02*
X277842980Y-106093160D01*
X277558500Y-117823080D02*
X277558500Y-116713000D01*
X280103580Y-114167920D02*
X280103580Y-108353760D01*
X282770580Y-123035160D02*
X277558500Y-117823080D01*
X277558500Y-116713000D02*
X280103580Y-114167920D01*
X282770580Y-124089160D02*
X282770580Y-123035160D01*
X282770580Y-125143160D02*
X282770580Y-124089160D01*
X284988000Y-127360580D02*
X282770580Y-125143160D01*
X284988000Y-133985000D02*
X284988000Y-127360580D01*
X283718000Y-135255000D02*
X284988000Y-133985000D01*
X294695880Y-143139160D02*
X289570160Y-143139160D01*
X283718000Y-137414000D02*
X283718000Y-135255000D01*
X285432500Y-139128500D02*
X283718000Y-137414000D01*
X285559500Y-139128500D02*
X285432500Y-139128500D01*
X289570160Y-143139160D02*
X285559500Y-139128500D01*
X239455960Y-104752140D02*
X239742980Y-105039160D01*
X239455960Y-100853240D02*
X239455960Y-104752140D01*
X366143540Y-103211023D02*
X364404848Y-101472331D01*
X366143540Y-138211560D02*
X366143540Y-103211023D01*
X360730800Y-143624300D02*
X366143540Y-138211560D01*
X342200599Y-152870801D02*
X329500599Y-165570801D01*
X329500599Y-165570801D02*
X328650600Y-166420800D01*
X342150700Y-105302096D02*
X342150700Y-118160800D01*
X342150700Y-118160800D02*
X340106000Y-120205500D01*
X340106000Y-140850068D02*
X342200599Y-142944667D01*
X342200599Y-142944667D02*
X342200599Y-152870801D01*
X340106000Y-120205500D02*
X340106000Y-140850068D01*
X337994602Y-101145998D02*
X342150700Y-105302096D01*
X263720580Y-123035160D02*
X263720580Y-124089160D01*
X261259320Y-120573900D02*
X263720580Y-123035160D01*
X358127400Y-124089160D02*
X359181400Y-124089160D01*
X356433120Y-125783440D02*
X358127400Y-124089160D01*
X356433120Y-143416020D02*
X356433120Y-125783440D01*
X359181400Y-124089160D02*
X365419640Y-117850920D01*
X365419640Y-117850920D02*
X365419640Y-104343200D01*
X365419640Y-104343200D02*
X363067600Y-101991160D01*
X273245580Y-136212580D02*
X273245580Y-143139160D01*
X264957560Y-127924560D02*
X273245580Y-136212580D01*
X264957560Y-126380140D02*
X264957560Y-127924560D01*
X263720580Y-124089160D02*
X263720580Y-125143160D01*
X263720580Y-125143160D02*
X264957560Y-126380140D01*
X341604600Y-150926800D02*
X326110600Y-166420800D01*
X341604600Y-145939647D02*
X341604600Y-150926800D01*
X339858113Y-144193160D02*
X341604600Y-145939647D01*
X339858113Y-143139160D02*
X339858113Y-144193160D01*
X261259320Y-106451500D02*
X259846980Y-105039160D01*
X259846980Y-105039160D02*
X258792980Y-105039160D01*
X261259320Y-120573900D02*
X261259320Y-106451500D01*
X226479100Y-135382000D02*
X232473500Y-141376400D01*
X222313500Y-134747000D02*
X222948500Y-135382000D01*
X223266000Y-132397500D02*
X222313500Y-133350000D01*
X222353481Y-125007981D02*
X223266000Y-125920500D01*
X219113100Y-119875300D02*
X222353481Y-123115681D01*
X219113100Y-102527100D02*
X219113100Y-119875300D01*
X222948500Y-135382000D02*
X226479100Y-135382000D01*
X222313500Y-133350000D02*
X222313500Y-134747000D01*
X213944200Y-97358200D02*
X219113100Y-102527100D01*
X222353481Y-123115681D02*
X222353481Y-125007981D01*
X232473500Y-141376400D02*
X232473500Y-158877000D01*
X213944200Y-89539980D02*
X213944200Y-97358200D01*
X211447380Y-87043160D02*
X213944200Y-89539980D01*
X223266000Y-125920500D02*
X223266000Y-132397500D01*
X211447380Y-85989160D02*
X211447380Y-87043160D01*
X354788374Y-86201154D02*
X357329740Y-88742520D01*
X357329740Y-88742520D02*
X357329740Y-100147120D01*
X357329740Y-100147120D02*
X356344220Y-100147120D01*
X354119180Y-102372160D02*
X354119180Y-104356648D01*
X356344220Y-100147120D02*
X354119180Y-102372160D01*
X354587436Y-105253416D02*
X357370380Y-108036360D01*
X357370380Y-119374918D02*
X357301800Y-119443498D01*
X357370380Y-108036360D02*
X357370380Y-119374918D01*
X330558140Y-140103860D02*
X331343000Y-139319000D01*
X330558140Y-142374812D02*
X330558140Y-140103860D01*
X330259786Y-142673166D02*
X330558140Y-142374812D01*
X337439000Y-137541000D02*
X337439000Y-135318500D01*
X335661000Y-139319000D02*
X337439000Y-137541000D01*
X331343000Y-139319000D02*
X335661000Y-139319000D01*
X332892400Y-151549100D02*
X318490600Y-165950900D01*
X332892400Y-145305780D02*
X332892400Y-151549100D01*
X318490600Y-165950900D02*
X318490600Y-166420800D01*
X330471780Y-142885160D02*
X332892400Y-145305780D01*
X233728260Y-108295440D02*
X230683974Y-105251154D01*
X233728260Y-111648240D02*
X233728260Y-108295440D01*
X235145580Y-113065560D02*
X235145580Y-123411172D01*
X233728260Y-111648240D02*
X235145580Y-113065560D01*
X244670580Y-139573000D02*
X244670580Y-142461172D01*
X239956340Y-134858760D02*
X244670580Y-139573000D01*
X239956340Y-130566160D02*
X239956340Y-134858760D01*
X238312960Y-128922780D02*
X239956340Y-130566160D01*
X235611574Y-124301154D02*
X238312960Y-127002540D01*
X238312960Y-127002540D02*
X238312960Y-128922780D01*
X352468180Y-126857760D02*
X349911574Y-124301154D01*
X352468180Y-128013460D02*
X352468180Y-126857760D01*
X352468180Y-128013460D02*
X352468180Y-138661140D01*
X352468180Y-138661140D02*
X352463100Y-138666220D01*
X205115160Y-88927940D02*
X202388374Y-86201154D01*
X205115160Y-89946480D02*
X205115160Y-88927940D01*
X205115160Y-89946480D02*
X205115160Y-93929200D01*
X205115160Y-93929200D02*
X212956140Y-101770180D01*
X212956140Y-101770180D02*
X215249760Y-101770180D01*
X301752000Y-134894320D02*
X301741840Y-134884160D01*
X301752000Y-138015980D02*
X301752000Y-134894320D01*
X306621180Y-142885160D02*
X301752000Y-138015980D01*
X321945001Y-135702736D02*
X321945001Y-135128000D01*
X315950600Y-166420800D02*
X321945001Y-160426399D01*
X321945001Y-160426399D02*
X321945001Y-135702736D01*
X272953480Y-134884160D02*
X273291300Y-134884160D01*
X266118340Y-128049020D02*
X272953480Y-134884160D01*
X266118340Y-124152660D02*
X266118340Y-128049020D01*
X271292320Y-118978680D02*
X266118340Y-124152660D01*
X271292320Y-107759500D02*
X271292320Y-118978680D01*
X268783974Y-105251154D02*
X271292320Y-107759500D01*
X343682320Y-116161820D02*
X349233586Y-121713086D01*
X343682320Y-114282220D02*
X343682320Y-116161820D01*
X343344500Y-113944400D02*
X343682320Y-114282220D01*
X343344500Y-98552000D02*
X343344500Y-113944400D01*
X349233586Y-121713086D02*
X349233586Y-123623166D01*
X338399120Y-93606620D02*
X343344500Y-98552000D01*
X338399120Y-88861900D02*
X338399120Y-93606620D01*
X335738374Y-86201154D02*
X338399120Y-88861900D01*
X215163592Y-123835160D02*
X215671592Y-123835160D01*
X214640160Y-123311728D02*
X215163592Y-123835160D01*
X211633974Y-105251154D02*
X214640160Y-108257340D01*
X214640160Y-108257340D02*
X214640160Y-123311728D01*
X211167980Y-101493320D02*
X211167980Y-104361172D01*
X207048100Y-97373440D02*
X211167980Y-101493320D01*
X316688374Y-86201154D02*
X319410080Y-88922860D01*
X319410080Y-88922860D02*
X319410080Y-90520520D01*
X319410080Y-122166380D02*
X319102740Y-122473720D01*
X319410080Y-90520520D02*
X319410080Y-107210860D01*
X319410080Y-107210860D02*
X319410080Y-122166380D01*
X225408586Y-142673166D02*
X224181670Y-141446250D01*
X224181670Y-141446250D02*
X221763590Y-141446250D01*
X221763590Y-141446250D02*
X218899740Y-144310100D01*
X218899740Y-144310100D02*
X218899740Y-159646620D01*
X314260599Y-165570801D02*
X313410600Y-166420800D01*
X320875011Y-158956389D02*
X314260599Y-165570801D01*
X323268989Y-132216511D02*
X320875011Y-134610489D01*
X320875011Y-134610489D02*
X320875011Y-158956389D01*
X323268989Y-124088147D02*
X323268989Y-132216511D01*
X321654562Y-122473720D02*
X323268989Y-124088147D01*
X319102740Y-122473720D02*
X321654562Y-122473720D01*
X219420440Y-127160020D02*
X216561574Y-124301154D01*
X224181670Y-138901170D02*
X219420440Y-134139940D01*
X219420440Y-134139940D02*
X219420440Y-127160020D01*
X224181670Y-141446250D02*
X224181670Y-138901170D01*
X192117980Y-104785160D02*
X195013580Y-107680760D01*
X195013580Y-107680760D02*
X195013580Y-110886240D01*
X197045580Y-113483925D02*
X197045580Y-123411172D01*
X195013580Y-110886240D02*
X195013580Y-111451925D01*
X195013580Y-111451925D02*
X197045580Y-113483925D01*
X192120520Y-98193860D02*
X191424560Y-97497900D01*
X192117980Y-104361172D02*
X192120520Y-104358632D01*
X192120520Y-104358632D02*
X192120520Y-98193860D01*
X206570580Y-139075160D02*
X206570580Y-142461172D01*
X200080880Y-132585460D02*
X206570580Y-139075160D01*
X197511574Y-124301154D02*
X200080880Y-126870460D01*
X200080880Y-126870460D02*
X200080880Y-132585460D01*
X314258960Y-108765340D02*
X317835280Y-112341660D01*
X317835280Y-112341660D02*
X317835280Y-137935270D01*
X311684574Y-105251154D02*
X314258960Y-107825540D01*
X317835280Y-137935270D02*
X317662560Y-138107990D01*
X314258960Y-107825540D02*
X314258960Y-108765340D01*
X317262561Y-138507989D02*
X316621911Y-138507989D01*
X317662560Y-138107990D02*
X317262561Y-138507989D01*
X316621911Y-138507989D02*
X316014100Y-139115800D01*
X316014100Y-139115800D02*
X316014100Y-155079700D01*
X310870600Y-160223200D02*
X316014100Y-155079700D01*
X310870600Y-166420800D02*
X310870600Y-160223200D01*
X300156880Y-91305380D02*
X311006586Y-102155086D01*
X300156880Y-88719660D02*
X300156880Y-91305380D01*
X311006586Y-102155086D02*
X311006586Y-104573166D01*
X297638374Y-86201154D02*
X300156880Y-88719660D01*
X175719740Y-107436920D02*
X173533974Y-105251154D01*
X175719740Y-108389420D02*
X175719740Y-107436920D01*
X175719740Y-108160820D02*
X175719740Y-108389420D01*
X177995580Y-120667780D02*
X177995580Y-123411172D01*
X175719740Y-108389420D02*
X175719740Y-118391940D01*
X175719740Y-118391940D02*
X177995580Y-120667780D01*
X187520580Y-139252960D02*
X187520580Y-142461172D01*
X180558440Y-132290820D02*
X187520580Y-139252960D01*
X178461574Y-124301154D02*
X180558440Y-126398020D01*
X180558440Y-126398020D02*
X180558440Y-132290820D01*
X196943980Y-157810200D02*
X196943980Y-161511172D01*
X190355220Y-151221440D02*
X196943980Y-157810200D01*
X190355220Y-145669000D02*
X190355220Y-151221440D01*
X187986574Y-143351154D02*
X190304420Y-145669000D01*
X190304420Y-145669000D02*
X190355220Y-145669000D01*
X173067980Y-104361172D02*
X172783500Y-104076692D01*
X172783500Y-104076692D02*
X172783500Y-96577685D01*
X172783500Y-96577685D02*
X172783500Y-96012000D01*
X281259280Y-94251780D02*
X287155986Y-100148486D01*
X281259280Y-88872060D02*
X281259280Y-94251780D01*
X287155986Y-100148486D02*
X287155986Y-104573166D01*
X278588374Y-86201154D02*
X281259280Y-88872060D01*
X302704500Y-159321500D02*
X302704500Y-155124685D01*
X302704500Y-155124685D02*
X302704500Y-154559000D01*
X303276000Y-159893000D02*
X302704500Y-159321500D01*
X290487100Y-112615980D02*
X300336001Y-122464881D01*
X287833974Y-105251154D02*
X290487100Y-107904280D01*
X290487100Y-107904280D02*
X290487100Y-112615980D01*
X300336001Y-122464881D02*
X300336001Y-152190501D01*
X302304501Y-154159001D02*
X302704500Y-154559000D01*
X300336001Y-152190501D02*
X302304501Y-154159001D01*
X68572380Y-84218135D02*
X70215115Y-82575400D01*
X68572380Y-85798660D02*
X68572380Y-84218135D01*
X141612620Y-82575400D02*
X144772380Y-85735160D01*
X70215115Y-82575400D02*
X141612620Y-82575400D01*
X157353000Y-122242580D02*
X158733586Y-123623166D01*
X154017980Y-104785160D02*
X157353000Y-108120180D01*
X157353000Y-108120180D02*
X157353000Y-122242580D01*
X168470580Y-138142980D02*
X168470580Y-142461172D01*
X161851340Y-131523740D02*
X168470580Y-138142980D01*
X159411574Y-124301154D02*
X161851340Y-126740920D01*
X161851340Y-126740920D02*
X161851340Y-131523740D01*
X89428320Y-120149620D02*
X89428320Y-135732520D01*
X89428320Y-135732520D02*
X91279980Y-137584180D01*
X81127600Y-111848900D02*
X89428320Y-120149620D01*
X81127600Y-107916980D02*
X81127600Y-111848900D01*
X78461774Y-105251154D02*
X81127600Y-107916980D01*
X247304560Y-102821740D02*
X249055986Y-104573166D01*
X247304560Y-84896960D02*
X247304560Y-102821740D01*
X247964960Y-84236560D02*
X247304560Y-84896960D01*
X258860386Y-85523166D02*
X257573780Y-84236560D01*
X257573780Y-84236560D02*
X247964960Y-84236560D01*
X252402340Y-115095020D02*
X261178040Y-123870720D01*
X249733974Y-105251154D02*
X252402340Y-107919520D01*
X252402340Y-107919520D02*
X252402340Y-115095020D01*
X261178040Y-123870720D02*
X261178040Y-137999009D01*
X261178040Y-137999009D02*
X261188620Y-138009589D01*
X257403600Y-141794609D02*
X257403600Y-163953812D01*
X261188620Y-138009589D02*
X257403600Y-141794609D01*
X131427220Y-98851720D02*
X131427220Y-102006400D01*
X128805940Y-96230440D02*
X131427220Y-98851720D01*
X128805940Y-88818720D02*
X128805940Y-96230440D01*
X126188374Y-86201154D02*
X128805940Y-88818720D01*
X134967980Y-99183725D02*
X134967980Y-104361172D01*
X132552440Y-96202500D02*
X132552440Y-96768185D01*
X132552440Y-96768185D02*
X134967980Y-99183725D01*
X149420580Y-139227560D02*
X149420580Y-142461172D01*
X140361574Y-124301154D02*
X143322040Y-127261620D01*
X143322040Y-127261620D02*
X143322040Y-133129020D01*
X143322040Y-133129020D02*
X148586190Y-138393170D01*
X148586190Y-138393170D02*
X149420580Y-139227560D01*
X242326160Y-111965740D02*
X253983586Y-123623166D01*
X242326160Y-107668060D02*
X242326160Y-111965740D01*
X245129661Y-104864559D02*
X244764571Y-104864559D01*
X244013379Y-105980841D02*
X242326160Y-107668060D01*
X246443500Y-94551500D02*
X246443500Y-103550720D01*
X243146580Y-91254580D02*
X246443500Y-94551500D01*
X244764571Y-104864559D02*
X244013379Y-105615751D01*
X246443500Y-103550720D02*
X245129661Y-104864559D01*
X243146580Y-88859360D02*
X243146580Y-91254580D01*
X244013379Y-105615751D02*
X244013379Y-105980841D01*
X240488374Y-86201154D02*
X243146580Y-88859360D01*
X256159000Y-163953810D02*
X256159000Y-139954000D01*
X256159000Y-139954000D02*
X254571500Y-138366500D01*
X254971499Y-137966501D02*
X254571500Y-138366500D01*
X256558999Y-125319739D02*
X256558999Y-136379001D01*
X255100994Y-123861734D02*
X256558999Y-125319739D01*
X256558999Y-136379001D02*
X254971499Y-137966501D01*
X129809240Y-103685340D02*
X128285240Y-105209340D01*
X133868160Y-103685340D02*
X129809240Y-103685340D01*
X128285240Y-105209340D02*
X128285240Y-110060740D01*
X134755986Y-104573166D02*
X133868160Y-103685340D01*
X128285240Y-110060740D02*
X128285240Y-117680740D01*
X134439660Y-123835160D02*
X139895580Y-123835160D01*
X128285240Y-117680740D02*
X134439660Y-123835160D01*
X120845580Y-123835160D02*
X119727981Y-122717561D01*
X119727981Y-108595161D02*
X116383974Y-105251154D01*
X119727981Y-122097799D02*
X119727981Y-108595161D01*
X119727981Y-122717561D02*
X119727981Y-122097799D01*
X130370580Y-139580620D02*
X130370580Y-142461172D01*
X119727981Y-122097799D02*
X119727981Y-122730261D01*
X119727981Y-122730261D02*
X120627236Y-123629516D01*
X123863100Y-126865380D02*
X123863100Y-133073140D01*
X121305224Y-124307504D02*
X123863100Y-126865380D01*
X263956800Y-142224952D02*
X263720580Y-142461172D01*
X263956800Y-136870440D02*
X263956800Y-142224952D01*
X314345320Y-126834900D02*
X314345320Y-135899590D01*
X311811574Y-124301154D02*
X314345320Y-126834900D01*
X314345320Y-135899590D02*
X313720480Y-136524430D01*
X123863100Y-133073140D02*
X127553720Y-136763760D01*
X127553720Y-136763760D02*
X130370580Y-139580620D01*
X300710600Y-166395400D02*
X300710600Y-166420800D01*
X313720480Y-153385520D02*
X300710600Y-166395400D01*
X313720480Y-136524430D02*
X313720480Y-153385520D01*
X90741500Y-96901000D02*
X96655986Y-102815486D01*
X90741500Y-88854280D02*
X90741500Y-96901000D01*
X96655986Y-102815486D02*
X96655986Y-104573166D01*
X88088374Y-86201154D02*
X90741500Y-88854280D01*
X223777759Y-133661201D02*
X223377760Y-134061200D01*
X223974010Y-133464950D02*
X223777759Y-133661201D01*
X224744291Y-125216161D02*
X223974010Y-125986442D01*
X223974010Y-125986442D02*
X223974010Y-133464950D01*
X226747581Y-123212871D02*
X226747581Y-125150761D01*
X227266500Y-122693952D02*
X226747581Y-123212871D01*
X227266500Y-110385668D02*
X227266500Y-122693952D01*
X227198570Y-110317738D02*
X227266500Y-110385668D01*
X225714571Y-107753761D02*
X226594285Y-107753761D01*
X226747581Y-125150761D02*
X226682181Y-125216161D01*
X224963379Y-107002569D02*
X225714571Y-107753761D01*
X227198570Y-108962333D02*
X227198570Y-110317738D01*
X224963379Y-105615751D02*
X224963379Y-107002569D01*
X227101389Y-104864559D02*
X225714571Y-104864559D01*
X226682181Y-125216161D02*
X224744291Y-125216161D01*
X221438374Y-86201154D02*
X224091500Y-88854280D01*
X225714571Y-104864559D02*
X224963379Y-105615751D01*
X224091500Y-93535500D02*
X227266500Y-96710500D01*
X226594285Y-107753761D02*
X227198570Y-108962333D01*
X227266500Y-105029670D02*
X227101389Y-104864559D01*
X224091500Y-88854280D02*
X224091500Y-93535500D01*
X227266500Y-96710500D02*
X227266500Y-105029670D01*
X339217000Y-138684000D02*
X338220022Y-139680978D01*
X327510140Y-82349340D02*
X327510140Y-113083340D01*
X324420599Y-165570801D02*
X323570600Y-166420800D01*
X330568300Y-116141500D02*
X335534000Y-116141500D01*
X338220022Y-139680978D02*
X338220022Y-148585114D01*
X339217000Y-119824500D02*
X339217000Y-138684000D01*
X327510140Y-113083340D02*
X330568300Y-116141500D01*
X338220022Y-148585114D02*
X338201000Y-148604136D01*
X335534000Y-116141500D02*
X339217000Y-119824500D01*
X338201000Y-148604136D02*
X338201000Y-151790400D01*
X338201000Y-151790400D02*
X324420599Y-165570801D01*
X355703481Y-135964319D02*
X355703481Y-122725839D01*
X354500180Y-137167620D02*
X355703481Y-135964319D01*
X355703481Y-122725839D02*
X362094780Y-116334540D01*
X363684820Y-106093160D02*
X363684820Y-105039160D01*
X362094780Y-107683200D02*
X363684820Y-106093160D01*
X362094780Y-116334540D02*
X362094780Y-107683200D01*
X354500180Y-144127220D02*
X354500180Y-137167620D01*
X352679000Y-145948400D02*
X354500180Y-144127220D01*
X352679000Y-152019000D02*
X352679000Y-145948400D01*
X350075500Y-154622500D02*
X352679000Y-152019000D01*
X344424000Y-154622500D02*
X350075500Y-154622500D01*
X333730600Y-165315900D02*
X344424000Y-154622500D01*
X333730600Y-166420800D02*
X333730600Y-165315900D01*
X177995580Y-142085160D02*
X177995580Y-143139160D01*
X295148000Y-128270000D02*
X299812032Y-132934032D01*
X301711838Y-171704000D02*
X308127400Y-171704000D01*
X299812032Y-165030766D02*
X299533600Y-165309198D01*
X310020601Y-169810799D02*
X310870600Y-168960800D01*
X292295580Y-123835160D02*
X295148000Y-126687580D01*
X299533600Y-169525762D02*
X301711838Y-171704000D01*
X295148000Y-126687580D02*
X295148000Y-128270000D01*
X299812032Y-132934032D02*
X299812032Y-165030766D01*
X299533600Y-165309198D02*
X299533600Y-169525762D01*
X308127400Y-171704000D02*
X310020601Y-169810799D01*
X301831768Y-172465998D02*
X309905402Y-172465998D01*
X299079589Y-165121141D02*
X299079589Y-169713819D01*
X299358022Y-133559522D02*
X299358022Y-164842708D01*
X292774989Y-131724400D02*
X297522900Y-131724400D01*
X309905402Y-172465998D02*
X313410600Y-168960800D01*
X292774989Y-131907739D02*
X292774989Y-131724400D01*
X297522900Y-131724400D02*
X299358022Y-133559522D01*
X299358022Y-164842708D02*
X299079589Y-165121141D01*
X299079589Y-169713819D02*
X301831768Y-172465998D01*
X315100601Y-169810799D02*
X315950600Y-168960800D01*
X311991391Y-172920009D02*
X315100601Y-169810799D01*
X301643711Y-172920009D02*
X311991391Y-172920009D01*
X298625579Y-169901877D02*
X301643711Y-172920009D01*
X298625579Y-164933083D02*
X298625579Y-169901877D01*
X298904011Y-164654651D02*
X298625579Y-164933083D01*
X297063160Y-132979160D02*
X298904011Y-134820011D01*
X298904011Y-134820011D02*
X298904011Y-164654651D01*
X293565580Y-132979160D02*
X297063160Y-132979160D01*
X314077380Y-173374020D02*
X318490600Y-168960800D01*
X298171569Y-170089935D02*
X298450000Y-170368366D01*
X298450000Y-164466595D02*
X298171568Y-164745030D01*
X298171568Y-164745030D02*
X298171569Y-170089935D01*
X298450000Y-135572500D02*
X298450000Y-164466595D01*
X291528500Y-134620000D02*
X297497500Y-134620000D01*
X299343886Y-173374020D02*
X314077380Y-173374020D01*
X291025580Y-134117080D02*
X291528500Y-134620000D01*
X298450000Y-172480134D02*
X299343886Y-173374020D01*
X298450000Y-170368366D02*
X298450000Y-172480134D01*
X297497500Y-134620000D02*
X298450000Y-135572500D01*
X291025580Y-132979160D02*
X291025580Y-134117080D01*
X337693000Y-149987000D02*
X337693000Y-148470068D01*
X322326000Y-167665400D02*
X322326000Y-165354000D01*
X321030600Y-168960800D02*
X322326000Y-167665400D01*
X337693000Y-148470068D02*
X337766011Y-148397057D01*
X333756000Y-127195580D02*
X331513179Y-124952759D01*
X337766011Y-138991989D02*
X338709000Y-138049000D01*
X337766011Y-148397057D02*
X337766011Y-138991989D01*
X338709000Y-138049000D02*
X338709000Y-134493000D01*
X338709000Y-134493000D02*
X333756000Y-129540000D01*
X331513179Y-124952759D02*
X330395580Y-123835160D01*
X322326000Y-165354000D02*
X337693000Y-149987000D01*
X333756000Y-129540000D02*
X333756000Y-127195580D01*
X322720601Y-169810799D02*
X323570600Y-168960800D01*
X321843400Y-170688000D02*
X322720601Y-169810799D01*
X319786000Y-169926000D02*
X320548000Y-170688000D01*
X337312000Y-148209000D02*
X319786000Y-165735000D01*
X338175602Y-134848602D02*
X338175602Y-137566398D01*
X335515569Y-132188569D02*
X338175602Y-134848602D01*
X330395580Y-132188569D02*
X335515569Y-132188569D01*
X319786000Y-165735000D02*
X319786000Y-169926000D01*
X320548000Y-170688000D02*
X321843400Y-170688000D01*
X338175602Y-137566398D02*
X337312000Y-138430000D01*
X337312000Y-138430000D02*
X337312000Y-148209000D01*
X76486601Y-94088569D02*
X68572380Y-94088569D01*
X76966010Y-93609160D02*
X76486601Y-94088569D01*
X78097380Y-93609160D02*
X76966010Y-93609160D01*
M02*
